<?xml version="1.0" encoding="UTF-8"?>
<!DOCTYPE svg PUBLIC "-//W3C//DTD SVG 1.1//EN" "http://www.w3.org/Graphics/SVG/1.1/DTD/svg11.dtd">
<!-- Creator: CorelDRAW 2018 (64 Bit Versión de evaluación) -->
<svg xmlns="http://www.w3.org/2000/svg" xml:space="preserve" width="66px" height="66px" version="1.1" style="shape-rendering:geometricPrecision; text-rendering:geometricPrecision; image-rendering:optimizeQuality; fill-rule:evenodd; clip-rule:evenodd"
viewBox="0 0 26.884 26.884"
 xmlns:xlink="http://www.w3.org/1999/xlink">
 <defs>
  <style type="text/css">
   <![CDATA[
    .str0 {stroke:#009933;stroke-width:0.306;stroke-miterlimit:22.9256}
    .str1 {stroke:#33CC33;stroke-width:0.306;stroke-miterlimit:22.9256}
    .fil1 {fill:#009933}
    .fil2 {fill:#33CC33}
    .fil3 {fill:black;fill-rule:nonzero}
    .fil0 {fill:url(#id0)}
   ]]>
  </style>
  <linearGradient id="id0" gradientUnits="userSpaceOnUse" x1="-1.053" y1="12.916" x2="32.067" y2="13.159">
   <stop offset="0" style="stop-opacity:1; stop-color:#065E23"/>
   <stop offset="1" style="stop-opacity:1; stop-color:#33CC48"/>
  </linearGradient>
 </defs>
 <g id="Capa_x0020_1">
  <metadata id="CorelCorpID_0Corel-Layer"/>
  <circle class="fil0" cx="13.442" cy="13.442" r="13.442"/>
  <circle class="fil1 str0" cx="13.442" cy="13.442" r="11.985"/>
  <polygon class="fil2 str1" points="22.833,13.209 15.709,9.096 8.584,4.982 8.584,13.209 8.584,21.436 15.709,17.322 "/>
  <path class="fil3" d="M6.095 13.899l0 -1.87c0,-0.242 -0.016,-0.396 -0.05,-0.46 -0.033,-0.065 -0.122,-0.119 -0.269,-0.159 -0.214,-0.061 -0.321,-0.167 -0.321,-0.319 0,-0.107 0.045,-0.189 0.135,-0.246 0.091,-0.056 0.221,-0.085 0.392,-0.085 0.057,0 0.198,0.003 0.422,0.01l0.214 0c0.393,-0.002 0.624,-0.004 0.692,-0.008 0.068,-0.004 0.308,-0.024 0.723,-0.063 0.137,-0.013 0.263,-0.021 0.378,-0.021 0.388,0 0.734,0.079 1.037,0.238 0.529,0.276 0.793,0.711 0.793,1.308 0,0.485 -0.185,0.872 -0.555,1.163 -0.348,0.273 -0.769,0.409 -1.266,0.409 -0.125,0 -0.279,-0.008 -0.461,-0.024 -0.097,-0.008 -0.158,-0.011 -0.182,-0.011 -0.068,0 -0.103,0.039 -0.103,0.118l0 0.02 0.025 0.584c0.005,0.113 0.026,0.198 0.062,0.254 0.037,0.056 0.112,0.112 0.226,0.172 0.154,0.082 0.231,0.173 0.231,0.271 0,0.149 -0.113,0.264 -0.341,0.344 -0.227,0.08 -0.55,0.122 -0.968,0.122 -0.876,0 -1.315,-0.151 -1.315,-0.453 0,-0.07 0.019,-0.125 0.057,-0.163 0.039,-0.037 0.127,-0.092 0.267,-0.164 0.085,-0.044 0.134,-0.107 0.149,-0.188 0.015,-0.081 0.024,-0.341 0.028,-0.779zm1.604 -2.321l0 1.208c0,0.093 0.02,0.148 0.061,0.168 0.068,0.033 0.154,0.05 0.259,0.05 0.156,0 0.288,-0.044 0.395,-0.133 0.154,-0.125 0.231,-0.336 0.231,-0.632 0,-0.308 -0.09,-0.532 -0.271,-0.669 -0.113,-0.087 -0.251,-0.131 -0.411,-0.131 -0.176,0 -0.264,0.046 -0.264,0.139z"/>
  <path id="1" class="fil3" d="M12.505 12.755l0 1.141c0,0.504 0.009,0.798 0.023,0.882 0.016,0.082 0.074,0.147 0.176,0.192 0.089,0.037 0.147,0.072 0.176,0.106 0.031,0.033 0.045,0.081 0.045,0.142 0,0.078 -0.028,0.15 -0.084,0.214 -0.055,0.064 -0.129,0.109 -0.222,0.135 -0.171,0.052 -0.458,0.079 -0.864,0.079 -0.457,0 -0.779,-0.036 -0.963,-0.103 -0.085,-0.032 -0.156,-0.079 -0.21,-0.145 -0.055,-0.065 -0.082,-0.133 -0.082,-0.205 0,-0.056 0.015,-0.101 0.044,-0.131 0.03,-0.03 0.095,-0.068 0.194,-0.11 0.092,-0.041 0.15,-0.151 0.171,-0.331 0.038,-0.308 0.057,-0.746 0.057,-1.315 0,-0.579 -0.017,-0.95 -0.049,-1.117 -0.034,-0.166 -0.117,-0.289 -0.249,-0.37 -0.1,-0.057 -0.169,-0.11 -0.205,-0.161 -0.037,-0.051 -0.055,-0.113 -0.055,-0.187 0,-0.117 0.056,-0.217 0.166,-0.304 0.112,-0.087 0.29,-0.167 0.534,-0.24 0.164,-0.05 0.375,-0.097 0.636,-0.142 0.261,-0.045 0.451,-0.068 0.569,-0.068 0.187,0 0.281,0.117 0.281,0.348 0,0.077 -0.011,0.25 -0.035,0.524 -0.031,0.423 -0.049,0.813 -0.054,1.166z"/>
  <path id="2" class="fil3" d="M15.164 12.029c0.413,0 0.762,0.104 1.049,0.313 0.152,0.112 0.258,0.239 0.319,0.382 0.06,0.144 0.09,0.341 0.09,0.593l-0.008 0.529c0,0.368 0.027,0.605 0.079,0.715 0.026,0.052 0.051,0.085 0.076,0.099 0.023,0.015 0.072,0.027 0.149,0.039 0.075,0.012 0.113,0.062 0.113,0.149 0,0.114 -0.045,0.233 -0.137,0.356 -0.091,0.124 -0.209,0.227 -0.353,0.309 -0.179,0.105 -0.365,0.157 -0.559,0.157 -0.249,0 -0.445,-0.085 -0.59,-0.256 -0.049,-0.062 -0.095,-0.092 -0.139,-0.092 -0.047,0 -0.109,0.029 -0.188,0.088 -0.237,0.174 -0.506,0.26 -0.807,0.26 -0.311,0 -0.562,-0.067 -0.754,-0.199 -0.125,-0.087 -0.226,-0.203 -0.299,-0.344 -0.074,-0.14 -0.11,-0.287 -0.11,-0.441 0,-0.248 0.1,-0.465 0.299,-0.656 0.31,-0.298 0.775,-0.449 1.394,-0.451 0.137,0 0.223,-0.013 0.26,-0.04 0.035,-0.028 0.052,-0.091 0.052,-0.191 0,-0.251 -0.026,-0.433 -0.078,-0.546 -0.052,-0.111 -0.137,-0.169 -0.256,-0.169 -0.071,0 -0.134,0.022 -0.19,0.065 -0.056,0.042 -0.125,0.12 -0.208,0.234 -0.211,0.301 -0.432,0.451 -0.661,0.451 -0.117,0 -0.211,-0.034 -0.284,-0.103 -0.074,-0.068 -0.111,-0.159 -0.111,-0.269 0,-0.114 0.045,-0.228 0.137,-0.342 0.091,-0.113 0.215,-0.213 0.372,-0.299 0.428,-0.227 0.876,-0.341 1.343,-0.341zm-0.238 2.058c-0.104,0 -0.195,0.043 -0.272,0.129 -0.077,0.085 -0.115,0.187 -0.115,0.306 0,0.114 0.027,0.205 0.082,0.275 0.054,0.069 0.126,0.105 0.217,0.105 0.189,0 0.284,-0.16 0.284,-0.48 0,-0.131 -0.014,-0.218 -0.041,-0.263 -0.027,-0.045 -0.079,-0.069 -0.155,-0.072z"/>
  <path id="3" class="fil3" d="M20.444 13.781l-0.469 1.292c-0.116,0.32 -0.233,0.581 -0.351,0.784 -0.117,0.202 -0.25,0.375 -0.4,0.517 -0.307,0.294 -0.679,0.44 -1.113,0.44 -0.351,0 -0.635,-0.092 -0.853,-0.276 -0.168,-0.142 -0.253,-0.324 -0.253,-0.544 0,-0.183 0.06,-0.336 0.176,-0.461 0.118,-0.124 0.262,-0.187 0.432,-0.187 0.172,0 0.309,0.057 0.413,0.171 0.05,0.052 0.084,0.098 0.099,0.138 0.017,0.042 0.042,0.13 0.076,0.267 0.025,0.105 0.085,0.157 0.177,0.157 0.074,0 0.135,-0.032 0.186,-0.096 0.049,-0.064 0.074,-0.143 0.074,-0.238 0,-0.111 -0.062,-0.298 -0.185,-0.558l-0.857 -1.824c-0.091,-0.191 -0.157,-0.308 -0.202,-0.356 -0.045,-0.047 -0.145,-0.105 -0.299,-0.174 -0.048,-0.019 -0.088,-0.056 -0.124,-0.112 -0.034,-0.056 -0.051,-0.109 -0.051,-0.162 0,-0.211 0.21,-0.354 0.63,-0.43 0.279,-0.05 0.599,-0.074 0.957,-0.074 0.251,0 0.449,0.025 0.593,0.077 0.194,0.069 0.291,0.186 0.291,0.352 0,0.06 -0.026,0.13 -0.081,0.21 -0.052,0.075 -0.079,0.143 -0.079,0.203 0,0.057 0.013,0.116 0.038,0.177 0.025,0.062 0.077,0.166 0.158,0.313 0.091,0.166 0.169,0.249 0.239,0.249 0.072,0 0.149,-0.073 0.226,-0.219 0.079,-0.145 0.118,-0.286 0.118,-0.421 0,-0.109 -0.03,-0.197 -0.088,-0.267 -0.091,-0.106 -0.136,-0.197 -0.136,-0.273 0,-0.121 0.081,-0.218 0.242,-0.29 0.161,-0.073 0.377,-0.108 0.647,-0.108 0.503,0 0.754,0.12 0.754,0.362 0,0.088 -0.026,0.159 -0.076,0.212 -0.051,0.054 -0.145,0.103 -0.28,0.151 -0.114,0.042 -0.204,0.114 -0.27,0.213 -0.105,0.159 -0.224,0.421 -0.359,0.785z"/>
 </g>
</svg>
