<?xml version="1.0" encoding="UTF-8"?>
<!DOCTYPE svg PUBLIC "-//W3C//DTD SVG 1.1//EN" "http://www.w3.org/Graphics/SVG/1.1/DTD/svg11.dtd">
<!-- Creator: CorelDRAW 2018 (64 Bit Versión de evaluación) -->
<svg xmlns="http://www.w3.org/2000/svg" xml:space="preserve" width="66px" height="66px" version="1.1" style="shape-rendering:geometricPrecision; text-rendering:geometricPrecision; image-rendering:optimizeQuality; fill-rule:evenodd; clip-rule:evenodd"
viewBox="0 0 145.115 145.115"
 xmlns:xlink="http://www.w3.org/1999/xlink">
 <defs>
  <style type="text/css">
   <![CDATA[
    .str0 {stroke:#2FF82F;stroke-width:1.652;stroke-miterlimit:22.9256}
    .fil2 {fill:#2FF82F}
    .fil3 {fill:black;fill-rule:nonzero}
    .fil0 {fill:url(#id0)}
    .fil1 {fill:url(#id1)}
   ]]>
  </style>
  <linearGradient id="id0" gradientUnits="userSpaceOnUse" x1="-5.684" y1="69.716" x2="173.09" y2="71.027">
   <stop offset="0" style="stop-opacity:1; stop-color:#006719"/>
   <stop offset="1" style="stop-opacity:1; stop-color:#2FF84A"/>
  </linearGradient>
  <radialGradient id="id1" gradientUnits="userSpaceOnUse" gradientTransform="matrix(-1.14344 1.70041 -1.70041 -1.14344 254 -79)" cx="90.67" cy="35.038" r="55.634" fx="90.67" fy="35.038">
   <stop offset="0" style="stop-opacity:1; stop-color:#2FF82F"/>
   <stop offset="0.270588" style="stop-opacity:1; stop-color:#00B52F"/>
   <stop offset="0.0941176" style="stop-opacity:1; stop-color:#17D62F"/>
   <stop offset="1" style="stop-opacity:1; stop-color:#00B52F"/>
  </radialGradient>
 </defs>
 <g id="Capa_x0020_1">
  <metadata id="CorelCorpID_0Corel-Layer"/>
  <circle class="fil0" cx="72.558" cy="72.558" r="72.558"/>
  <circle class="fil1" cx="72.558" cy="72.558" r="64.69"/>
  <polygon class="fil2 str0" points="123.249,71.299 84.792,49.096 46.334,26.892 46.334,71.299 46.334,115.705 84.792,93.502 "/>
  <path class="fil3" d="M32.899 75.025l0 -10.095c0,-1.304 -0.085,-2.136 -0.268,-2.483 -0.177,-0.353 -0.662,-0.641 -1.455,-0.858 -1.153,-0.328 -1.729,-0.904 -1.729,-1.723 0,-0.577 0.242,-1.022 0.727,-1.33 0.492,-0.301 1.192,-0.458 2.116,-0.458 0.308,0 1.068,0.02 2.279,0.058l1.154 0c2.122,-0.012 3.366,-0.025 3.734,-0.045 0.367,-0.02 1.664,-0.131 3.904,-0.34 0.74,-0.073 1.421,-0.112 2.037,-0.112 2.097,0 3.964,0.426 5.601,1.284 2.856,1.487 4.278,3.838 4.278,7.061 0,2.615 -0.996,4.704 -2.994,6.276 -1.88,1.474 -4.153,2.208 -6.833,2.208 -0.674,0 -1.506,-0.046 -2.489,-0.131 -0.524,-0.04 -0.851,-0.059 -0.982,-0.059 -0.367,0 -0.557,0.209 -0.557,0.635l0 0.112 0.137 3.15c0.027,0.61 0.138,1.068 0.335,1.37 0.196,0.301 0.602,0.609 1.218,0.93 0.832,0.445 1.245,0.937 1.245,1.461 0,0.806 -0.61,1.428 -1.841,1.86 -1.225,0.432 -2.967,0.655 -5.222,0.655 -4.728,0 -7.1,-0.812 -7.1,-2.443 0,-0.38 0.105,-0.675 0.307,-0.878 0.21,-0.203 0.688,-0.498 1.442,-0.885 0.458,-0.242 0.727,-0.582 0.806,-1.015 0.078,-0.438 0.13,-1.84 0.15,-4.205zm8.66 -12.532l0 6.524c0,0.499 0.105,0.8 0.328,0.905 0.367,0.177 0.832,0.268 1.395,0.268 0.845,0 1.56,-0.236 2.135,-0.714 0.833,-0.674 1.245,-1.814 1.245,-3.412 0,-1.665 -0.485,-2.87 -1.46,-3.61 -0.61,-0.472 -1.356,-0.708 -2.221,-0.708 -0.95,0 -1.422,0.249 -1.422,0.747z"/>
  <path id="1" class="fil3" d="M67.5 68.847l0 6.158c0,2.725 0.046,4.31 0.125,4.762 0.085,0.446 0.4,0.793 0.95,1.036 0.478,0.202 0.793,0.392 0.95,0.576 0.163,0.177 0.242,0.433 0.242,0.766 0,0.42 -0.151,0.806 -0.452,1.153 -0.302,0.347 -0.701,0.59 -1.199,0.727 -0.923,0.282 -2.476,0.426 -4.664,0.426 -2.47,0 -4.205,-0.19 -5.202,-0.556 -0.458,-0.17 -0.838,-0.427 -1.133,-0.78 -0.295,-0.354 -0.439,-0.72 -0.439,-1.107 0,-0.301 0.079,-0.543 0.236,-0.708 0.164,-0.163 0.511,-0.367 1.048,-0.595 0.498,-0.217 0.806,-0.813 0.924,-1.783 0.203,-1.663 0.308,-4.028 0.308,-7.1 0,-3.125 -0.092,-5.13 -0.269,-6.028 -0.183,-0.897 -0.628,-1.558 -1.343,-1.997 -0.537,-0.308 -0.91,-0.596 -1.107,-0.871 -0.196,-0.275 -0.295,-0.61 -0.295,-1.01 0,-0.628 0.302,-1.172 0.898,-1.637 0.602,-0.472 1.566,-0.904 2.882,-1.298 0.885,-0.268 2.025,-0.523 3.433,-0.765 1.408,-0.243 2.43,-0.368 3.072,-0.368 1.009,0 1.513,0.63 1.513,1.881 0,0.412 -0.058,1.349 -0.19,2.823 -0.163,2.286 -0.262,4.389 -0.288,6.295z"/>
  <path id="2" class="fil3" d="M81.853 64.93c2.228,0 4.114,0.564 5.66,1.69 0.819,0.602 1.396,1.291 1.723,2.064 0.321,0.773 0.485,1.84 0.485,3.196l-0.04 2.857c0,1.985 0.144,3.268 0.426,3.858 0.137,0.282 0.275,0.458 0.407,0.537 0.123,0.078 0.392,0.144 0.805,0.21 0.406,0.065 0.61,0.333 0.61,0.805 0,0.616 -0.243,1.258 -0.741,1.92 -0.491,0.668 -1.127,1.225 -1.906,1.67 -0.963,0.564 -1.966,0.846 -3.013,0.846 -1.343,0 -2.405,-0.459 -3.185,-1.383 -0.268,-0.334 -0.517,-0.498 -0.753,-0.498 -0.255,0 -0.59,0.158 -1.015,0.478 -1.277,0.937 -2.732,1.403 -4.356,1.403 -1.677,0 -3.034,-0.361 -4.069,-1.075 -0.674,-0.472 -1.218,-1.094 -1.611,-1.853 -0.4,-0.76 -0.596,-1.553 -0.596,-2.385 0,-1.337 0.537,-2.51 1.611,-3.538 1.678,-1.611 4.186,-2.423 7.527,-2.437 0.741,0 1.206,-0.072 1.402,-0.216 0.19,-0.15 0.282,-0.492 0.282,-1.028 0,-1.356 -0.138,-2.339 -0.42,-2.948 -0.281,-0.603 -0.74,-0.911 -1.382,-0.911 -0.386,0 -0.727,0.118 -1.028,0.347 -0.302,0.23 -0.675,0.649 -1.12,1.265 -1.14,1.625 -2.333,2.437 -3.57,2.437 -0.63,0 -1.14,-0.184 -1.533,-0.557 -0.4,-0.367 -0.597,-0.858 -0.597,-1.455 0,-0.615 0.243,-1.231 0.741,-1.847 0.491,-0.609 1.159,-1.146 2.004,-1.611 2.313,-1.225 4.73,-1.841 7.252,-1.841zm-1.284 11.11c-0.563,0 -1.055,0.23 -1.468,0.695 -0.418,0.458 -0.622,1.008 -0.622,1.65 0,0.616 0.144,1.107 0.439,1.487 0.295,0.373 0.681,0.563 1.173,0.563 1.022,0 1.533,-0.864 1.533,-2.587 0,-0.708 -0.073,-1.179 -0.223,-1.421 -0.144,-0.243 -0.425,-0.374 -0.832,-0.387z"/>
  <path id="3" class="fil3" d="M110.349 74.389l-2.529 6.971c-0.628,1.729 -1.257,3.137 -1.892,4.231 -0.636,1.094 -1.35,2.024 -2.163,2.791 -1.657,1.586 -3.661,2.378 -6.006,2.378 -1.894,0 -3.427,-0.498 -4.606,-1.494 -0.904,-0.766 -1.362,-1.749 -1.362,-2.935 0,-0.989 0.321,-1.814 0.949,-2.489 0.636,-0.668 1.415,-1.009 2.332,-1.009 0.925,0 1.665,0.308 2.228,0.924 0.269,0.281 0.452,0.531 0.537,0.746 0.092,0.224 0.223,0.702 0.406,1.442 0.137,0.563 0.459,0.845 0.957,0.845 0.4,0 0.727,-0.17 1.002,-0.517 0.268,-0.348 0.4,-0.773 0.4,-1.285 0,-0.602 -0.335,-1.611 -0.997,-3.013l-4.624 -9.846c-0.491,-1.028 -0.852,-1.664 -1.094,-1.919 -0.242,-0.256 -0.78,-0.57 -1.612,-0.943 -0.261,-0.098 -0.478,-0.302 -0.668,-0.603 -0.183,-0.302 -0.275,-0.59 -0.275,-0.872 0,-1.139 1.133,-1.913 3.4,-2.325 1.507,-0.268 3.23,-0.4 5.162,-0.4 1.356,0 2.424,0.138 3.203,0.42 1.048,0.373 1.573,1.002 1.573,1.9 0,0.32 -0.145,0.7 -0.44,1.133 -0.281,0.406 -0.425,0.772 -0.425,1.094 0,0.308 0.072,0.628 0.203,0.956 0.137,0.334 0.419,0.897 0.852,1.69 0.491,0.897 0.917,1.343 1.29,1.343 0.393,0 0.806,-0.393 1.225,-1.179 0.426,-0.786 0.635,-1.546 0.635,-2.273 0,-0.589 -0.163,-1.067 -0.477,-1.441 -0.492,-0.576 -0.735,-1.068 -0.735,-1.474 0,-0.655 0.44,-1.179 1.31,-1.566 0.865,-0.393 2.032,-0.583 3.492,-0.583 2.713,0 4.068,0.649 4.068,1.952 0,0.478 -0.137,0.858 -0.412,1.147 -0.275,0.288 -0.78,0.556 -1.507,0.812 -0.616,0.229 -1.101,0.616 -1.461,1.153 -0.563,0.858 -1.205,2.273 -1.939,4.238z"/>
 </g>
</svg>
