<?xml version="1.0" encoding="UTF-8"?>
<!DOCTYPE svg PUBLIC "-//W3C//DTD SVG 1.1//EN" "http://www.w3.org/Graphics/SVG/1.1/DTD/svg11.dtd">
<!-- Creator: CorelDRAW 2018 (64 Bit Versión de evaluación) -->
<svg xmlns="http://www.w3.org/2000/svg" xml:space="preserve" width="66px" height="66px" version="1.1" style="shape-rendering:geometricPrecision; text-rendering:geometricPrecision; image-rendering:optimizeQuality; fill-rule:evenodd; clip-rule:evenodd"
viewBox="0 0 19.306 19.306"
 xmlns:xlink="http://www.w3.org/1999/xlink">
 <defs>
  <style type="text/css">
   <![CDATA[
    .str0 {stroke:#CCCCCC;stroke-width:0.22;stroke-miterlimit:22.9256}
    .fil2 {fill:#CCCCCC}
    .fil3 {fill:#666666;fill-rule:nonzero}
    .fil0 {fill:url(#id0)}
    .fil1 {fill:url(#id1)}
   ]]>
  </style>
  <linearGradient id="id0" gradientUnits="userSpaceOnUse" x1="-0.756" y1="9.275" x2="23.027" y2="9.449">
   <stop offset="0" style="stop-opacity:1; stop-color:#666666"/>
   <stop offset="1" style="stop-opacity:1; stop-color:white"/>
  </linearGradient>
  <radialGradient id="id1" gradientUnits="userSpaceOnUse" gradientTransform="matrix(-1.14344 1.70041 -1.70041 -1.14344 34 -11)" cx="12.063" cy="4.661" r="7.401" fx="12.063" fy="4.661">
   <stop offset="0" style="stop-opacity:1; stop-color:#E6E6E6"/>
   <stop offset="0.270588" style="stop-opacity:1; stop-color:#CCCCCC"/>
   <stop offset="0.0941176" style="stop-opacity:1; stop-color:#CCCCCC"/>
   <stop offset="1" style="stop-opacity:1; stop-color:#B3B3B3"/>
  </radialGradient>
 </defs>
 <g id="Capa_x0020_1">
  <metadata id="CorelCorpID_0Corel-Layer"/>
  <circle class="fil0" cx="9.653" cy="9.653" r="9.653"/>
  <circle class="fil1" cx="9.653" cy="9.653" r="8.606"/>
  <polygon class="fil2 str0" points="16.397,9.485 11.28,6.532 6.164,3.578 6.164,9.485 6.164,15.393 11.28,12.439 "/>
  <path class="fil3" d="M4.377 9.981l0 -1.343c0,-0.173 -0.011,-0.284 -0.036,-0.33 -0.023,-0.047 -0.088,-0.086 -0.193,-0.114 -0.154,-0.044 -0.23,-0.121 -0.23,-0.23 0,-0.076 0.032,-0.136 0.096,-0.177 0.066,-0.04 0.159,-0.06 0.282,-0.06 0.041,0 0.142,0.002 0.303,0.007l0.153 0c0.283,-0.001 0.448,-0.003 0.497,-0.006 0.049,-0.002 0.222,-0.017 0.52,-0.045 0.098,-0.01 0.189,-0.015 0.271,-0.015 0.279,0 0.527,0.057 0.745,0.171 0.38,0.198 0.569,0.511 0.569,0.939 0,0.348 -0.133,0.626 -0.398,0.835 -0.25,0.196 -0.553,0.294 -0.909,0.294 -0.09,0 -0.201,-0.006 -0.332,-0.017 -0.069,-0.006 -0.113,-0.008 -0.13,-0.008 -0.049,0 -0.074,0.028 -0.074,0.084l0 0.015 0.018 0.419c0.003,0.081 0.018,0.142 0.044,0.182 0.027,0.041 0.081,0.081 0.163,0.124 0.11,0.059 0.165,0.125 0.165,0.195 0,0.107 -0.081,0.189 -0.245,0.247 -0.163,0.058 -0.395,0.087 -0.694,0.087 -0.63,0 -0.945,-0.108 -0.945,-0.325 0,-0.05 0.014,-0.09 0.041,-0.117 0.028,-0.027 0.091,-0.066 0.192,-0.117 0.061,-0.033 0.096,-0.078 0.107,-0.135 0.01,-0.059 0.017,-0.245 0.02,-0.56zm1.152 -1.667l0 0.868c0,0.066 0.014,0.106 0.044,0.12 0.048,0.024 0.11,0.036 0.185,0.036 0.113,0 0.208,-0.031 0.284,-0.095 0.111,-0.09 0.166,-0.241 0.166,-0.454 0,-0.221 -0.065,-0.382 -0.194,-0.48 -0.082,-0.063 -0.181,-0.094 -0.296,-0.094 -0.126,0 -0.189,0.033 -0.189,0.099z"/>
  <path id="1" class="fil3" d="M8.98 9.159l0 0.819c0,0.363 0.006,0.574 0.017,0.634 0.011,0.059 0.053,0.106 0.126,0.138 0.064,0.027 0.105,0.052 0.126,0.076 0.022,0.024 0.033,0.058 0.033,0.102 0,0.056 -0.02,0.108 -0.061,0.154 -0.04,0.046 -0.093,0.078 -0.159,0.096 -0.123,0.038 -0.329,0.057 -0.621,0.057 -0.328,0 -0.559,-0.025 -0.692,-0.074 -0.061,-0.023 -0.111,-0.057 -0.15,-0.104 -0.04,-0.047 -0.059,-0.095 -0.059,-0.147 0,-0.04 0.011,-0.072 0.032,-0.094 0.022,-0.022 0.068,-0.049 0.139,-0.079 0.066,-0.029 0.107,-0.108 0.123,-0.237 0.027,-0.222 0.041,-0.536 0.041,-0.945 0,-0.416 -0.012,-0.682 -0.036,-0.802 -0.024,-0.119 -0.083,-0.207 -0.178,-0.266 -0.072,-0.041 -0.122,-0.079 -0.148,-0.116 -0.026,-0.036 -0.039,-0.081 -0.039,-0.134 0,-0.083 0.04,-0.156 0.12,-0.218 0.08,-0.062 0.208,-0.12 0.383,-0.172 0.118,-0.036 0.269,-0.07 0.457,-0.102 0.187,-0.032 0.323,-0.049 0.408,-0.049 0.135,0 0.202,0.084 0.202,0.25 0,0.055 -0.008,0.18 -0.026,0.376 -0.021,0.304 -0.034,0.584 -0.038,0.837z"/>
  <path id="2" class="fil3" d="M10.889 8.638c0.297,0 0.548,0.075 0.753,0.225 0.109,0.08 0.186,0.172 0.23,0.275 0.042,0.102 0.064,0.244 0.064,0.425l-0.005 0.38c0,0.264 0.019,0.435 0.057,0.513 0.018,0.038 0.036,0.061 0.054,0.072 0.016,0.01 0.052,0.019 0.107,0.027 0.054,0.009 0.081,0.045 0.081,0.108 0,0.082 -0.032,0.167 -0.099,0.255 -0.065,0.089 -0.15,0.163 -0.253,0.222 -0.128,0.075 -0.262,0.113 -0.401,0.113 -0.179,0 -0.32,-0.061 -0.424,-0.184 -0.035,-0.045 -0.068,-0.067 -0.1,-0.067 -0.034,0 -0.078,0.021 -0.135,0.064 -0.17,0.125 -0.363,0.187 -0.58,0.187 -0.223,0 -0.403,-0.048 -0.541,-0.143 -0.089,-0.063 -0.162,-0.146 -0.214,-0.247 -0.053,-0.101 -0.079,-0.206 -0.079,-0.317 0,-0.178 0.071,-0.334 0.214,-0.471 0.223,-0.214 0.557,-0.322 1.001,-0.324 0.099,0 0.161,-0.01 0.187,-0.029 0.025,-0.02 0.037,-0.065 0.037,-0.137 0,-0.18 -0.018,-0.311 -0.055,-0.392 -0.038,-0.08 -0.099,-0.121 -0.184,-0.121 -0.052,0 -0.097,0.016 -0.137,0.046 -0.04,0.031 -0.09,0.087 -0.149,0.169 -0.152,0.216 -0.31,0.324 -0.475,0.324 -0.084,0 -0.152,-0.025 -0.204,-0.074 -0.053,-0.049 -0.079,-0.115 -0.079,-0.194 0,-0.082 0.032,-0.164 0.098,-0.246 0.065,-0.081 0.154,-0.152 0.267,-0.214 0.307,-0.163 0.629,-0.245 0.964,-0.245zm-0.17 1.478c-0.075,0 -0.141,0.031 -0.196,0.093 -0.055,0.061 -0.082,0.134 -0.082,0.219 0,0.082 0.019,0.147 0.058,0.198 0.039,0.05 0.091,0.075 0.156,0.075 0.136,0 0.204,-0.115 0.204,-0.344 0,-0.094 -0.01,-0.157 -0.03,-0.189 -0.019,-0.033 -0.056,-0.05 -0.11,-0.052z"/>
  <path id="3" class="fil3" d="M14.681 9.897l-0.337 0.927c-0.084,0.23 -0.167,0.417 -0.252,0.563 -0.084,0.145 -0.179,0.269 -0.287,0.371 -0.221,0.211 -0.487,0.316 -0.799,0.316 -0.252,0 -0.456,-0.066 -0.613,-0.198 -0.12,-0.102 -0.181,-0.233 -0.181,-0.391 0,-0.131 0.042,-0.241 0.126,-0.331 0.084,-0.089 0.188,-0.134 0.31,-0.134 0.123,0 0.222,0.041 0.297,0.123 0.035,0.037 0.06,0.07 0.071,0.099 0.012,0.03 0.03,0.093 0.054,0.192 0.018,0.075 0.061,0.112 0.127,0.112 0.053,0 0.097,-0.022 0.134,-0.068 0.035,-0.047 0.053,-0.103 0.053,-0.171 0,-0.08 -0.045,-0.215 -0.133,-0.401l-0.615 -1.31c-0.065,-0.137 -0.113,-0.221 -0.146,-0.255 -0.032,-0.034 -0.103,-0.076 -0.214,-0.126 -0.035,-0.013 -0.064,-0.04 -0.089,-0.08 -0.024,-0.04 -0.036,-0.079 -0.036,-0.116 0,-0.152 0.15,-0.255 0.452,-0.309 0.2,-0.036 0.43,-0.054 0.687,-0.054 0.18,0 0.322,0.019 0.426,0.056 0.139,0.05 0.209,0.134 0.209,0.253 0,0.043 -0.019,0.093 -0.058,0.151 -0.038,0.054 -0.057,0.102 -0.057,0.145 0,0.041 0.009,0.084 0.027,0.127 0.018,0.045 0.056,0.12 0.113,0.225 0.066,0.12 0.122,0.179 0.172,0.179 0.052,0 0.107,-0.052 0.163,-0.157 0.057,-0.104 0.084,-0.206 0.084,-0.302 0,-0.079 -0.021,-0.142 -0.063,-0.192 -0.066,-0.077 -0.098,-0.142 -0.098,-0.196 0,-0.087 0.059,-0.157 0.174,-0.208 0.116,-0.053 0.271,-0.078 0.465,-0.078 0.361,0 0.541,0.086 0.541,0.26 0,0.063 -0.018,0.114 -0.055,0.152 -0.036,0.039 -0.103,0.074 -0.2,0.108 -0.082,0.031 -0.147,0.082 -0.194,0.154 -0.075,0.114 -0.161,0.302 -0.258,0.564z"/>
 </g>
</svg>
