<?xml version="1.0" encoding="UTF-8"?>
<!DOCTYPE svg PUBLIC "-//W3C//DTD SVG 1.1//EN" "http://www.w3.org/Graphics/SVG/1.1/DTD/svg11.dtd">
<!-- Creator: CorelDRAW 2018 (64 Bit Versión de evaluación) -->
<svg xmlns="http://www.w3.org/2000/svg" xml:space="preserve" width="66px" height="66px" version="1.1" style="shape-rendering:geometricPrecision; text-rendering:geometricPrecision; image-rendering:optimizeQuality; fill-rule:evenodd; clip-rule:evenodd"
viewBox="0 0 41.57 41.57"
 xmlns:xlink="http://www.w3.org/1999/xlink">
 <defs>
  <style type="text/css">
   <![CDATA[
    .fil1 {fill:#B3B3B3}
    .fil2 {fill:#CCCCCC}
    .fil3 {fill:#666666;fill-rule:nonzero}
    .fil0 {fill:url(#id0)}
   ]]>
  </style>
  <linearGradient id="id0" gradientUnits="userSpaceOnUse" x1="-1.628" y1="19.971" x2="49.584" y2="20.346">
   <stop offset="0" style="stop-opacity:1; stop-color:#666666"/>
   <stop offset="1" style="stop-opacity:1; stop-color:white"/>
  </linearGradient>
 </defs>
 <g id="Capa_x0020_1">
  <metadata id="CorelCorpID_0Corel-Layer"/>
  <g id="_1967901880736">
   <circle class="fil0" cx="20.785" cy="20.785" r="20.785"/>
   <circle class="fil1" cx="20.785" cy="20.785" r="18.531"/>
   <path class="fil2" d="M10.397 20.819c1.812,-11.604 17.211,-12.909 20.455,-2.889 3.086,9.53 -9.088,15.579 -13.997,8.311 -4.463,-6.609 4.313,-13.254 8.519,-7.986 1.803,2.26 0.634,4.648 0.743,4.841 0.431,0.765 3.103,-5.523 -2.689,-7.69 -5.55,-2.076 -10.767,3.628 -9.092,9.503 -2.743,-9.629 10.677,-14.602 13.704,-5.004 0.35,1.109 0.46,-1.863 -1.547,-3.952 -5.931,-6.175 -17.005,1.284 -13.009,10.512 4.386,10.131 20.349,7.207 21.134,-4.944 0.844,-13.072 -16.722,-19.124 -24.939,-7.841 -1.014,1.392 -1.708,2.85 -2.218,4.466 4.753,-15.067 25.536,-13.01 27.307,1.131 0.765,6.106 -2.613,11.118 -8.148,13.394 -0.055,0.023 -0.275,0.108 -0.293,0.141 0.19,0.459 3.853,-1.669 4.302,-2.014 10.99,-8.443 2.244,-27.028 -12.678,-23.712 -12.677,2.817 -16.349,18.927 -6.638,27.914 -12.202,-11.296 -2.699,-30.717 12.442,-28.209 14.195,2.351 16.387,21.454 3.832,26.379 -12.257,4.81 -22.002,-10.259 -13.166,-18.641 2.375,-2.253 4.795,-2.845 7.92,-2.915 0.83,-0.019 -1.776,-0.262 -2.586,-0.166 -4.913,0.58 -8.605,4.558 -9.358,9.371z"/>
   <path class="fil3" d="M6.936 21.204c-0.109,0 -0.178,0.033 -0.209,0.099 -0.029,0.066 -0.045,0.219 -0.045,0.459 0,0.364 0.023,0.649 0.069,0.851 0.014,0.057 0.036,0.103 0.064,0.134 0.03,0.032 0.084,0.07 0.165,0.115 0.171,0.096 0.256,0.221 0.256,0.375 0,0.189 -0.118,0.322 -0.358,0.402 -0.239,0.079 -0.644,0.118 -1.214,0.118 -1.061,0 -1.59,-0.201 -1.59,-0.603 0,-0.067 0.016,-0.123 0.047,-0.164 0.032,-0.042 0.104,-0.1 0.216,-0.174 0.126,-0.084 0.211,-0.182 0.255,-0.295 0.044,-0.113 0.075,-0.308 0.092,-0.587 0.015,-0.202 0.022,-0.931 0.022,-2.187 0,-0.397 -0.02,-0.669 -0.06,-0.812 -0.041,-0.143 -0.126,-0.247 -0.258,-0.313 -0.126,-0.06 -0.211,-0.116 -0.254,-0.166 -0.042,-0.05 -0.064,-0.116 -0.064,-0.196 0,-0.106 0.041,-0.198 0.123,-0.276 0.08,-0.079 0.195,-0.138 0.342,-0.175 0.123,-0.032 0.291,-0.046 0.505,-0.046 0.096,0 0.332,0.013 0.711,0.042 0.07,0.006 0.184,0.009 0.338,0.009 0.258,0 0.602,-0.018 1.031,-0.051 0.273,-0.021 0.464,-0.031 0.573,-0.031 0.613,0 1.12,0.148 1.521,0.443 0.36,0.267 0.541,0.635 0.541,1.109 0,0.262 -0.063,0.503 -0.189,0.718 -0.127,0.217 -0.3,0.38 -0.52,0.489 -0.092,0.045 -0.137,0.099 -0.137,0.163 0,0.083 0.07,0.151 0.211,0.202 0.3,0.109 0.52,0.274 0.661,0.494 0.14,0.22 0.241,0.559 0.301,1.014 0.025,0.189 0.063,0.312 0.111,0.368 0.049,0.056 0.162,0.11 0.339,0.161 0.056,0.017 0.101,0.053 0.138,0.109 0.038,0.057 0.056,0.119 0.056,0.188 0,0.088 -0.034,0.177 -0.103,0.268 -0.069,0.089 -0.158,0.161 -0.267,0.213 -0.24,0.111 -0.569,0.167 -0.988,0.167 -0.558,0 -0.958,-0.147 -1.199,-0.443 -0.108,-0.131 -0.201,-0.298 -0.277,-0.497 -0.076,-0.201 -0.166,-0.513 -0.269,-0.938 -0.065,-0.272 -0.149,-0.463 -0.25,-0.576 -0.103,-0.111 -0.248,-0.171 -0.437,-0.18zm-0.25 -2.192l-0.047 1.002c0,0.009 0,0.021 0,0.038 0,0.103 0.015,0.172 0.046,0.207 0.029,0.034 0.091,0.051 0.182,0.051 0.252,0 0.435,-0.064 0.55,-0.195 0.116,-0.13 0.173,-0.339 0.173,-0.626 0,-0.553 -0.197,-0.829 -0.59,-0.829 -0.111,0 -0.191,0.027 -0.236,0.078 -0.045,0.051 -0.072,0.142 -0.078,0.274z"/>
   <path id="1" class="fil3" d="M14.79 21.745l-2.019 0c-0.088,0 -0.132,0.039 -0.132,0.117 0,0.187 0.099,0.361 0.302,0.525 0.202,0.166 0.419,0.248 0.651,0.248 0.138,0 0.29,-0.026 0.458,-0.079 0.167,-0.053 0.306,-0.119 0.415,-0.197 0.096,-0.067 0.174,-0.102 0.231,-0.102 0.075,0 0.149,0.045 0.219,0.138 0.072,0.091 0.108,0.186 0.108,0.283 0,0.206 -0.129,0.406 -0.387,0.597 -0.456,0.342 -0.981,0.512 -1.576,0.512 -0.602,0 -1.106,-0.175 -1.514,-0.524 -0.197,-0.173 -0.361,-0.38 -0.49,-0.623 -0.169,-0.325 -0.252,-0.665 -0.252,-1.023 0,-0.482 0.145,-0.913 0.437,-1.298 0.252,-0.333 0.573,-0.581 0.963,-0.743 0.292,-0.124 0.609,-0.185 0.949,-0.185 0.544,0 1.008,0.154 1.388,0.463 0.192,0.156 0.348,0.339 0.465,0.55 0.135,0.241 0.202,0.477 0.202,0.706 0,0.186 -0.039,0.339 -0.117,0.457 -0.076,0.119 -0.178,0.178 -0.301,0.178zm-1.907 -0.802l0.435 0c0.183,0 0.274,-0.085 0.274,-0.254 0,-0.156 -0.044,-0.282 -0.134,-0.379 -0.088,-0.096 -0.203,-0.146 -0.347,-0.146 -0.16,0 -0.286,0.063 -0.379,0.189 -0.086,0.117 -0.129,0.236 -0.129,0.356 0,0.087 0.021,0.147 0.063,0.181 0.041,0.035 0.113,0.053 0.217,0.053z"/>
   <path id="2" class="fil3" d="M17.206 19.391c0.144,0 0.377,0.031 0.701,0.094 0.066,0.011 0.12,0.017 0.163,0.017 0.048,0 0.144,-0.025 0.283,-0.078 0.066,-0.024 0.122,-0.038 0.169,-0.038 0.132,0 0.264,0.085 0.399,0.254 0.108,0.135 0.198,0.282 0.267,0.443 0.069,0.16 0.102,0.299 0.102,0.417 0,0.114 -0.039,0.209 -0.12,0.286 -0.081,0.074 -0.18,0.113 -0.3,0.113 -0.1,0 -0.19,-0.024 -0.269,-0.072 -0.079,-0.05 -0.205,-0.157 -0.38,-0.323 -0.183,-0.177 -0.336,-0.267 -0.456,-0.267 -0.081,0 -0.15,0.03 -0.208,0.088 -0.059,0.059 -0.088,0.129 -0.088,0.208 0,0.141 0.135,0.273 0.403,0.396 0.484,0.218 0.855,0.455 1.113,0.713 0.219,0.219 0.327,0.484 0.327,0.8 0,0.398 -0.174,0.73 -0.525,0.997 -0.3,0.232 -0.669,0.348 -1.104,0.348 -0.112,0 -0.314,-0.019 -0.61,-0.056 -0.278,-0.031 -0.433,-0.047 -0.468,-0.047 -0.037,0 -0.081,0.004 -0.129,0.013 -0.082,0.01 -0.143,0.016 -0.181,0.016 -0.135,0 -0.24,-0.033 -0.318,-0.102 -0.117,-0.106 -0.226,-0.273 -0.326,-0.501 -0.101,-0.228 -0.151,-0.423 -0.151,-0.586 0,-0.264 0.103,-0.396 0.31,-0.396 0.08,0 0.154,0.026 0.221,0.079 0.068,0.054 0.208,0.195 0.424,0.424 0.117,0.126 0.214,0.213 0.292,0.259 0.078,0.047 0.16,0.072 0.249,0.072 0.094,0 0.171,-0.025 0.228,-0.076 0.057,-0.05 0.086,-0.116 0.086,-0.199 0,-0.13 -0.111,-0.247 -0.331,-0.352 -0.462,-0.226 -0.795,-0.461 -0.999,-0.702 -0.205,-0.24 -0.308,-0.517 -0.308,-0.833 0,-0.34 0.105,-0.635 0.314,-0.881 0.297,-0.352 0.705,-0.528 1.22,-0.528z"/>
   <path id="3" class="fil3" d="M22.261 20.517l0 1.452c0,0.172 0.041,0.313 0.126,0.421 0.085,0.109 0.192,0.163 0.324,0.163 0.111,0 0.259,-0.051 0.443,-0.154 0.042,-0.026 0.086,-0.04 0.129,-0.04 0.069,0 0.132,0.043 0.189,0.125 0.057,0.084 0.085,0.175 0.085,0.272 0,0.177 -0.097,0.347 -0.292,0.511 -0.406,0.347 -0.899,0.52 -1.478,0.52 -0.458,0 -0.826,-0.129 -1.105,-0.389 -0.277,-0.26 -0.416,-0.602 -0.416,-1.025l0 -1.985c0,-0.066 -0.008,-0.107 -0.024,-0.123 -0.016,-0.016 -0.055,-0.024 -0.121,-0.024l-0.443 0c-0.084,0 -0.137,-0.013 -0.16,-0.04 -0.022,-0.027 -0.034,-0.092 -0.034,-0.191l0 -0.19c0.003,-0.086 0.035,-0.149 0.098,-0.189l1.969 -1.238c0.048,-0.025 0.108,-0.038 0.18,-0.038l0.349 0c0.07,0 0.119,0.016 0.144,0.05 0.023,0.032 0.037,0.098 0.037,0.195l0 0.579c0,0.087 0.013,0.143 0.039,0.169 0.028,0.025 0.087,0.038 0.175,0.038l0.795 0c0.105,0 0.174,0.019 0.207,0.059 0.03,0.038 0.046,0.12 0.046,0.247l0 0.253c0,0.138 -0.02,0.233 -0.06,0.286 -0.039,0.053 -0.113,0.079 -0.22,0.079l-0.777 0c-0.079,0 -0.135,0.015 -0.163,0.043 -0.029,0.029 -0.042,0.084 -0.042,0.164z"/>
   <path id="4" class="fil3" d="M26.281 19.386c0.498,0 0.921,0.126 1.267,0.379 0.183,0.135 0.313,0.289 0.386,0.462 0.072,0.173 0.109,0.412 0.109,0.716l-0.009 0.639c0,0.445 0.032,0.732 0.095,0.864 0.031,0.063 0.062,0.103 0.091,0.12 0.028,0.018 0.088,0.033 0.18,0.047 0.091,0.015 0.137,0.075 0.137,0.181 0,0.138 -0.055,0.281 -0.166,0.429 -0.11,0.15 -0.252,0.275 -0.427,0.374 -0.215,0.127 -0.44,0.19 -0.674,0.19 -0.301,0 -0.539,-0.103 -0.713,-0.31 -0.061,-0.075 -0.116,-0.111 -0.169,-0.111 -0.057,0 -0.132,0.035 -0.228,0.107 -0.285,0.21 -0.611,0.314 -0.975,0.314 -0.375,0 -0.679,-0.081 -0.911,-0.241 -0.151,-0.105 -0.272,-0.245 -0.36,-0.415 -0.09,-0.17 -0.134,-0.348 -0.134,-0.534 0,-0.299 0.12,-0.562 0.361,-0.792 0.375,-0.361 0.937,-0.543 1.685,-0.546 0.166,0 0.27,-0.016 0.314,-0.048 0.042,-0.034 0.063,-0.11 0.063,-0.23 0,-0.304 -0.031,-0.524 -0.094,-0.66 -0.063,-0.135 -0.165,-0.204 -0.309,-0.204 -0.087,0 -0.163,0.026 -0.231,0.078 -0.067,0.051 -0.151,0.145 -0.25,0.283 -0.255,0.363 -0.523,0.545 -0.8,0.545 -0.14,0 -0.255,-0.041 -0.343,-0.124 -0.089,-0.083 -0.133,-0.193 -0.133,-0.326 0,-0.138 0.054,-0.276 0.165,-0.414 0.11,-0.136 0.26,-0.256 0.449,-0.361 0.518,-0.274 1.059,-0.412 1.624,-0.412zm-0.288 2.488c-0.126,0 -0.236,0.051 -0.328,0.156 -0.094,0.102 -0.14,0.225 -0.14,0.369 0,0.138 0.033,0.248 0.099,0.333 0.066,0.084 0.152,0.126 0.262,0.126 0.229,0 0.344,-0.193 0.344,-0.579 0,-0.159 -0.017,-0.264 -0.05,-0.319 -0.033,-0.054 -0.096,-0.083 -0.187,-0.086z"/>
   <path id="5" class="fil3" d="M30.822 19.417c0.153,0 0.245,0.021 0.277,0.065 0.034,0.042 0.063,0.18 0.09,0.412 0.013,0.126 0.058,0.189 0.132,0.189 0.057,0 0.113,-0.042 0.164,-0.125 0.229,-0.358 0.528,-0.536 0.898,-0.536 0.261,0 0.473,0.083 0.639,0.252 0.081,0.084 0.147,0.191 0.198,0.321 0.051,0.129 0.078,0.255 0.078,0.376 0,0.135 -0.033,0.272 -0.094,0.415 -0.063,0.14 -0.145,0.258 -0.245,0.349 -0.183,0.176 -0.409,0.262 -0.675,0.262 -0.146,0 -0.268,-0.025 -0.368,-0.078 -0.098,-0.051 -0.229,-0.155 -0.388,-0.312 -0.061,-0.06 -0.116,-0.091 -0.168,-0.091 -0.08,0 -0.133,0.046 -0.157,0.135 -0.025,0.091 -0.036,0.28 -0.036,0.571 0,0.431 0.016,0.727 0.047,0.884 0.02,0.087 0.048,0.145 0.083,0.179 0.037,0.032 0.113,0.066 0.231,0.1 0.258,0.077 0.387,0.213 0.387,0.405 0,0.117 -0.043,0.22 -0.125,0.306 -0.084,0.088 -0.194,0.145 -0.332,0.175 -0.274,0.057 -0.679,0.086 -1.211,0.086 -0.508,0 -0.892,-0.045 -1.156,-0.133 -0.234,-0.081 -0.352,-0.22 -0.352,-0.417 0,-0.149 0.085,-0.283 0.257,-0.4 0.083,-0.054 0.141,-0.104 0.173,-0.148 0.031,-0.044 0.053,-0.106 0.064,-0.184 0.046,-0.259 0.068,-0.742 0.068,-1.447 0,-0.129 -0.013,-0.222 -0.043,-0.278 -0.028,-0.055 -0.085,-0.101 -0.171,-0.134 -0.204,-0.081 -0.305,-0.197 -0.305,-0.348 0,-0.138 0.07,-0.257 0.209,-0.355 0.141,-0.098 0.376,-0.197 0.706,-0.295 0.441,-0.132 0.817,-0.198 1.125,-0.201z"/>
   <path id="6" class="fil3" d="M36.203 20.517l0 1.452c0,0.172 0.042,0.313 0.126,0.421 0.086,0.109 0.193,0.163 0.325,0.163 0.111,0 0.259,-0.051 0.443,-0.154 0.042,-0.026 0.086,-0.04 0.129,-0.04 0.069,0 0.132,0.043 0.189,0.125 0.057,0.084 0.085,0.175 0.085,0.272 0,0.177 -0.097,0.347 -0.292,0.511 -0.406,0.347 -0.899,0.52 -1.478,0.52 -0.458,0 -0.826,-0.129 -1.105,-0.389 -0.277,-0.26 -0.416,-0.602 -0.416,-1.025l0 -1.985c0,-0.066 -0.008,-0.107 -0.024,-0.123 -0.016,-0.016 -0.056,-0.024 -0.122,-0.024l-0.443 0c-0.083,0 -0.136,-0.013 -0.16,-0.04 -0.022,-0.027 -0.033,-0.092 -0.033,-0.191l0 -0.19c0.003,-0.086 0.035,-0.149 0.098,-0.189l1.969 -1.238c0.048,-0.025 0.108,-0.038 0.18,-0.038l0.349 0c0.07,0 0.119,0.016 0.144,0.05 0.023,0.032 0.036,0.098 0.036,0.195l0 0.579c0,0.087 0.014,0.143 0.04,0.169 0.028,0.025 0.086,0.038 0.175,0.038l0.795 0c0.105,0 0.174,0.019 0.206,0.059 0.031,0.038 0.047,0.12 0.047,0.247l0 0.253c0,0.138 -0.02,0.233 -0.06,0.286 -0.039,0.053 -0.113,0.079 -0.22,0.079l-0.777 0c-0.08,0 -0.135,0.015 -0.163,0.043 -0.029,0.029 -0.043,0.084 -0.043,0.164z"/>
  </g>
 </g>
</svg>
