<?xml version="1.0" encoding="UTF-8"?>
<!DOCTYPE svg PUBLIC "-//W3C//DTD SVG 1.1//EN" "http://www.w3.org/Graphics/SVG/1.1/DTD/svg11.dtd">
<!-- Creator: CorelDRAW 2018 (64 Bit Versión de evaluación) -->
<svg xmlns="http://www.w3.org/2000/svg" xml:space="preserve" width="66px" height="66px" version="1.1" style="shape-rendering:geometricPrecision; text-rendering:geometricPrecision; image-rendering:optimizeQuality; fill-rule:evenodd; clip-rule:evenodd"
viewBox="0 0 25.098 25.098"
 xmlns:xlink="http://www.w3.org/1999/xlink">
 <defs>
  <style type="text/css">
   <![CDATA[
    .fil1 {fill:#00B52F}
    .fil2 {fill:#2FF82F}
    .fil3 {fill:black;fill-rule:nonzero}
    .fil0 {fill:url(#id0)}
   ]]>
  </style>
  <linearGradient id="id0" gradientUnits="userSpaceOnUse" x1="-0.983" y1="12.058" x2="29.937" y2="12.284">
   <stop offset="0" style="stop-opacity:1; stop-color:#006719"/>
   <stop offset="1" style="stop-opacity:1; stop-color:#2FF84A"/>
  </linearGradient>
 </defs>
 <g id="Capa_x0020_1">
  <metadata id="CorelCorpID_0Corel-Layer"/>
  <circle class="fil0" cx="12.549" cy="12.549" r="12.549"/>
  <circle class="fil1" cx="12.549" cy="12.549" r="11.188"/>
  <path class="fil2" d="M6.278 12.57c1.093,-7.006 10.391,-7.794 12.349,-1.744 1.863,5.753 -5.487,9.406 -8.45,5.017 -2.695,-3.99 2.603,-8.002 5.143,-4.821 1.089,1.364 0.382,2.806 0.448,2.923 0.26,0.461 1.874,-3.335 -1.623,-4.643 -3.351,-1.254 -6.501,2.19 -5.489,5.737 -1.657,-5.814 6.446,-8.816 8.274,-3.021 0.211,0.669 0.277,-1.125 -0.934,-2.386 -3.582,-3.728 -10.268,0.775 -7.855,6.347 2.648,6.116 12.286,4.351 12.76,-2.985 0.51,-7.893 -10.096,-11.547 -15.057,-4.735 -0.612,0.841 -1.032,1.721 -1.34,2.697 2.87,-9.097 15.418,-7.855 16.488,0.683 0.462,3.686 -1.578,6.712 -4.92,8.086 -0.033,0.014 -0.166,0.066 -0.177,0.086 0.115,0.277 2.326,-1.008 2.598,-1.216 6.635,-5.098 1.354,-16.319 -7.655,-14.317 -7.654,1.701 -9.871,11.427 -4.007,16.854 -7.368,-6.82 -1.63,-18.546 7.511,-17.032 8.571,1.42 9.894,12.953 2.314,15.927 -7.4,2.904 -13.284,-6.194 -7.949,-11.255 1.434,-1.36 2.895,-1.718 4.782,-1.76 0.501,-0.011 -1.073,-0.158 -1.562,-0.1 -2.966,0.35 -5.195,2.752 -5.649,5.658z"/>
  <path class="fil3" d="M4.187 12.802c-0.065,0 -0.107,0.02 -0.125,0.06 -0.018,0.04 -0.028,0.132 -0.028,0.277 0,0.22 0.014,0.392 0.042,0.514 0.009,0.035 0.022,0.062 0.039,0.081 0.018,0.019 0.05,0.042 0.099,0.07 0.104,0.057 0.155,0.132 0.155,0.225 0,0.115 -0.072,0.195 -0.216,0.243 -0.144,0.048 -0.389,0.072 -0.733,0.072 -0.641,0 -0.96,-0.122 -0.96,-0.364 0,-0.041 0.009,-0.075 0.028,-0.099 0.02,-0.026 0.063,-0.061 0.13,-0.106 0.076,-0.05 0.128,-0.11 0.154,-0.178 0.027,-0.068 0.046,-0.186 0.056,-0.354 0.009,-0.122 0.013,-0.562 0.013,-1.32 0,-0.24 -0.012,-0.404 -0.036,-0.491 -0.025,-0.086 -0.076,-0.149 -0.156,-0.189 -0.076,-0.036 -0.127,-0.07 -0.153,-0.1 -0.026,-0.03 -0.039,-0.07 -0.039,-0.118 0,-0.064 0.025,-0.12 0.074,-0.167 0.049,-0.048 0.118,-0.083 0.207,-0.105 0.074,-0.02 0.176,-0.029 0.305,-0.029 0.058,0 0.2,0.008 0.429,0.026 0.042,0.004 0.112,0.005 0.205,0.005 0.155,0 0.363,-0.01 0.622,-0.031 0.165,-0.012 0.28,-0.018 0.345,-0.018 0.371,0 0.677,0.089 0.919,0.267 0.218,0.161 0.327,0.384 0.327,0.67 0,0.158 -0.038,0.303 -0.115,0.434 -0.076,0.131 -0.18,0.229 -0.313,0.295 -0.056,0.027 -0.083,0.06 -0.083,0.098 0,0.05 0.042,0.091 0.127,0.122 0.182,0.066 0.315,0.166 0.4,0.299 0.084,0.132 0.145,0.337 0.181,0.612 0.015,0.114 0.038,0.188 0.067,0.222 0.03,0.033 0.098,0.066 0.205,0.097 0.034,0.01 0.061,0.032 0.083,0.066 0.023,0.034 0.034,0.071 0.034,0.113 0,0.053 -0.021,0.107 -0.062,0.162 -0.042,0.054 -0.096,0.098 -0.161,0.129 -0.146,0.067 -0.344,0.101 -0.597,0.101 -0.337,0 -0.579,-0.089 -0.724,-0.268 -0.065,-0.079 -0.121,-0.18 -0.167,-0.3 -0.046,-0.121 -0.1,-0.31 -0.162,-0.566 -0.04,-0.165 -0.091,-0.28 -0.152,-0.348 -0.062,-0.067 -0.149,-0.104 -0.264,-0.109zm-0.15 -1.323l-0.028 0.605c0,0.005 0,0.012 0,0.023 0,0.062 0.008,0.103 0.027,0.125 0.018,0.02 0.055,0.031 0.11,0.031 0.152,0 0.263,-0.039 0.332,-0.118 0.07,-0.079 0.104,-0.205 0.104,-0.378 0,-0.334 -0.118,-0.501 -0.356,-0.501 -0.067,0 -0.115,0.016 -0.142,0.047 -0.028,0.031 -0.044,0.086 -0.047,0.166z"/>
  <path id="1" class="fil3" d="M8.93 13.129l-1.22 0c-0.053,0 -0.079,0.024 -0.079,0.071 0,0.112 0.06,0.218 0.182,0.317 0.122,0.1 0.253,0.149 0.393,0.149 0.084,0 0.176,-0.016 0.277,-0.047 0.101,-0.032 0.185,-0.072 0.25,-0.119 0.059,-0.041 0.106,-0.062 0.14,-0.062 0.045,0 0.09,0.027 0.132,0.083 0.043,0.055 0.066,0.113 0.066,0.171 0,0.125 -0.078,0.245 -0.234,0.36 -0.276,0.207 -0.593,0.31 -0.952,0.31 -0.363,0 -0.668,-0.106 -0.914,-0.317 -0.119,-0.104 -0.218,-0.229 -0.296,-0.376 -0.102,-0.196 -0.152,-0.401 -0.152,-0.617 0,-0.292 0.088,-0.552 0.264,-0.784 0.152,-0.201 0.346,-0.351 0.582,-0.449 0.176,-0.074 0.367,-0.112 0.572,-0.112 0.329,0 0.609,0.093 0.838,0.28 0.116,0.094 0.21,0.205 0.281,0.332 0.081,0.146 0.122,0.288 0.122,0.426 0,0.113 -0.024,0.205 -0.071,0.277 -0.046,0.071 -0.107,0.107 -0.181,0.107zm-1.151 -0.485l0.262 0c0.11,0 0.165,-0.051 0.165,-0.153 0,-0.094 -0.026,-0.17 -0.08,-0.228 -0.053,-0.059 -0.123,-0.089 -0.21,-0.089 -0.097,0 -0.173,0.038 -0.229,0.114 -0.052,0.071 -0.078,0.143 -0.078,0.216 0,0.052 0.013,0.088 0.038,0.108 0.025,0.022 0.069,0.032 0.132,0.032z"/>
  <path id="2" class="fil3" d="M10.388 11.707c0.087,0 0.228,0.019 0.424,0.057 0.04,0.007 0.072,0.011 0.098,0.011 0.029,0 0.087,-0.015 0.171,-0.047 0.04,-0.015 0.073,-0.023 0.102,-0.023 0.079,0 0.159,0.051 0.241,0.153 0.065,0.081 0.119,0.17 0.161,0.267 0.041,0.097 0.062,0.181 0.062,0.252 0,0.069 -0.024,0.127 -0.073,0.173 -0.049,0.045 -0.109,0.068 -0.181,0.068 -0.061,0 -0.115,-0.014 -0.162,-0.044 -0.048,-0.03 -0.124,-0.094 -0.23,-0.194 -0.11,-0.108 -0.203,-0.162 -0.275,-0.162 -0.049,0 -0.09,0.018 -0.126,0.053 -0.035,0.036 -0.053,0.078 -0.053,0.126 0,0.085 0.081,0.165 0.243,0.239 0.293,0.131 0.517,0.275 0.673,0.431 0.132,0.132 0.197,0.292 0.197,0.482 0,0.241 -0.105,0.441 -0.317,0.603 -0.181,0.14 -0.404,0.21 -0.667,0.21 -0.067,0 -0.189,-0.012 -0.368,-0.034 -0.168,-0.019 -0.261,-0.028 -0.283,-0.028 -0.022,0 -0.048,0.002 -0.078,0.008 -0.049,0.006 -0.085,0.009 -0.108,0.009 -0.082,0 -0.146,-0.02 -0.193,-0.062 -0.07,-0.063 -0.136,-0.164 -0.196,-0.302 -0.061,-0.138 -0.091,-0.256 -0.091,-0.354 0,-0.159 0.062,-0.239 0.186,-0.239 0.049,0 0.093,0.016 0.134,0.048 0.041,0.033 0.126,0.118 0.256,0.256 0.071,0.076 0.129,0.128 0.176,0.156 0.047,0.029 0.097,0.044 0.151,0.044 0.056,0 0.103,-0.015 0.137,-0.046 0.035,-0.03 0.052,-0.07 0.052,-0.121 0,-0.078 -0.067,-0.148 -0.2,-0.212 -0.279,-0.137 -0.48,-0.278 -0.603,-0.423 -0.124,-0.146 -0.186,-0.313 -0.186,-0.504 0,-0.205 0.064,-0.383 0.19,-0.532 0.179,-0.212 0.426,-0.319 0.736,-0.319z"/>
  <path id="3" class="fil3" d="M13.44 12.388l0 0.876c0,0.104 0.025,0.189 0.076,0.254 0.052,0.066 0.116,0.099 0.196,0.099 0.067,0 0.157,-0.031 0.267,-0.093 0.026,-0.016 0.053,-0.024 0.078,-0.024 0.042,0 0.08,0.026 0.115,0.075 0.034,0.051 0.051,0.106 0.051,0.164 0,0.107 -0.058,0.21 -0.176,0.309 -0.246,0.209 -0.543,0.314 -0.893,0.314 -0.276,0 -0.499,-0.078 -0.667,-0.235 -0.167,-0.157 -0.251,-0.363 -0.251,-0.619l0 -1.198c0,-0.04 -0.005,-0.065 -0.014,-0.075 -0.01,-0.01 -0.034,-0.014 -0.074,-0.014l-0.267 0c-0.051,0 -0.083,-0.008 -0.097,-0.025 -0.013,-0.016 -0.02,-0.055 -0.02,-0.115l0 -0.114c0.001,-0.052 0.021,-0.09 0.059,-0.114l1.189 -0.748c0.029,-0.015 0.065,-0.023 0.108,-0.023l0.211 0c0.043,0 0.072,0.01 0.087,0.03 0.014,0.02 0.022,0.06 0.022,0.118l0 0.35c0,0.052 0.008,0.086 0.024,0.102 0.017,0.015 0.052,0.023 0.105,0.023l0.48 0c0.064,0 0.106,0.011 0.125,0.035 0.019,0.023 0.029,0.073 0.029,0.149l0 0.153c0,0.083 -0.013,0.141 -0.037,0.173 -0.024,0.032 -0.068,0.048 -0.133,0.048l-0.469 0c-0.048,0 -0.081,0.008 -0.098,0.025 -0.018,0.018 -0.026,0.051 -0.026,0.1z"/>
  <path id="4" class="fil3" d="M15.867 11.705c0.301,0 0.557,0.076 0.766,0.228 0.11,0.082 0.188,0.175 0.233,0.279 0.043,0.105 0.065,0.249 0.065,0.432l-0.005 0.387c0,0.268 0.019,0.441 0.057,0.521 0.019,0.038 0.038,0.062 0.055,0.073 0.017,0.01 0.053,0.019 0.109,0.028 0.055,0.009 0.083,0.045 0.083,0.109 0,0.083 -0.033,0.17 -0.101,0.259 -0.066,0.091 -0.152,0.166 -0.257,0.226 -0.13,0.076 -0.266,0.115 -0.408,0.115 -0.181,0 -0.325,-0.062 -0.43,-0.187 -0.036,-0.045 -0.07,-0.068 -0.102,-0.068 -0.035,0 -0.08,0.022 -0.137,0.065 -0.173,0.127 -0.369,0.19 -0.589,0.19 -0.227,0 -0.41,-0.049 -0.55,-0.146 -0.091,-0.063 -0.165,-0.148 -0.218,-0.25 -0.054,-0.103 -0.08,-0.21 -0.08,-0.323 0,-0.18 0.072,-0.339 0.217,-0.478 0.227,-0.218 0.566,-0.327 1.018,-0.329 0.1,0 0.163,-0.01 0.189,-0.03 0.026,-0.02 0.038,-0.066 0.038,-0.139 0,-0.183 -0.018,-0.316 -0.056,-0.398 -0.038,-0.082 -0.1,-0.123 -0.187,-0.123 -0.052,0 -0.098,0.016 -0.139,0.047 -0.041,0.031 -0.091,0.087 -0.152,0.171 -0.154,0.219 -0.315,0.329 -0.482,0.329 -0.085,0 -0.154,-0.025 -0.207,-0.075 -0.054,-0.05 -0.081,-0.116 -0.081,-0.197 0,-0.083 0.033,-0.166 0.1,-0.25 0.067,-0.082 0.157,-0.155 0.271,-0.217 0.313,-0.166 0.639,-0.249 0.98,-0.249zm-0.173 1.502c-0.076,0 -0.143,0.031 -0.199,0.094 -0.056,0.062 -0.084,0.136 -0.084,0.223 0,0.083 0.02,0.149 0.06,0.201 0.04,0.05 0.092,0.076 0.158,0.076 0.138,0 0.207,-0.117 0.207,-0.35 0,-0.095 -0.009,-0.159 -0.03,-0.192 -0.019,-0.033 -0.057,-0.05 -0.112,-0.052z"/>
  <path id="5" class="fil3" d="M18.609 11.723c0.092,0 0.148,0.013 0.168,0.039 0.02,0.026 0.038,0.109 0.054,0.249 0.008,0.076 0.035,0.114 0.079,0.114 0.035,0 0.068,-0.025 0.099,-0.075 0.139,-0.216 0.319,-0.324 0.542,-0.324 0.158,0 0.286,0.05 0.386,0.152 0.049,0.051 0.089,0.115 0.12,0.194 0.031,0.078 0.047,0.154 0.047,0.227 0,0.081 -0.02,0.165 -0.057,0.251 -0.038,0.085 -0.087,0.155 -0.148,0.21 -0.11,0.107 -0.247,0.159 -0.407,0.159 -0.089,0 -0.162,-0.015 -0.222,-0.047 -0.06,-0.031 -0.138,-0.094 -0.235,-0.189 -0.036,-0.036 -0.07,-0.055 -0.101,-0.055 -0.049,0 -0.08,0.028 -0.095,0.082 -0.015,0.055 -0.022,0.169 -0.022,0.344 0,0.261 0.01,0.44 0.029,0.534 0.012,0.053 0.029,0.088 0.05,0.108 0.022,0.02 0.068,0.04 0.139,0.061 0.156,0.047 0.234,0.128 0.234,0.244 0,0.071 -0.026,0.133 -0.075,0.185 -0.051,0.053 -0.117,0.088 -0.201,0.106 -0.165,0.034 -0.41,0.052 -0.731,0.052 -0.306,0 -0.538,-0.028 -0.698,-0.081 -0.141,-0.048 -0.212,-0.133 -0.212,-0.251 0,-0.091 0.051,-0.171 0.155,-0.242 0.05,-0.033 0.085,-0.063 0.104,-0.089 0.019,-0.027 0.032,-0.064 0.039,-0.111 0.028,-0.157 0.041,-0.448 0.041,-0.874 0,-0.078 -0.008,-0.134 -0.026,-0.168 -0.017,-0.033 -0.051,-0.061 -0.103,-0.081 -0.124,-0.049 -0.185,-0.119 -0.185,-0.21 0,-0.083 0.043,-0.155 0.127,-0.214 0.085,-0.06 0.227,-0.119 0.426,-0.178 0.266,-0.08 0.493,-0.12 0.679,-0.122z"/>
  <path id="6" class="fil3" d="M21.858 12.388l0 0.876c0,0.104 0.025,0.189 0.076,0.254 0.052,0.066 0.116,0.099 0.196,0.099 0.067,0 0.157,-0.031 0.268,-0.093 0.025,-0.016 0.052,-0.024 0.078,-0.024 0.041,0 0.079,0.026 0.114,0.075 0.034,0.051 0.051,0.106 0.051,0.164 0,0.107 -0.058,0.21 -0.176,0.309 -0.245,0.209 -0.543,0.314 -0.893,0.314 -0.276,0 -0.498,-0.078 -0.667,-0.235 -0.167,-0.157 -0.251,-0.363 -0.251,-0.619l0 -1.198c0,-0.04 -0.004,-0.065 -0.014,-0.075 -0.01,-0.01 -0.034,-0.014 -0.074,-0.014l-0.267 0c-0.051,0 -0.082,-0.008 -0.097,-0.025 -0.013,-0.016 -0.02,-0.055 -0.02,-0.115l0 -0.114c0.002,-0.052 0.021,-0.09 0.059,-0.114l1.189 -0.748c0.029,-0.015 0.065,-0.023 0.109,-0.023l0.21 0c0.043,0 0.072,0.01 0.087,0.03 0.014,0.02 0.022,0.06 0.022,0.118l0 0.35c0,0.052 0.008,0.086 0.024,0.102 0.017,0.015 0.052,0.023 0.106,0.023l0.48 0c0.063,0 0.105,0.011 0.124,0.035 0.019,0.023 0.029,0.073 0.029,0.149l0 0.153c0,0.083 -0.013,0.141 -0.037,0.173 -0.023,0.032 -0.068,0.048 -0.132,0.048l-0.47 0c-0.048,0 -0.081,0.008 -0.098,0.025 -0.018,0.018 -0.026,0.051 -0.026,0.1z"/>
 </g>
</svg>
