<?xml version="1.0" encoding="UTF-8"?>
<!DOCTYPE svg PUBLIC "-//W3C//DTD SVG 1.1//EN" "http://www.w3.org/Graphics/SVG/1.1/DTD/svg11.dtd">
<!-- Creator: CorelDRAW 2018 (64 Bit Versión de evaluación) -->
<svg xmlns="http://www.w3.org/2000/svg" xml:space="preserve" width="66px" height="66px" version="1.1" style="shape-rendering:geometricPrecision; text-rendering:geometricPrecision; image-rendering:optimizeQuality; fill-rule:evenodd; clip-rule:evenodd"
viewBox="0 0 11.454 11.454"
 xmlns:xlink="http://www.w3.org/1999/xlink">
 <defs>
  <style type="text/css">
   <![CDATA[
    .str0 {stroke:#009933;stroke-width:0.13;stroke-miterlimit:22.9256}
    .str1 {stroke:#33CC33;stroke-width:0.13;stroke-miterlimit:22.9256}
    .fil1 {fill:#009933}
    .fil2 {fill:#33CC33}
    .fil3 {fill:black;fill-rule:nonzero}
    .fil0 {fill:url(#id0)}
   ]]>
  </style>
  <linearGradient id="id0" gradientUnits="userSpaceOnUse" x1="-0.449" y1="5.503" x2="13.662" y2="5.606">
   <stop offset="0" style="stop-opacity:1; stop-color:#065E23"/>
   <stop offset="1" style="stop-opacity:1; stop-color:#33CC48"/>
  </linearGradient>
 </defs>
 <g id="Capa_x0020_1">
  <metadata id="CorelCorpID_0Corel-Layer"/>
  <g id="_1967790256960">
   <circle class="fil0" cx="5.727" cy="5.727" r="5.727"/>
   <circle class="fil1 str0" cx="5.727" cy="5.727" r="5.106"/>
   <path class="fil2 str1" d="M2.865 5.736c0.499,-3.197 4.742,-3.556 5.636,-0.796 0.85,2.626 -2.504,4.293 -3.857,2.29 -1.23,-1.821 1.189,-3.652 2.347,-2.2 0.497,0.623 0.175,1.28 0.205,1.334 0.119,0.21 0.855,-1.522 -0.741,-2.119 -1.529,-0.572 -2.966,0.999 -2.505,2.618 -0.756,-2.653 2.942,-4.023 3.776,-1.379 0.096,0.306 0.127,-0.513 -0.426,-1.088 -1.635,-1.702 -4.686,0.353 -3.585,2.896 1.209,2.791 5.607,1.986 5.823,-1.362 0.233,-3.602 -4.607,-5.27 -6.871,-2.161 -0.279,0.384 -0.471,0.786 -0.611,1.231 1.309,-4.152 7.036,-3.585 7.524,0.311 0.211,1.683 -0.72,3.064 -2.245,3.691 -0.016,0.006 -0.076,0.03 -0.081,0.039 0.052,0.126 1.062,-0.46 1.185,-0.555 3.029,-2.326 0.619,-7.447 -3.493,-6.534 -3.493,0.777 -4.505,5.215 -1.829,7.692 -3.362,-3.113 -0.744,-8.464 3.428,-7.773 3.912,0.648 4.516,5.911 1.056,7.269 -3.377,1.325 -6.062,-2.827 -3.627,-5.137 0.654,-0.621 1.321,-0.784 2.182,-0.803 0.228,-0.005 -0.49,-0.072 -0.713,-0.046 -1.354,0.16 -2.371,1.256 -2.578,2.582z"/>
   <path class="fil3" d="M1.911 5.842c-0.03,0 -0.049,0.01 -0.057,0.028 -0.008,0.018 -0.013,0.06 -0.013,0.126 0,0.101 0.007,0.179 0.019,0.235 0.004,0.015 0.01,0.028 0.018,0.037 0.008,0.008 0.023,0.019 0.045,0.031 0.047,0.027 0.071,0.061 0.071,0.103 0,0.053 -0.033,0.089 -0.099,0.111 -0.066,0.022 -0.177,0.033 -0.334,0.033 -0.293,0 -0.439,-0.055 -0.439,-0.166 0,-0.019 0.005,-0.034 0.013,-0.045 0.009,-0.012 0.029,-0.028 0.06,-0.049 0.035,-0.023 0.058,-0.05 0.07,-0.081 0.012,-0.031 0.021,-0.085 0.026,-0.161 0.004,-0.056 0.006,-0.257 0.006,-0.603 0,-0.11 -0.006,-0.184 -0.017,-0.224 -0.011,-0.039 -0.035,-0.068 -0.071,-0.086 -0.035,-0.017 -0.058,-0.032 -0.07,-0.046 -0.012,-0.013 -0.018,-0.032 -0.018,-0.054 0,-0.029 0.012,-0.054 0.034,-0.076 0.022,-0.022 0.054,-0.038 0.094,-0.048 0.034,-0.009 0.081,-0.013 0.14,-0.013 0.026,0 0.091,0.004 0.195,0.012 0.02,0.002 0.051,0.002 0.094,0.002 0.071,0 0.166,-0.004 0.284,-0.014 0.075,-0.005 0.128,-0.008 0.158,-0.008 0.168,0 0.308,0.041 0.419,0.122 0.099,0.073 0.149,0.175 0.149,0.305 0,0.073 -0.018,0.139 -0.052,0.198 -0.035,0.06 -0.083,0.105 -0.143,0.135 -0.026,0.012 -0.038,0.027 -0.038,0.045 0,0.023 0.019,0.041 0.058,0.056 0.083,0.029 0.143,0.075 0.182,0.136 0.038,0.06 0.066,0.154 0.083,0.279 0.007,0.052 0.017,0.086 0.031,0.101 0.013,0.016 0.044,0.031 0.093,0.045 0.015,0.004 0.028,0.014 0.038,0.03 0.01,0.016 0.015,0.033 0.015,0.052 0,0.024 -0.009,0.048 -0.028,0.074 -0.019,0.024 -0.044,0.044 -0.074,0.058 -0.066,0.031 -0.156,0.046 -0.272,0.046 -0.154,0 -0.264,-0.04 -0.33,-0.122 -0.03,-0.036 -0.055,-0.082 -0.076,-0.137 -0.021,-0.055 -0.046,-0.141 -0.074,-0.258 -0.019,-0.075 -0.042,-0.128 -0.07,-0.159 -0.028,-0.031 -0.068,-0.047 -0.12,-0.05zm-0.069 -0.603l-0.013 0.276c0,0.002 0,0.005 0,0.01 0,0.028 0.004,0.047 0.013,0.057 0.008,0.009 0.025,0.014 0.05,0.014 0.07,0 0.12,-0.018 0.152,-0.054 0.031,-0.036 0.047,-0.093 0.047,-0.172 0,-0.152 -0.054,-0.228 -0.162,-0.228 -0.031,0 -0.053,0.007 -0.065,0.021 -0.013,0.014 -0.02,0.039 -0.022,0.076z"/>
   <path id="1" class="fil3" d="M4.075 5.991l-0.556 0c-0.025,0 -0.037,0.011 -0.037,0.033 0,0.051 0.028,0.099 0.084,0.144 0.055,0.046 0.115,0.069 0.179,0.069 0.038,0 0.08,-0.007 0.126,-0.022 0.046,-0.015 0.085,-0.033 0.114,-0.054 0.027,-0.019 0.049,-0.029 0.064,-0.029 0.021,0 0.041,0.013 0.061,0.039 0.019,0.025 0.029,0.051 0.029,0.077 0,0.057 -0.035,0.112 -0.106,0.165 -0.126,0.094 -0.271,0.141 -0.435,0.141 -0.165,0 -0.304,-0.048 -0.417,-0.144 -0.054,-0.048 -0.099,-0.105 -0.135,-0.172 -0.046,-0.089 -0.069,-0.183 -0.069,-0.282 0,-0.133 0.04,-0.251 0.12,-0.357 0.07,-0.092 0.158,-0.16 0.266,-0.205 0.08,-0.034 0.167,-0.051 0.261,-0.051 0.15,0 0.278,0.042 0.383,0.128 0.052,0.042 0.095,0.093 0.128,0.151 0.037,0.066 0.055,0.131 0.055,0.194 0,0.052 -0.01,0.094 -0.032,0.127 -0.021,0.032 -0.049,0.048 -0.083,0.048zm-0.525 -0.221l0.119 0c0.051,0 0.076,-0.023 0.076,-0.069 0,-0.043 -0.012,-0.078 -0.037,-0.105 -0.024,-0.026 -0.056,-0.04 -0.095,-0.04 -0.045,0 -0.079,0.017 -0.105,0.052 -0.024,0.032 -0.035,0.065 -0.035,0.098 0,0.024 0.005,0.041 0.017,0.05 0.011,0.01 0.031,0.014 0.06,0.014z"/>
   <path id="2" class="fil3" d="M4.741 5.343c0.04,0 0.104,0.008 0.193,0.026 0.018,0.003 0.033,0.005 0.045,0.005 0.013,0 0.04,-0.007 0.078,-0.022 0.018,-0.007 0.033,-0.01 0.046,-0.01 0.037,0 0.073,0.023 0.11,0.07 0.03,0.037 0.055,0.077 0.074,0.122 0.019,0.044 0.028,0.082 0.028,0.114 0,0.032 -0.011,0.058 -0.033,0.079 -0.022,0.021 -0.05,0.031 -0.083,0.031 -0.027,0 -0.052,-0.006 -0.074,-0.02 -0.022,-0.013 -0.056,-0.043 -0.104,-0.088 -0.051,-0.049 -0.093,-0.074 -0.126,-0.074 -0.022,0 -0.041,0.008 -0.058,0.024 -0.016,0.016 -0.024,0.036 -0.024,0.058 0,0.038 0.037,0.075 0.111,0.109 0.134,0.06 0.236,0.125 0.307,0.196 0.06,0.06 0.09,0.134 0.09,0.22 0,0.11 -0.048,0.202 -0.144,0.275 -0.083,0.064 -0.185,0.096 -0.305,0.096 -0.03,0 -0.086,-0.005 -0.168,-0.015 -0.076,-0.009 -0.119,-0.013 -0.129,-0.013 -0.01,0 -0.022,0.001 -0.035,0.003 -0.023,0.003 -0.04,0.005 -0.05,0.005 -0.037,0 -0.066,-0.009 -0.088,-0.028 -0.032,-0.03 -0.062,-0.076 -0.09,-0.138 -0.027,-0.063 -0.041,-0.117 -0.041,-0.162 0,-0.073 0.028,-0.109 0.085,-0.109 0.022,0 0.043,0.007 0.061,0.022 0.019,0.015 0.058,0.054 0.117,0.117 0.032,0.034 0.059,0.058 0.08,0.071 0.022,0.013 0.044,0.02 0.069,0.02 0.026,0 0.047,-0.007 0.063,-0.021 0.015,-0.014 0.024,-0.032 0.024,-0.055 0,-0.036 -0.031,-0.068 -0.092,-0.097 -0.127,-0.062 -0.219,-0.127 -0.275,-0.193 -0.057,-0.067 -0.085,-0.143 -0.085,-0.23 0,-0.094 0.029,-0.175 0.087,-0.243 0.082,-0.097 0.194,-0.145 0.336,-0.145z"/>
   <path id="3" class="fil3" d="M6.134 5.653l0 0.4c0,0.048 0.011,0.086 0.034,0.116 0.024,0.03 0.053,0.045 0.09,0.045 0.03,0 0.071,-0.014 0.122,-0.042 0.011,-0.008 0.024,-0.011 0.035,-0.011 0.019,0 0.037,0.012 0.052,0.034 0.016,0.023 0.024,0.048 0.024,0.075 0,0.049 -0.027,0.096 -0.081,0.141 -0.112,0.095 -0.247,0.143 -0.407,0.143 -0.126,0 -0.228,-0.036 -0.304,-0.107 -0.077,-0.072 -0.115,-0.166 -0.115,-0.283l0 -0.546c0,-0.019 -0.002,-0.03 -0.007,-0.034 -0.004,-0.005 -0.015,-0.007 -0.033,-0.007l-0.122 0c-0.023,0 -0.038,-0.003 -0.044,-0.011 -0.006,-0.007 -0.009,-0.025 -0.009,-0.053l0 -0.052c0,-0.024 0.009,-0.041 0.027,-0.052l0.542 -0.341c0.013,-0.007 0.03,-0.011 0.05,-0.011l0.096 0c0.019,0 0.033,0.005 0.039,0.014 0.007,0.009 0.011,0.027 0.011,0.054l0 0.16c0,0.023 0.003,0.039 0.01,0.046 0.008,0.007 0.024,0.011 0.049,0.011l0.219 0c0.029,0 0.048,0.005 0.057,0.016 0.008,0.01 0.012,0.033 0.012,0.068l0 0.07c0,0.038 -0.005,0.064 -0.016,0.078 -0.011,0.015 -0.031,0.022 -0.061,0.022l-0.214 0c-0.022,0 -0.037,0.004 -0.045,0.012 -0.008,0.008 -0.011,0.023 -0.011,0.045z"/>
   <path id="4" class="fil3" d="M7.241 5.342c0.138,0 0.254,0.034 0.349,0.104 0.051,0.037 0.087,0.08 0.107,0.127 0.02,0.048 0.03,0.114 0.03,0.197l-0.003 0.177c0,0.122 0.009,0.201 0.026,0.238 0.009,0.017 0.018,0.028 0.026,0.033 0.007,0.005 0.024,0.009 0.049,0.013 0.025,0.004 0.038,0.02 0.038,0.049 0,0.038 -0.015,0.078 -0.046,0.119 -0.03,0.041 -0.069,0.075 -0.117,0.103 -0.06,0.035 -0.122,0.052 -0.186,0.052 -0.083,0 -0.149,-0.028 -0.197,-0.085 -0.016,-0.021 -0.032,-0.031 -0.046,-0.031 -0.016,0 -0.037,0.01 -0.063,0.03 -0.079,0.057 -0.168,0.086 -0.269,0.086 -0.103,0 -0.187,-0.022 -0.251,-0.066 -0.041,-0.029 -0.075,-0.068 -0.099,-0.115 -0.025,-0.046 -0.037,-0.095 -0.037,-0.147 0,-0.082 0.033,-0.155 0.1,-0.218 0.103,-0.099 0.258,-0.149 0.464,-0.15 0.046,0 0.074,-0.005 0.087,-0.014 0.011,-0.009 0.017,-0.03 0.017,-0.063 0,-0.084 -0.009,-0.144 -0.026,-0.182 -0.017,-0.037 -0.046,-0.056 -0.085,-0.056 -0.024,0 -0.045,0.007 -0.064,0.021 -0.018,0.014 -0.041,0.04 -0.069,0.078 -0.07,0.1 -0.144,0.151 -0.22,0.151 -0.039,0 -0.07,-0.012 -0.095,-0.035 -0.024,-0.022 -0.036,-0.053 -0.036,-0.089 0,-0.038 0.015,-0.076 0.045,-0.114 0.031,-0.038 0.072,-0.071 0.124,-0.1 0.143,-0.075 0.292,-0.113 0.447,-0.113zm-0.079 0.685c-0.035,0 -0.065,0.014 -0.09,0.043 -0.026,0.028 -0.039,0.062 -0.039,0.102 0,0.038 0.009,0.068 0.027,0.091 0.018,0.023 0.042,0.035 0.073,0.035 0.063,0 0.094,-0.053 0.094,-0.159 0,-0.044 -0.004,-0.073 -0.014,-0.088 -0.008,-0.015 -0.026,-0.023 -0.051,-0.024z"/>
   <path id="5" class="fil3" d="M8.493 5.35c0.042,0 0.067,0.006 0.076,0.018 0.009,0.012 0.017,0.05 0.025,0.113 0.003,0.035 0.016,0.053 0.036,0.053 0.016,0 0.031,-0.012 0.045,-0.035 0.063,-0.098 0.146,-0.148 0.248,-0.148 0.071,0 0.13,0.023 0.176,0.07 0.022,0.023 0.04,0.052 0.054,0.088 0.014,0.036 0.022,0.071 0.022,0.104 0,0.037 -0.009,0.075 -0.026,0.114 -0.018,0.039 -0.04,0.071 -0.068,0.096 -0.05,0.049 -0.112,0.073 -0.186,0.073 -0.04,0 -0.074,-0.007 -0.101,-0.022 -0.027,-0.014 -0.063,-0.043 -0.107,-0.086 -0.017,-0.016 -0.032,-0.025 -0.046,-0.025 -0.022,0 -0.037,0.013 -0.043,0.037 -0.007,0.025 -0.011,0.078 -0.011,0.158 0,0.118 0.005,0.2 0.013,0.243 0.006,0.024 0.014,0.04 0.023,0.05 0.011,0.008 0.032,0.018 0.064,0.027 0.071,0.021 0.107,0.059 0.107,0.112 0,0.032 -0.012,0.06 -0.035,0.084 -0.023,0.024 -0.053,0.04 -0.091,0.048 -0.076,0.016 -0.187,0.024 -0.334,0.024 -0.14,0 -0.246,-0.013 -0.318,-0.037 -0.065,-0.022 -0.097,-0.06 -0.097,-0.115 0,-0.041 0.023,-0.078 0.07,-0.11 0.023,-0.015 0.039,-0.029 0.048,-0.041 0.009,-0.012 0.015,-0.029 0.018,-0.05 0.012,-0.072 0.018,-0.205 0.018,-0.399 0,-0.036 -0.003,-0.061 -0.011,-0.077 -0.008,-0.015 -0.024,-0.027 -0.048,-0.037 -0.056,-0.022 -0.084,-0.054 -0.084,-0.095 0,-0.038 0.02,-0.071 0.058,-0.098 0.039,-0.027 0.104,-0.054 0.195,-0.082 0.121,-0.036 0.225,-0.054 0.31,-0.055z"/>
   <path id="6" class="fil3" d="M9.975 5.653l0 0.4c0,0.048 0.012,0.086 0.035,0.116 0.023,0.03 0.053,0.045 0.089,0.045 0.031,0 0.072,-0.014 0.122,-0.042 0.012,-0.008 0.024,-0.011 0.036,-0.011 0.019,0 0.036,0.012 0.052,0.034 0.016,0.023 0.024,0.048 0.024,0.075 0,0.049 -0.027,0.096 -0.081,0.141 -0.112,0.095 -0.248,0.143 -0.407,0.143 -0.126,0 -0.228,-0.036 -0.305,-0.107 -0.076,-0.072 -0.114,-0.166 -0.114,-0.283l0 -0.546c0,-0.019 -0.002,-0.03 -0.007,-0.034 -0.004,-0.005 -0.015,-0.007 -0.033,-0.007l-0.122 0c-0.023,0 -0.038,-0.003 -0.044,-0.011 -0.007,-0.007 -0.01,-0.025 -0.01,-0.053l0 -0.052c0.001,-0.024 0.01,-0.041 0.027,-0.052l0.543 -0.341c0.013,-0.007 0.03,-0.011 0.049,-0.011l0.097 0c0.019,0 0.032,0.005 0.039,0.014 0.007,0.009 0.01,0.027 0.01,0.054l0 0.16c0,0.023 0.004,0.039 0.011,0.046 0.008,0.007 0.024,0.011 0.048,0.011l0.219 0c0.029,0 0.048,0.005 0.057,0.016 0.009,0.01 0.013,0.033 0.013,0.068l0 0.07c0,0.038 -0.005,0.064 -0.016,0.078 -0.011,0.015 -0.031,0.022 -0.061,0.022l-0.214 0c-0.022,0 -0.037,0.004 -0.045,0.012 -0.008,0.008 -0.012,0.023 -0.012,0.045z"/>
  </g>
 </g>
</svg>
