<?xml version="1.0" encoding="UTF-8"?>
<!DOCTYPE svg PUBLIC "-//W3C//DTD SVG 1.1//EN" "http://www.w3.org/Graphics/SVG/1.1/DTD/svg11.dtd">
<!-- Creator: CorelDRAW 2018 (64 Bit Versión de evaluación) -->
<svg xmlns="http://www.w3.org/2000/svg" xml:space="preserve" width="126px" height="127px" version="1.1" style="shape-rendering:geometricPrecision; text-rendering:geometricPrecision; image-rendering:optimizeQuality; fill-rule:evenodd; clip-rule:evenodd"
viewBox="0 0 47.66 47.94"
 xmlns:xlink="http://www.w3.org/1999/xlink">
 <defs>
  <style type="text/css">
   <![CDATA[
    .str0 {stroke:black;stroke-width:0.89;stroke-miterlimit:22.9256}
    .str3 {stroke:black;stroke-width:0.89;stroke-miterlimit:22.9256}
    .str1 {stroke:black;stroke-width:0.89;stroke-miterlimit:22.9256}
    .str2 {stroke:#FF61B0;stroke-width:0.89;stroke-miterlimit:22.9256}
    .fil0 {fill:none}
    .fil2 {fill:black}
    .fil4 {fill:black}
    .fil3 {fill:#DC0000}
    .fil5 {fill:#FF61B0}
    .fil1 {fill:#FFF9DF}
   ]]>
  </style>
 </defs>
 <g id="Capa_x0020_1">
  <metadata id="CorelCorpID_0Corel-Layer"/>
  <g id="_2506549363984">
   <path class="fil0 str0" d="M10.37 15.58l-3.01 5.49c-0.76,1.49 -1.19,0.75 -1.7,-0.58l-3.95 -11.85 -1.6 0.4"/>
   <path class="fil0 str0" d="M10.37 15.58l-3.01 5.49c-0.76,1.49 -1.19,0.75 -1.7,-0.58l-3.95 -11.85 -1.6 0.4"/>
   <path class="fil0 str0" d="M37.44 15.36l3.01 5.5c0.76,1.49 1.19,0.75 1.7,-0.58l3.95 -11.85 1.45 0.36"/>
   <path class="fil0 str0" d="M37.44 15.36l3.01 5.5c0.76,1.49 1.19,0.75 1.7,-0.58l3.95 -11.85 1.45 0.36"/>
   <rect class="fil1 str1" x="9.31" y="0.45" width="28.29" height="36.15" rx="3.14" ry="3.14"/>
   <rect class="fil1 str1" x="9.31" y="0.45" width="28.29" height="36.15" rx="3.14" ry="3.14"/>
   <g>
    <path class="fil2" d="M27.11 14.45c0.01,0.04 0.01,0.07 0.01,0.11 0,1.74 -1.98,3.15 -4.41,3.15 -2.44,0 -4.41,-1.41 -4.41,-3.15 0,-0.04 0,-0.07 0,-0.11l8.81 0z"/>
    <path class="fil3" d="M19.68 16.9c0.44,-0.89 1.61,-1.52 2.99,-1.52 1.38,0 2.55,0.63 2.99,1.51 -0.79,0.52 -1.84,0.84 -2.99,0.84 -1.15,0 -2.2,-0.32 -2.99,-0.83z"/>
   </g>
   <g>
    <path class="fil2" d="M27.11 14.45c0.01,0.04 0.01,0.07 0.01,0.11 0,1.74 -1.98,3.15 -4.41,3.15 -2.44,0 -4.41,-1.41 -4.41,-3.15 0,-0.04 0,-0.07 0,-0.11l8.81 0z"/>
    <path class="fil3" d="M19.68 16.9c0.44,-0.89 1.61,-1.52 2.99,-1.52 1.38,0 2.55,0.63 2.99,1.51 -0.79,0.52 -1.84,0.84 -2.99,0.84 -1.15,0 -2.2,-0.32 -2.99,-0.83z"/>
   </g>
   <path class="fil4" d="M14.97 47.64c-0.06,-0.91 1.05,-1.72 2.47,-1.81 1.43,-0.09 2.63,0.57 2.69,1.48 0.01,0.18 -0.03,0.35 -0.1,0.52l-5 0.11c-0.03,-0.1 -0.05,-0.2 -0.06,-0.3z"/>
   <path class="fil4" d="M14.97 47.64c-0.06,-0.91 1.05,-1.72 2.47,-1.81 1.43,-0.09 2.63,0.57 2.69,1.48 0.01,0.18 -0.03,0.35 -0.1,0.52l-5 0.11c-0.03,-0.1 -0.05,-0.2 -0.06,-0.3z"/>
   <path class="fil4" d="M24.41 47.56c-0.06,-0.91 1.05,-1.72 2.48,-1.81 1.42,-0.09 2.62,0.57 2.68,1.48 0.01,0.18 -0.02,0.36 -0.1,0.53l-4.99 0.1c-0.04,-0.09 -0.06,-0.19 -0.07,-0.3z"/>
   <path class="fil4" d="M24.41 47.56c-0.06,-0.91 1.05,-1.72 2.48,-1.81 1.42,-0.09 2.62,0.57 2.68,1.48 0.01,0.18 -0.02,0.36 -0.1,0.53l-4.99 0.1c-0.04,-0.09 -0.06,-0.19 -0.07,-0.3z"/>
   <ellipse class="fil5 str2" cx="16.93" cy="13.72" rx="1.08" ry="0.69"/>
   <ellipse class="fil5 str2" cx="16.93" cy="13.72" rx="1.08" ry="0.69"/>
   <ellipse class="fil5 str2" cx="28.84" cy="13.92" rx="1.08" ry="0.69"/>
   <ellipse class="fil5 str2" cx="28.84" cy="13.92" rx="1.08" ry="0.69"/>
   <path class="fil0 str0" d="M27.39 9.73c0,-1.41 1.96,-1.37 4.38,0.08"/>
   <path class="fil0 str0" d="M27.39 9.73c0,-1.41 1.96,-1.37 4.38,0.08"/>
   <path class="fil0 str0" d="M14.46 10.05c0,-1.41 1.96,-1.37 4.38,0.08"/>
   <path class="fil0 str0" d="M14.46 10.05c0,-1.41 1.96,-1.37 4.38,0.08"/>
   <line class="fil0 str3" x1="18.15" y1="22.83" x2="31.51" y2= "22.83" />
   <line class="fil0 str3" x1="18.15" y1="22.83" x2="31.51" y2= "22.83" />
   <line class="fil0 str3" x1="14.03" y1="25.4" x2="31.51" y2= "25.4" />
   <line class="fil0 str3" x1="14.03" y1="25.4" x2="31.51" y2= "25.4" />
   <line class="fil0 str3" x1="14.03" y1="27.57" x2="31.51" y2= "27.57" />
   <line class="fil0 str3" x1="14.03" y1="27.57" x2="31.51" y2= "27.57" />
   <line class="fil0 str3" x1="14.02" y1="29.79" x2="31.51" y2= "29.79" />
   <line class="fil0 str3" x1="14.02" y1="29.79" x2="31.51" y2= "29.79" />
   <path class="fil0 str3" d="M17.69 37.01c0.23,1.65 0.49,9.63 -0.46,10.25"/>
   <path class="fil0 str3" d="M17.69 37.01c0.23,1.65 0.49,9.63 -0.46,10.25"/>
   <path class="fil0 str3" d="M27.13 36.93c0.24,1.65 0.49,9.64 -0.46,10.25"/>
   <path class="fil0 str3" d="M27.13 36.93c0.24,1.65 0.49,9.64 -0.46,10.25"/>
  </g>
 </g>
</svg>
