<?xml version="1.0" encoding="UTF-8"?>
<!DOCTYPE svg PUBLIC "-//W3C//DTD SVG 1.1//EN" "http://www.w3.org/Graphics/SVG/1.1/DTD/svg11.dtd">
<!-- Creator: CorelDRAW 2018 (64 Bit Versión de evaluación) -->
<svg xmlns="http://www.w3.org/2000/svg" xml:space="preserve" width="103px" height="127px" version="1.1" style="shape-rendering:geometricPrecision; text-rendering:geometricPrecision; image-rendering:optimizeQuality; fill-rule:evenodd; clip-rule:evenodd"
viewBox="0 0 33.44 41.16"
 xmlns:xlink="http://www.w3.org/1999/xlink">
 <defs>
  <style type="text/css">
   <![CDATA[
    .str1 {stroke:black;stroke-width:0.76;stroke-miterlimit:22.9256}
    .str0 {stroke:black;stroke-width:0.76;stroke-miterlimit:22.9256}
    .str2 {stroke:black;stroke-width:0.76;stroke-miterlimit:22.9256}
    .str3 {stroke:#FF99CC;stroke-width:0.76;stroke-miterlimit:22.9256}
    .fil0 {fill:none}
    .fil4 {fill:black}
    .fil3 {fill:black}
    .fil6 {fill:#BEA87F}
    .fil2 {fill:#FF99CC}
    .fil1 {fill:#FFF9DF}
    .fil5 {fill:white}
   ]]>
  </style>
 </defs>
 <g id="Capa_x0020_1">
  <metadata id="CorelCorpID_0Corel-Layer"/>
  <g id="_2506742615600">
   <line class="fil0 str0" x1="33.11" y1="24.23" x2="28.15" y2= "28.04" />
   <path class="fil0 str1" d="M25.65 18.85l2.58 -4.72c0.65,-1.27 1.02,-0.64 1.45,0.5l3.39 10.18"/>
   <path class="fil0 str1" d="M7.79 19.04l-2.58 -4.72c-0.65,-1.28 -1.02,-0.64 -1.45,0.5l-3.4 10.18"/>
   <rect class="fil1 str2" x="4.3" y="0.38" width="24.29" height="31.03" rx="2.7" ry="2.7"/>
   <ellipse class="fil2 str3" cx="21.92" cy="12.41" rx="0.93" ry="0.59"/>
   <ellipse class="fil2 str3" cx="11.05" cy="12.41" rx="0.93" ry="0.59"/>
   <line class="fil0 str0" x1="12.22" y1="19.6" x2="23.69" y2= "19.6" />
   <line class="fil0 str0" x1="8.67" y1="21.8" x2="23.69" y2= "21.8" />
   <line class="fil0 str0" x1="8.67" y1="23.67" x2="23.69" y2= "23.67" />
   <line class="fil0 str0" x1="8.67" y1="25.58" x2="23.68" y2= "25.58" />
   <path class="fil0 str0" d="M11.82 31.77c0.2,1.42 0.42,8.28 -0.4,8.8"/>
   <path class="fil0 str0" d="M11.82 31.77c0.2,1.42 0.42,8.28 -0.4,8.8"/>
   <path class="fil0 str0" d="M19.93 31.71c0.2,1.42 0.41,8.27 -0.4,8.8"/>
   <path class="fil0 str0" d="M19.93 31.71c0.2,1.42 0.41,8.27 -0.4,8.8"/>
   <path class="fil3" d="M9.48 40.9c-0.05,-0.78 0.9,-1.47 2.13,-1.55 1.22,-0.08 2.25,0.49 2.3,1.27 0.01,0.15 -0.02,0.3 -0.08,0.45l-4.29 0.09c-0.03,-0.08 -0.05,-0.17 -0.06,-0.26z"/>
   <path class="fil3" d="M9.48 40.9c-0.05,-0.78 0.9,-1.47 2.13,-1.55 1.22,-0.08 2.25,0.49 2.3,1.27 0.01,0.15 -0.02,0.3 -0.08,0.45l-4.29 0.09c-0.03,-0.08 -0.05,-0.17 -0.06,-0.26z"/>
   <path class="fil3" d="M17.59 40.84c-0.05,-0.78 0.9,-1.48 2.12,-1.56 1.23,-0.08 2.26,0.49 2.31,1.27 0.01,0.16 -0.02,0.31 -0.08,0.45l-4.29 0.1c-0.03,-0.09 -0.05,-0.17 -0.06,-0.26z"/>
   <path class="fil3" d="M17.59 40.84c-0.05,-0.78 0.9,-1.48 2.12,-1.56 1.23,-0.08 2.26,0.49 2.31,1.27 0.01,0.16 -0.02,0.31 -0.08,0.45l-4.29 0.1c-0.03,-0.09 -0.05,-0.17 -0.06,-0.26z"/>
   <g>
    <path class="fil0 str1" d="M9.53 6.74c0,-1.21 1.69,-1.17 3.76,0.07"/>
    <ellipse class="fil4 str0" cx="11.44" cy="9.08" rx="1.43" ry="0.67"/>
    <circle class="fil5" cx="10.93" cy="9.08" r="0.52"/>
   </g>
   <g>
    <path class="fil0 str1" d="M18.96 6.93c0,-1.21 1.68,-1.17 3.76,0.07"/>
    <ellipse class="fil4 str0" cx="20.87" cy="9.27" rx="1.43" ry="0.67"/>
    <circle class="fil5" cx="20.35" cy="9.27" r="0.52"/>
   </g>
   <path class="fil6 str0" d="M20.55 15.41c0,0.01 0,0.02 0,0.03 0,0.53 -1.69,0.95 -3.78,0.95 -2.09,0 -3.79,-0.42 -3.79,-0.95 0,-0.01 0,-0.02 0.01,-0.03l7.56 0z"/>
   <line class="fil0 str0" x1="0.36" y1="24.67" x2="4.63" y2= "28.39" />
  </g>
 </g>
</svg>
