<?xml version="1.0" encoding="UTF-8"?>
<!DOCTYPE svg PUBLIC "-//W3C//DTD SVG 1.1//EN" "http://www.w3.org/Graphics/SVG/1.1/DTD/svg11.dtd">
<!-- Creator: CorelDRAW 2018 (64 Bit Versión de evaluación) -->
<svg xmlns="http://www.w3.org/2000/svg" xml:space="preserve" width="103px" height="127px" version="1.1" style="shape-rendering:geometricPrecision; text-rendering:geometricPrecision; image-rendering:optimizeQuality; fill-rule:evenodd; clip-rule:evenodd"
viewBox="0 0 33.17 41.06"
 xmlns:xlink="http://www.w3.org/1999/xlink">
 <defs>
  <style type="text/css">
   <![CDATA[
    .str0 {stroke:black;stroke-width:0.76;stroke-miterlimit:22.9256}
    .str3 {stroke:black;stroke-width:0.76;stroke-miterlimit:22.9256}
    .str1 {stroke:black;stroke-width:0.76;stroke-miterlimit:22.9256}
    .str4 {stroke:#04CAE4;stroke-width:0.76;stroke-miterlimit:22.9256}
    .str2 {stroke:#FAD647;stroke-width:0.76;stroke-miterlimit:22.9256}
    .fil0 {fill:none}
    .fil4 {fill:black}
    .fil3 {fill:#04CAE4}
    .fil2 {fill:#FAD647}
    .fil1 {fill:#FFF9DF}
   ]]>
  </style>
 </defs>
 <g id="Capa_x0020_1">
  <metadata id="CorelCorpID_0Corel-Layer"/>
  <g id="_2506549375824">
   <polyline class="fil0 str0" points="4.29,13.86 0.48,18.43 4.04,23.25 1.5,25.03 "/>
   <path class="fil0 str0" d="M25.39 18.81l2.57 -4.71c0.66,-1.27 1.02,-0.64 1.46,0.5l3.38 10.15"/>
   <rect class="fil1 str1" x="4.42" y="0.38" width="24.23" height="30.96" rx="2.69" ry="2.69"/>
   <rect class="fil1 str1" x="4.42" y="0.38" width="24.23" height="30.96" rx="2.69" ry="2.69"/>
   <ellipse class="fil2 str2" cx="21.68" cy="12.38" rx="0.93" ry="0.59"/>
   <ellipse class="fil2 str2" cx="10.83" cy="12.38" rx="0.93" ry="0.59"/>
   <path class="fil0 str0" d="M19.91 7.52c0,1.2 1.68,1.17 3.75,-0.07"/>
   <path class="fil0 str0" d="M8.83 7.79c0,1.2 1.68,1.17 3.75,-0.07"/>
   <line class="fil0 str3" x1="11.99" y1="19.55" x2="23.44" y2= "19.55" />
   <line class="fil0 str3" x1="11.99" y1="19.55" x2="23.44" y2= "19.55" />
   <line class="fil0 str3" x1="8.46" y1="21.75" x2="23.44" y2= "21.75" />
   <line class="fil0 str3" x1="8.46" y1="21.75" x2="23.44" y2= "21.75" />
   <line class="fil0 str3" x1="8.46" y1="23.62" x2="23.44" y2= "23.62" />
   <line class="fil0 str3" x1="8.46" y1="23.62" x2="23.44" y2= "23.62" />
   <line class="fil0 str3" x1="8.46" y1="25.52" x2="23.43" y2= "25.52" />
   <line class="fil0 str3" x1="8.46" y1="25.52" x2="23.43" y2= "25.52" />
   <path class="fil0 str3" d="M11.6 31.7c0.2,1.41 0.42,8.25 -0.4,8.78"/>
   <path class="fil0 str3" d="M11.6 31.7c0.2,1.41 0.42,8.25 -0.4,8.78"/>
   <path class="fil0 str3" d="M19.69 31.63c0.2,1.42 0.41,8.26 -0.4,8.78"/>
   <path class="fil0 str3" d="M19.69 31.63c0.2,1.42 0.41,8.26 -0.4,8.78"/>
   <path class="fil3 str4" d="M7 3.06c-0.13,-0.15 -0.36,-0.3 -0.54,-0.33 -0.02,0.11 0.12,0.49 0.26,0.56 0.22,0.11 0.29,-0.01 0.28,-0.23z"/>
   <path class="fil3 str4" d="M8.44 2.06c-0.13,-0.16 -0.35,-0.3 -0.53,-0.33 -0.03,0.11 0.12,0.49 0.26,0.55 0.22,0.12 0.28,0 0.27,-0.22z"/>
   <path class="fil0 str3" d="M13.1 14.55c-0.64,-2.24 4.26,-3.57 6.68,-0.16"/>
   <path class="fil4" d="M9.27 40.8c-0.05,-0.77 0.9,-1.47 2.12,-1.55 1.22,-0.07 2.25,0.49 2.3,1.27 0.01,0.15 -0.02,0.31 -0.09,0.45l-4.28 0.09c-0.03,-0.08 -0.05,-0.17 -0.05,-0.26z"/>
   <path class="fil4" d="M9.27 40.8c-0.05,-0.77 0.9,-1.47 2.12,-1.55 1.22,-0.07 2.25,0.49 2.3,1.27 0.01,0.15 -0.02,0.31 -0.09,0.45l-4.28 0.09c-0.03,-0.08 -0.05,-0.17 -0.05,-0.26z"/>
   <path class="fil4" d="M17.36 40.74c-0.05,-0.78 0.89,-1.47 2.11,-1.55 1.22,-0.08 2.25,0.49 2.3,1.27 0.01,0.15 -0.02,0.3 -0.08,0.45l-4.28 0.09c-0.03,-0.09 -0.05,-0.17 -0.05,-0.26z"/>
   <path class="fil4" d="M17.36 40.74c-0.05,-0.78 0.89,-1.47 2.11,-1.55 1.22,-0.08 2.25,0.49 2.3,1.27 0.01,0.15 -0.02,0.3 -0.08,0.45l-4.28 0.09c-0.03,-0.09 -0.05,-0.17 -0.05,-0.26z"/>
  </g>
 </g>
</svg>
