<?xml version="1.0" encoding="UTF-8"?>
<!DOCTYPE svg PUBLIC "-//W3C//DTD SVG 1.1//EN" "http://www.w3.org/Graphics/SVG/1.1/DTD/svg11.dtd">
<!-- Creator: CorelDRAW 2018 (64 Bit Versión de evaluación) -->
<svg xmlns="http://www.w3.org/2000/svg" xml:space="preserve" width="55px" height="55px" version="1.1" style="shape-rendering:geometricPrecision; text-rendering:geometricPrecision; image-rendering:optimizeQuality; fill-rule:evenodd; clip-rule:evenodd"
viewBox="0 0 31.65 31.65"
 xmlns:xlink="http://www.w3.org/1999/xlink">
 <defs>
  <style type="text/css">
   <![CDATA[
    .fil0 {fill:black;fill-rule:nonzero}
    .fil2 {fill:url(#id0)}
    .fil1 {fill:url(#id1)}
   ]]>
  </style>
  <radialGradient id="id0" gradientUnits="userSpaceOnUse" gradientTransform="matrix(1.23663 -0.0210177 -0.0438527 -1.93586 -3 55)" cx="15.276" cy="18.569" r="15.825" fx="15.276" fy="18.569">
   <stop offset="0" style="stop-opacity:1; stop-color:#339966"/>
   <stop offset="0.509804" style="stop-opacity:1; stop-color:yellow"/>
   <stop offset="1" style="stop-opacity:1; stop-color:#009933"/>
  </radialGradient>
  <radialGradient id="id1" gradientUnits="userSpaceOnUse" gradientTransform="matrix(1.23663 0.0210177 -0.0438527 1.93586 -3 -18)" xlink:href="#id0" cx="15.192" cy="18.99" r="15.825" fx="15.192" fy="18.99">
  </radialGradient>
 </defs>
 <g id="Capa_x0020_1">
  <metadata id="CorelCorpID_0Corel-Layer"/>
  <path class="fil0" d="M7.9 17.517l0 -1.537c0.352,0 0.527,-0.133 0.527,-0.401 0,-0.245 -0.134,-0.368 -0.405,-0.368 -0.274,0 -0.411,0.169 -0.411,0.504l0 3.826 -1.739 0 0 -3.646c0,-0.378 0.038,-0.686 0.114,-0.928 0.075,-0.241 0.205,-0.465 0.388,-0.674 0.206,-0.232 0.464,-0.415 0.773,-0.548 0.309,-0.135 0.628,-0.202 0.956,-0.202 0.595,0 1.096,0.201 1.5,0.6 0.405,0.4 0.607,0.896 0.607,1.487 0,0.575 -0.182,1.041 -0.544,1.398 -0.331,0.329 -0.832,0.493 -1.499,0.493l-0.267 -0.004zm2.907 -3.833l1.739 0 0 3.48c0,0.272 0.044,0.452 0.13,0.543 0.088,0.091 0.261,0.135 0.518,0.135l0.09 0 0 1.699 -0.463 0c-0.635,0 -1.128,-0.186 -1.482,-0.556 -0.355,-0.371 -0.532,-0.884 -0.532,-1.541l0 -3.76zm5.186 2.915l0 1.546 -0.501 0 0 1.396 -1.739 0 0 -3.725c0,-0.719 0.196,-1.278 0.59,-1.676 0.394,-0.398 0.947,-0.597 1.66,-0.597 0.688,0 1.196,0.18 1.525,0.542 0.329,0.361 0.493,0.917 0.493,1.671l0 3.785 -1.739 0 0 -3.669c0,-0.226 -0.027,-0.381 -0.082,-0.469 -0.055,-0.086 -0.153,-0.13 -0.295,-0.13 -0.275,0 -0.413,0.199 -0.413,0.599l0 0.727 0.501 0zm7.203 -2.915l-1.655 2.605 0 3.252 -1.739 0 0 -3.252 -1.668 -2.605 1.766 0 0.754 1.207 0.81 -1.207 1.732 0z"/>
  <circle class="fil1" cx="15.825" cy="15.825" r="15.825"/>
  <circle class="fil2" cx="15.825" cy="15.825" r="13.721"/>
  <path class="fil0" d="M9.437 16.275l0 -1.537c0.351,0 0.527,-0.133 0.527,-0.401 0,-0.245 -0.135,-0.368 -0.405,-0.368 -0.274,0 -0.412,0.169 -0.412,0.504l0 3.826 -1.738 0 0 -3.646c0,-0.378 0.038,-0.686 0.114,-0.928 0.074,-0.241 0.205,-0.465 0.388,-0.675 0.206,-0.231 0.464,-0.414 0.772,-0.547 0.309,-0.135 0.628,-0.202 0.956,-0.202 0.596,0 1.096,0.201 1.5,0.6 0.406,0.4 0.608,0.896 0.608,1.487 0,0.575 -0.182,1.041 -0.545,1.398 -0.33,0.329 -0.831,0.493 -1.498,0.493l-0.267 -0.004zm2.907 -3.833l1.739 0 0 3.48c0,0.272 0.043,0.452 0.13,0.543 0.088,0.091 0.26,0.135 0.518,0.135l0.089 0 0 1.699 -0.462 0c-0.635,0 -1.129,-0.186 -1.483,-0.556 -0.354,-0.371 -0.531,-0.884 -0.531,-1.541l0 -3.76zm5.185 2.915l0 1.546 -0.5 0 0 1.396 -1.739 0 0 -3.725c0,-0.719 0.196,-1.278 0.59,-1.676 0.394,-0.398 0.947,-0.597 1.66,-0.597 0.687,0 1.195,0.18 1.525,0.542 0.329,0.361 0.493,0.917 0.493,1.671l0 3.785 -1.739 0 0 -3.669c0,-0.226 -0.028,-0.381 -0.082,-0.469 -0.056,-0.086 -0.154,-0.13 -0.296,-0.13 -0.275,0 -0.412,0.199 -0.412,0.599l0 0.727 0.5 0zm7.204 -2.915l-1.655 2.605 0 3.252 -1.739 0 0 -3.252 -1.669 -2.605 1.767 0 0.754 1.207 0.809 -1.207 1.733 0z"/>
 </g>
</svg>
