<?xml version="1.0" encoding="UTF-8"?>
<!DOCTYPE svg PUBLIC "-//W3C//DTD SVG 1.1//EN" "http://www.w3.org/Graphics/SVG/1.1/DTD/svg11.dtd">
<!-- Creator: CorelDRAW 2018 (64 Bit Versión de evaluación) -->
<svg xmlns="http://www.w3.org/2000/svg" xml:space="preserve" width="134px" height="104px" version="1.1" style="shape-rendering:geometricPrecision; text-rendering:geometricPrecision; image-rendering:optimizeQuality; fill-rule:evenodd; clip-rule:evenodd"
viewBox="0 0 25.63 19.9"
 xmlns:xlink="http://www.w3.org/1999/xlink">
 <defs>
  <style type="text/css">
   <![CDATA[
    .str0 {stroke:black;stroke-width:0.45;stroke-miterlimit:22.9256}
    .str3 {stroke:black;stroke-width:0.45;stroke-miterlimit:22.9256}
    .str2 {stroke:#BEA87F;stroke-width:0.45;stroke-miterlimit:22.9256}
    .str1 {stroke:#D9C69E;stroke-width:0.45;stroke-miterlimit:22.9256}
    .str4 {stroke:fuchsia;stroke-width:0.45;stroke-miterlimit:22.9256}
    .fil0 {fill:none}
    .fil3 {fill:black}
    .fil5 {fill:black}
    .fil2 {fill:#BEA87F}
    .fil1 {fill:#D9C69E}
    .fil4 {fill:#DC0000}
    .fil7 {fill:fuchsia}
    .fil6 {fill:white}
   ]]>
  </style>
 </defs>
 <g id="Capa_x0020_1">
  <metadata id="CorelCorpID_0Corel-Layer"/>
  <g id="_2508115766736">
   <path class="fil0 str0" d="M19.5 3.79l1.52 2.79c0.39,0.75 0.61,0.37 0.86,-0.3l2.01 -6.01 0.73 0.18"/>
   <path class="fil0 str0" d="M19.5 3.79l1.52 2.79c0.39,0.75 0.61,0.37 0.86,-0.3l2.01 -6.01 0.73 0.18"/>
   <path class="fil0 str0" d="M5.18 4.12l-1.53 2.79c-0.38,0.75 -0.6,0.38 -0.86,-0.3l-2 -6.01 -0.74 0.19"/>
   <path class="fil1 str1" d="M10.78 13.98c-6.8,-0.95 -8.17,-3.83 -4.56,-8.46 1.47,-2.98 4.27,-4.02 8.22,-3.67 3.3,0.17 5.93,1.52 7.49,4.72 3.03,4.17 0.91,5.89 -2.6,7 -2.84,0.99 -5.69,1.12 -8.55,0.41z"/>
   <path class="fil2 str2" d="M8.76 15.95c-8.33,-1.16 -10,-4.68 -5.58,-10.36 1.8,-3.64 5.22,-4.91 10.06,-4.48 4.04,0.21 7.25,1.85 9.16,5.78 3.71,5.09 1.12,7.21 -3.18,8.56 -3.56,0.24 -7.04,0.4 -10.46,0.5zm1.98 -2.26c-6.81,-0.95 -8.17,-3.83 -4.56,-8.47 1.47,-2.97 4.26,-4.01 8.22,-3.66 3.3,0.17 5.92,1.51 7.48,4.72 3.03,4.16 0.91,5.89 -2.6,7 -2.84,0.99 -5.68,1.12 -8.54,0.41z"/>
   <path class="fil0 str0" d="M10.88 16.07c0.51,-0.93 1.02,-1.86 1.53,-2.78 0.38,-0.76 0.6,-0.38 0.86,0.29l2 6.01 2.39 -0.6"/>
   <path class="fil0 str0" d="M18.53 15.58c0.51,-0.93 1.01,-1.86 1.52,-2.79 0.39,-0.75 0.6,-0.38 0.86,0.3l2.01 6.01 2.39 -0.6"/>
   <path class="fil0 str0" d="M16.45 6.35c0,-0.71 1,-0.69 2.22,0.04"/>
   <ellipse class="fil3 str3" cx="11.01" cy="6.63" rx="0.85" ry="0.4"/>
   <path class="fil3" d="M17.28 8.49c0,0.03 0,0.06 0,0.08 0,1.24 -1,2.24 -2.24,2.24 -1.23,0 -2.23,-1 -2.23,-2.24 0,-0.02 0,-0.05 0,-0.08l4.47 0z"/>
   <path class="fil4" d="M13.51 10.23c0.22,-0.63 0.81,-1.08 1.51,-1.08 0.7,0 1.3,0.45 1.52,1.08 -0.4,0.36 -0.93,0.59 -1.52,0.59 -0.58,0 -1.11,-0.23 -1.51,-0.59z"/>
   <path class="fil5" d="M14.98 19.74c-0.13,-0.51 0.41,-1.1 1.22,-1.3 0.8,-0.21 1.56,0.03 1.69,0.54 0.02,0.11 0.02,0.21 0,0.31l-2.84 0.61c-0.03,-0.05 -0.05,-0.1 -0.07,-0.16z"/>
   <path class="fil5" d="M22.7 19.25c-0.13,-0.51 0.41,-1.09 1.21,-1.3 0.81,-0.21 1.56,0.04 1.7,0.55 0.02,0.1 0.02,0.2 0,0.31l-2.84 0.61c-0.03,-0.06 -0.05,-0.11 -0.07,-0.17z"/>
   <circle class="fil6" cx="11.3" cy="6.66" r="0.3"/>
   <ellipse class="fil7 str4" cx="18.11" cy="8.03" rx="0.55" ry="0.35"/>
   <ellipse class="fil7 str4" cx="12.04" cy="8.07" rx="0.55" ry="0.35"/>
  </g>
 </g>
</svg>
