<?xml version="1.0" encoding="UTF-8"?>
<!DOCTYPE svg PUBLIC "-//W3C//DTD SVG 1.1//EN" "http://www.w3.org/Graphics/SVG/1.1/DTD/svg11.dtd">
<!-- Creator: CorelDRAW 2018 (64 Bit Versión de evaluación) -->
<svg xmlns="http://www.w3.org/2000/svg" xml:space="preserve" width="131px" height="100px" version="1.1" style="shape-rendering:geometricPrecision; text-rendering:geometricPrecision; image-rendering:optimizeQuality; fill-rule:evenodd; clip-rule:evenodd"
viewBox="0 0 24.41 18.61"
 xmlns:xlink="http://www.w3.org/1999/xlink">
 <defs>
  <style type="text/css">
   <![CDATA[
    .str5 {stroke:black;stroke-width:0.37;stroke-miterlimit:22.9256}
    .str0 {stroke:black;stroke-width:0.44;stroke-miterlimit:22.9256}
    .str3 {stroke:black;stroke-width:0.44;stroke-miterlimit:22.9256}
    .str6 {stroke:#71ECFD;stroke-width:0.44;stroke-miterlimit:22.9256}
    .str2 {stroke:#BEA87F;stroke-width:0.44;stroke-miterlimit:22.9256}
    .str1 {stroke:#D9C69E;stroke-width:0.44;stroke-miterlimit:22.9256}
    .str4 {stroke:#FFAC41;stroke-width:0.44;stroke-miterlimit:22.9256}
    .fil0 {fill:none}
    .fil3 {fill:black}
    .fil4 {fill:black}
    .fil8 {fill:#71ECFD}
    .fil2 {fill:#BEA87F}
    .fil9 {fill:#C5F7FF}
    .fil1 {fill:#D9C69E}
    .fil7 {fill:#FFAC41}
    .fil6 {fill:#FFAC41}
    .fil5 {fill:white}
   ]]>
  </style>
 </defs>
 <g id="Capa_x0020_1">
  <metadata id="CorelCorpID_0Corel-Layer"/>
  <g id="_2506742691712">
   <polyline class="fil0 str0" points="17.29,14.38 23.38,15.38 23.95,13.04 "/>
   <polyline class="fil0 str0" points="7.87,14.81 12.98,18.29 14.48,16.41 "/>
   <path class="fil1 str1" d="M9.83 12.78c-6.62,-1.07 -7.89,-3.9 -4.27,-8.34 1.49,-2.87 4.24,-3.83 8.09,-3.4 3.21,0.23 5.75,1.59 7.2,4.75 2.87,4.13 0.76,5.77 -2.68,6.77 -2.79,0.91 -5.57,0.98 -8.34,0.22z"/>
   <path class="fil2 str2" d="M7.98 14.77c-8.13,-1.13 -9.75,-4.56 -5.44,-10.1 1.75,-3.55 5.09,-4.79 9.81,-4.37 3.93,0.2 7.07,1.8 8.93,5.63 3.62,4.97 1.09,7.03 -3.1,8.36 -3.47,0.22 -6.87,0.38 -10.2,0.48zm1.93 -2.21c-6.64,-0.92 -7.97,-3.73 -4.45,-8.25 1.43,-2.9 4.16,-3.92 8.02,-3.57 3.21,0.16 5.77,1.47 7.3,4.6 2.95,4.06 0.88,5.74 -2.54,6.82 -2.77,0.97 -5.55,1.1 -8.33,0.4z"/>
   <ellipse class="fil3 str3" cx="10.18" cy="5.68" rx="0.82" ry="0.39"/>
   <ellipse class="fil3 str3" cx="16.83" cy="5.5" rx="0.82" ry="0.39"/>
   <path class="fil3" d="M16.03 9.23c0,-0.02 0,-0.03 0,-0.04 0,-0.61 -0.98,-1.09 -2.18,-1.09 -1.21,0 -2.18,0.48 -2.18,1.09 0,0.01 0,0.02 0,0.04l4.36 0z"/>
   <polyline class="fil0 str0" points="3.77,7.12 1.57,9.76 3.62,12.54 2.16,13.57 "/>
   <path class="fil3" d="M12.84 18.52c-0.4,-0.33 -0.31,-1.1 0.2,-1.73 0.5,-0.63 1.24,-0.87 1.64,-0.55 0.08,0.06 0.14,0.15 0.18,0.24l-1.86 2.13c-0.06,-0.03 -0.11,-0.06 -0.16,-0.09z"/>
   <path class="fil4" d="M23.61 15.8c-0.51,-0.09 -0.8,-0.81 -0.65,-1.6 0.14,-0.8 0.67,-1.37 1.17,-1.27 0.11,0.01 0.2,0.06 0.28,0.12l-0.62 2.76c-0.06,0.01 -0.12,0.01 -0.18,-0.01z"/>
   <circle class="fil5" cx="10.64" cy="5.53" r="0.3"/>
   <circle class="fil5" cx="17.36" cy="5.34" r="0.3"/>
   <ellipse class="fil6 str4" cx="11.13" cy="8.25" rx="0.53" ry="0.34"/>
   <ellipse class="fil7 str4" cx="16.62" cy="8.31" rx="0.53" ry="0.34"/>
   <line class="fil0 str5" x1="9.14" y1="5.04" x2="12.71" y2= "3.72" />
   <line class="fil0 str5" x1="14.36" y1="3.72" x2="17.93" y2= "5.04" />
   <g>
    <path class="fil8 str6" d="M16.43 6.57c0.01,-0.08 0,-0.19 -0.04,-0.25 -0.04,0.02 -0.12,0.16 -0.11,0.22 0.03,0.1 0.08,0.09 0.15,0.03z"/>
    <path class="fil9" d="M16.61 6.22c-0.06,0.08 -0.18,0.15 -0.22,0.21 -0.12,0.16 -0.11,0.22 -0.12,0.22 -0.19,-0.01 0.04,-0.37 0.34,-0.43z"/>
   </g>
   <g>
    <path class="fil8 str6" d="M11.03 6.6c0.01,-0.09 0,-0.19 -0.04,-0.26 -0.04,0.02 -0.12,0.17 -0.11,0.23 0.03,0.1 0.08,0.09 0.15,0.03z"/>
    <path class="fil9" d="M11.21 6.25c-0.06,0.08 -0.18,0.15 -0.22,0.2 -0.12,0.17 -0.11,0.22 -0.13,0.22 -0.18,-0.01 0.05,-0.37 0.35,-0.42z"/>
   </g>
  </g>
 </g>
</svg>
