<?xml version="1.0" encoding="UTF-8"?>
<!DOCTYPE svg PUBLIC "-//W3C//DTD SVG 1.1//EN" "http://www.w3.org/Graphics/SVG/1.1/DTD/svg11.dtd">
<!-- Creator: CorelDRAW 2018 (64 Bit Versión de evaluación) -->
<svg xmlns="http://www.w3.org/2000/svg" xml:space="preserve" width="61px" height="127px" version="1.1" style="shape-rendering:geometricPrecision; text-rendering:geometricPrecision; image-rendering:optimizeQuality; fill-rule:evenodd; clip-rule:evenodd"
viewBox="0 0 167.17 347.48"
 xmlns:xlink="http://www.w3.org/1999/xlink">
 <defs>
  <style type="text/css">
   <![CDATA[
    .str1 {stroke:black;stroke-width:6.46;stroke-miterlimit:22.9256}
    .str3 {stroke:#71ECFD;stroke-width:6.46;stroke-miterlimit:22.9256}
    .str0 {stroke:#999999;stroke-width:6.46;stroke-miterlimit:22.9256}
    .str2 {stroke:black;stroke-width:2.46;stroke-miterlimit:22.9256}
    .fil3 {fill:none}
    .fil1 {fill:#0DC3FB}
    .fil2 {fill:#50D1FC}
    .fil4 {fill:#71ECFD}
    .fil0 {fill:#999999}
    .fil5 {fill:#C5F7FF}
   ]]>
  </style>
 </defs>
 <g id="Capa_x0020_1">
  <metadata id="CorelCorpID_0Corel-Layer"/>
  <g id="_2506754892416">
   <path class="fil0 str0" d="M71.24 160.16l11.26 6.88 3.19 167.13c-0.23,10.26 -3.84,15.29 -10.89,2.43 -24.42,-44.09 -23.11,-106.51 -3.21,-135.96l-0.35 -40.48z"/>
   <path class="fil0 str0" d="M89.13 159.44l-10.97 6.88 -3.11 167.13c0.22,10.26 3.74,15.29 10.61,2.43 23.8,-44.09 22.52,-106.51 3.13,-135.97l0.34 -40.47z"/>
   <path class="fil1" d="M52.15 105.43c-25.68,0 -46.5,-23.44 -46.5,-52.36 0,-28.93 20.82,-52.38 46.5,-52.38 11.15,0 21.38,4.43 29.39,11.8l0 81.15c-8.01,7.37 -18.24,11.79 -29.39,11.79zm0 -25.32c-13.27,0 -24.02,-12.11 -24.02,-27.04 0,-14.94 10.75,-27.05 24.02,-27.05 13.25,0 24.01,12.11 24.01,27.05 0,14.93 -10.76,27.04 -24.01,27.04z"/>
   <path class="fil1" d="M74.83 92.66l2.4 69.48c7.55,2.11 14.84,2.34 21.93,1.02l-2.39 -69.48 -21.94 -1.02z"/>
   <path class="fil1" d="M62.5 163.48l2.4 -69.48c7.55,-2.11 14.85,-2.34 21.94,-1.02l-2.4 69.48 -21.94 1.02z"/>
   <path class="fil1" d="M110.41 104.74c25.68,0 46.49,-23.45 46.49,-52.37 0,-28.93 -20.81,-52.37 -46.49,-52.37 -11.15,0 -21.38,4.42 -29.39,11.79l0 81.16c8.01,7.37 18.24,11.79 29.39,11.79zm0 -25.32c13.26,0 24.01,-12.11 24.01,-27.05 0,-14.94 -10.75,-27.05 -24.01,-27.05 -13.26,0 -24.01,12.11 -24.01,27.05 0,14.94 10.75,27.05 24.01,27.05z"/>
   <path class="fil2" d="M22.25 58.03c2.69,6.59 1.41,12.97 3.12,17.41 5.01,13.09 9.5,16.63 8.6,16.85 -9.64,2.47 -22.22,-25.31 -11.72,-34.26z"/>
   <path class="fil2" d="M150.97 47.37c-8.64,-7.09 -11.65,-16.86 -17.31,-21.71 -16.7,-14.32 -25.54,-15.84 -24.46,-16.83 11.46,-10.6 49.56,18.34 41.77,38.54z"/>
   <path class="fil3 str1" d="M69.38 120.27c-2,-7.04 13.41,-11.23 21.02,-0.52"/>
   <path class="fil3 str2" d="M100.65 95.18c-3.18,-3.54 -5.38,-0.14 -8.06,-0.21"/>
   <path class="fil3 str2" d="M64.9 94c-3.17,-3.54 -5.37,-0.13 -8.06,-0.2"/>
   <g>
    <g>
     <path class="fil4 str3" d="M51.35 125.82c0.15,-0.89 -0.01,-2.06 -0.41,-2.77 -0.46,0.23 -1.32,1.81 -1.14,2.49 0.24,1.06 0.82,0.95 1.55,0.28z"/>
     <path class="fil5" d="M53.34 122.01c-0.65,0.91 -1.92,1.63 -2.38,2.24 -1.34,1.8 -1.18,2.42 -1.37,2.41 -2,-0.13 0.52,-4.03 3.75,-4.65z"/>
    </g>
    <g>
     <path class="fil4 str3" d="M45.87 141.23c0.14,-0.9 -0.02,-2.07 -0.42,-2.77 -0.46,0.22 -1.32,1.8 -1.14,2.48 0.24,1.06 0.82,0.96 1.56,0.29z"/>
     <path class="fil5" d="M47.85 137.41c-0.65,0.91 -1.92,1.63 -2.37,2.24 -1.35,1.8 -1.19,2.43 -1.38,2.42 -2,-0.13 0.53,-4.04 3.75,-4.66z"/>
    </g>
    <g>
     <path class="fil4 str3" d="M37.29 159.69c0.14,-0.89 -0.01,-2.06 -0.41,-2.77 -0.46,0.23 -1.32,1.81 -1.15,2.49 0.25,1.06 0.82,0.95 1.56,0.28z"/>
     <path class="fil5" d="M39.27 155.88c-0.65,0.91 -1.91,1.63 -2.37,2.24 -1.34,1.8 -1.18,2.43 -1.37,2.41 -2,-0.12 0.52,-4.03 3.74,-4.65z"/>
    </g>
    <g>
     <path class="fil4 str3" d="M26.17 180.35c0.14,-0.9 -0.01,-2.06 -0.41,-2.77 -0.46,0.22 -1.32,1.81 -1.14,2.48 0.24,1.06 0.82,0.96 1.55,0.29z"/>
     <path class="fil5" d="M28.15 176.53c-0.64,0.92 -1.92,1.63 -2.37,2.24 -1.34,1.81 -1.18,2.43 -1.37,2.42 -2.01,-0.13 0.52,-4.04 3.74,-4.66z"/>
    </g>
    <g>
     <path class="fil4 str3" d="M26.17 180.35c0.14,-0.9 -0.01,-2.06 -0.41,-2.77 -0.46,0.22 -1.32,1.81 -1.14,2.48 0.24,1.06 0.82,0.96 1.55,0.29z"/>
     <path class="fil5" d="M28.15 176.53c-0.64,0.92 -1.92,1.63 -2.37,2.24 -1.34,1.81 -1.18,2.43 -1.37,2.42 -2.01,-0.13 0.52,-4.04 3.74,-4.66z"/>
    </g>
    <g>
     <path class="fil4 str3" d="M4.81 224.49c0.14,-0.9 -0.01,-2.06 -0.42,-2.77 -0.45,0.22 -1.31,1.8 -1.14,2.48 0.25,1.06 0.82,0.96 1.56,0.29z"/>
     <path class="fil5" d="M6.79 220.67c-0.65,0.92 -1.92,1.63 -2.37,2.24 -1.34,1.81 -1.18,2.43 -1.37,2.42 -2.01,-0.13 0.52,-4.04 3.74,-4.66z"/>
    </g>
    <g>
     <path class="fil4 str3" d="M56.79 108.66c0.14,-0.9 -0.01,-2.07 -0.41,-2.77 -0.47,0.22 -1.32,1.8 -1.15,2.48 0.24,1.06 0.82,0.96 1.56,0.29z"/>
     <path class="fil5" d="M58.77 104.84c-0.65,0.91 -1.92,1.63 -2.37,2.24 -1.34,1.8 -1.19,2.43 -1.37,2.42 -2.01,-0.13 0.52,-4.04 3.74,-4.66z"/>
    </g>
   </g>
   <g>
    <g>
     <path class="fil4 str3" d="M115.82 121.74c-0.15,-0.9 0.01,-2.07 0.41,-2.77 0.46,0.22 1.32,1.8 1.14,2.48 -0.24,1.06 -0.82,0.96 -1.55,0.29z"/>
     <path class="fil5" d="M113.83 117.92c0.65,0.92 1.92,1.63 2.38,2.24 1.34,1.8 1.18,2.43 1.37,2.41 2,-0.12 -0.52,-4.03 -3.75,-4.65z"/>
    </g>
    <g>
     <path class="fil4 str3" d="M121.31 137.14c-0.15,-0.9 0.01,-2.06 0.41,-2.77 0.46,0.23 1.32,1.81 1.14,2.48 -0.24,1.07 -0.82,0.96 -1.55,0.29z"/>
     <path class="fil5" d="M119.32 133.32c0.65,0.92 1.92,1.63 2.38,2.25 1.34,1.8 1.18,2.42 1.37,2.41 2,-0.13 -0.52,-4.04 -3.75,-4.66z"/>
    </g>
    <g>
     <path class="fil4 str3" d="M129.88 155.61c-0.14,-0.9 0.01,-2.06 0.41,-2.77 0.46,0.23 1.32,1.81 1.15,2.49 -0.25,1.05 -0.82,0.95 -1.56,0.28z"/>
     <path class="fil5" d="M127.9 151.79c0.65,0.92 1.91,1.63 2.37,2.24 1.34,1.81 1.19,2.43 1.37,2.42 2,-0.13 -0.52,-4.04 -3.74,-4.66z"/>
    </g>
    <g>
     <path class="fil4 str3" d="M141 176.26c-0.14,-0.89 0.01,-2.06 0.41,-2.77 0.46,0.23 1.32,1.81 1.15,2.49 -0.25,1.06 -0.82,0.95 -1.56,0.28z"/>
     <path class="fil5" d="M139.02 172.45c0.65,0.91 1.92,1.63 2.37,2.24 1.34,1.8 1.18,2.43 1.37,2.41 2.01,-0.12 -0.52,-4.03 -3.74,-4.65z"/>
    </g>
    <g>
     <path class="fil4 str3" d="M141 176.26c-0.14,-0.89 0.01,-2.06 0.41,-2.77 0.46,0.23 1.32,1.81 1.15,2.49 -0.25,1.06 -0.82,0.95 -1.56,0.28z"/>
     <path class="fil5" d="M139.02 172.45c0.65,0.91 1.92,1.63 2.37,2.24 1.34,1.8 1.18,2.43 1.37,2.41 2.01,-0.12 -0.52,-4.03 -3.74,-4.65z"/>
    </g>
    <g>
     <path class="fil4 str3" d="M162.36 220.4c-0.14,-0.89 0.01,-2.06 0.42,-2.77 0.46,0.23 1.31,1.81 1.14,2.49 -0.24,1.06 -0.82,0.95 -1.56,0.28z"/>
     <path class="fil5" d="M160.38 216.59c0.65,0.91 1.92,1.62 2.37,2.24 1.34,1.8 1.19,2.42 1.38,2.41 2,-0.13 -0.53,-4.03 -3.75,-4.65z"/>
    </g>
    <g>
     <path class="fil4 str3" d="M110.38 104.57c-0.14,-0.9 0.01,-2.06 0.42,-2.77 0.46,0.23 1.32,1.81 1.14,2.48 -0.24,1.07 -0.82,0.96 -1.56,0.29z"/>
     <path class="fil5" d="M108.4 100.75c0.65,0.92 1.92,1.64 2.38,2.25 1.34,1.8 1.18,2.42 1.36,2.41 2.01,-0.13 -0.52,-4.04 -3.74,-4.66z"/>
    </g>
   </g>
  </g>
 </g>
</svg>
