<?xml version="1.0" encoding="UTF-8"?>
<!DOCTYPE svg PUBLIC "-//W3C//DTD SVG 1.1//EN" "http://www.w3.org/Graphics/SVG/1.1/DTD/svg11.dtd">
<!-- Creator: CorelDRAW 2018 (64 Bit Versión de evaluación) -->
<svg xmlns="http://www.w3.org/2000/svg" xml:space="preserve" width="137px" height="147px" version="1.1" style="shape-rendering:geometricPrecision; text-rendering:geometricPrecision; image-rendering:optimizeQuality; fill-rule:evenodd; clip-rule:evenodd"
viewBox="0 0 977.19 1044.81"
 xmlns:xlink="http://www.w3.org/1999/xlink">
 <defs>
  <style type="text/css">
   <![CDATA[
    .str0 {stroke:black;stroke-width:16.82;stroke-miterlimit:22.9256}
    .str1 {stroke:#999999;stroke-width:16.82;stroke-miterlimit:22.9256}
    .str3 {stroke:fuchsia;stroke-width:16.82;stroke-miterlimit:22.9256}
    .str2 {stroke:white;stroke-width:16.82;stroke-miterlimit:22.9256}
    .str4 {stroke:black;stroke-width:6.41;stroke-miterlimit:22.9256}
    .fil1 {fill:none}
    .fil4 {fill:black}
    .fil0 {fill:black}
    .fil2 {fill:#0DC3FB}
    .fil7 {fill:#50D1FC}
    .fil3 {fill:#999999}
    .fil5 {fill:#DC0000}
    .fil8 {fill:fuchsia}
    .fil6 {fill:white}
   ]]>
  </style>
 </defs>
 <g id="Capa_x0020_1">
  <metadata id="CorelCorpID_0Corel-Layer"/>
  <g id="_2506542238832">
   <path class="fil0" d="M357.63 1035.61c0.1,-15.13 19.43,-27.27 43.19,-27.11 23.74,0.16 42.91,12.56 42.81,27.69 -0.02,3.02 -0.8,5.92 -2.24,8.62l-83.05 -4.09c-0.48,-1.65 -0.73,-3.36 -0.71,-5.11z"/>
   <path class="fil0" d="M2.49 702.91c9.17,-12.04 31.92,-10.15 50.82,4.24 18.9,14.38 26.79,35.81 17.62,47.85 -1.82,2.39 -4.2,4.24 -6.96,5.55l-63.97 -53.12c0.61,-1.62 1.43,-3.13 2.49,-4.52z"/>
   <path class="fil1 str0" d="M380.84 902.9c0.81,17.41 0.67,72.83 -5.75,116.33"/>
   <path class="fil1 str0" d="M98.36 629.51c-11.65,12.97 -50.69,52.29 -85.82,78.73"/>
   <path class="fil2" d="M348.35 675.3c55.22,-82.53 150.5,-115.63 212.84,-73.93 62.33,41.71 68.1,142.42 12.89,224.94 -55.23,82.54 -150.51,115.63 -212.84,73.93 -62.33,-41.7 -68.11,-142.41 -12.89,-224.94zm52.51 35.13c29.52,-44.13 80.48,-61.82 113.81,-39.53 33.33,22.3 36.42,76.15 6.89,120.29 -29.52,44.13 -80.48,61.82 -113.81,39.52 -33.34,-22.3 -36.42,-76.14 -6.89,-120.28z"/>
   <path class="fil3 str1" d="M451.47 440.78l49.45 -5.9 40.95 -401.31c1.02,-24.36 -12.41,-37.41 -42.9,-9.21 -105.48,96.57 -112.06,244.7 -38.48,320.74l-9.02 95.68z"/>
   <path class="fil2" d="M438.78 646.74l-6.03 -189.4c-0.44,-13.8 10.45,-26.35 24.22,-27.9l28.32 -3.19c13.75,-1.54 25.37,8.48 25.81,22.28l6.04 189.4 -78.36 8.81z"/>
   <path class="fil2" d="M299.18 625.19c83.37,-53.93 117.95,-148.69 77.22,-211.67 -40.73,-62.97 -141.33,-70.31 -224.72,-16.38 -83.37,53.92 -117.94,148.68 -77.22,211.66 40.73,62.97 141.33,70.31 224.72,16.39zm-34.32 -53.06c44.59,-28.83 63.08,-79.5 41.3,-113.18 -21.77,-33.67 -75.58,-37.6 -120.16,-8.76 -44.59,28.84 -63.08,79.51 -41.3,113.18 21.78,33.68 75.58,37.6 120.16,8.76z"/>
   <path class="fil3 str1" d="M535.28 525.72l13.42 -45.86 395.14 -38.18c24.37,-0.63 37.21,12.99 8.54,43.04 -98.2,103.96 -246.42,108.23 -321.3,33.49l-95.8 7.51z"/>
   <path class="fil2" d="M329.14 535.21l189.28 8.98c13.79,0.66 26.51,-10.04 28.28,-23.79l3.62 -28.25c1.76,-13.74 -8.08,-25.51 -21.87,-26.16l-189.28 -8.98 -10.03 78.2z"/>
   <path class="fil4" d="M503.44 509.35c0.03,0.18 0.07,0.36 0.09,0.56 1.03,8.31 -12.65,16.84 -30.57,19.06 -17.92,2.21 -33.28,-2.72 -34.3,-11.03 -0.03,-0.19 -0.04,-0.38 -0.05,-0.57l64.83 -8.02z"/>
   <path class="fil5" d="M450.23 527.81c2.66,-4.61 10.94,-8.7 21.08,-9.95 10.15,-1.25 19.16,0.69 22.86,4.5 -5.47,3.19 -13,5.65 -21.47,6.7 -8.48,1.05 -16.38,0.5 -22.47,-1.25z"/>
   <circle class="fil6 str2" transform="matrix(0.0502869 0.0448148 0.0448148 -0.0502869 422.399 431.238)" r="14.83"/>
   <circle class="fil6 str2" transform="matrix(0.0502869 0.0448148 0.0448148 -0.0502869 422.399 431.238)" r="14.83"/>
   <path class="fil7" d="M328.11 560.59c-32.22,12.28 -50.61,37.91 -71.95,46.58 -62.9,25.53 -90.25,21.33 -88.07,25.28 23.17,42.25 163.04,-5.1 160.02,-71.86z"/>
   <path class="fil7" d="M546.34 817.85c-31.45,14.13 -48.33,40.79 -69.12,50.68 -61.33,29.14 -88.87,26.53 -86.46,30.35 25.58,40.83 162.47,-14.56 155.58,-81.03z"/>
   <ellipse class="fil8 str3" transform="matrix(1.28152 -0.0184075 0.0109524 0.762502 507.159 494.424)" rx="5.28" ry="1.94"/>
   <ellipse class="fil8 str3" transform="matrix(1.28152 -0.0184075 0.0109524 0.762502 433.012 501.763)" rx="5.28" ry="1.94"/>
   <path class="fil1 str4" d="M504.44 470.69c-10.73,-10.02 -16.55,1.05 -24.82,1.58"/>
   <path class="fil1 str4" d="M457.31 470.69c-10.73,-10.02 -16.55,1.05 -24.82,1.58"/>
  </g>
 </g>
</svg>
