<?xml version="1.0" encoding="UTF-8"?>
<!DOCTYPE svg PUBLIC "-//W3C//DTD SVG 1.1//EN" "http://www.w3.org/Graphics/SVG/1.1/DTD/svg11.dtd">
<!-- Creator: CorelDRAW 2018 (64 Bit Versión de evaluación) -->
<svg xmlns="http://www.w3.org/2000/svg" xml:space="preserve" width="195px" height="34px" version="1.1" style="shape-rendering:geometricPrecision; text-rendering:geometricPrecision; image-rendering:optimizeQuality; fill-rule:evenodd; clip-rule:evenodd"
viewBox="0 0 194.303 33.948"
 xmlns:xlink="http://www.w3.org/1999/xlink">
 <defs>
  <style type="text/css">
   <![CDATA[
    .str0 {stroke:#1D534D;stroke-width:0.755;stroke-miterlimit:22.9256}
    .fil1 {fill:#173515;fill-rule:nonzero}
    .fil3 {fill:#1D5329;fill-rule:nonzero}
    .fil4 {fill:#1D534D;fill-rule:nonzero}
    .fil2 {fill:#A1FFC6;fill-rule:nonzero}
    .fil0 {fill:url(#id0)}
   ]]>
  </style>
  <radialGradient id="id0" gradientUnits="userSpaceOnUse" gradientTransform="matrix(1.23663 0.00427945 -0.0438527 0.394163 -21 17)" cx="95.723" cy="28.132" r="46.766" fx="95.723" fy="28.132">
   <stop offset="0" style="stop-opacity:1; stop-color:#339966"/>
   <stop offset="0.509804" style="stop-opacity:1; stop-color:yellow"/>
   <stop offset="1" style="stop-opacity:1; stop-color:#009933"/>
  </radialGradient>
 </defs>
 <g id="Capa_x0020_1">
  <metadata id="CorelCorpID_0Corel-Layer"/>
  <path class="fil0" d="M63.266 32.858c-1.243,-2.073 -1.818,-3.7 -1.817,-6.18 0,-2.458 0.585,-4.2 1.871,-6.279l0.617 -0.99 7.677 0c1.359,0 2.723,0.367 3.749,1.292 0.479,0.48 0.82,0.852 1.118,1.474 0.768,-0.372 1.609,-0.548 2.461,-0.548 1.591,0 2.83,0.59 3.924,1.723 0.803,-0.888 1.838,-1.354 3.014,-1.472l0 -2.469 6.578 0 0 2.313c0.774,0.169 1.471,0.562 2.01,1.144 2.061,-1.718 5.37,-1.667 7.308,0.226 1.356,-1.444 3.44,-1.903 5.243,-1.023 1.095,-0.54 2.337,-0.578 3.477,-0.156l0 -2.504 6.579 0 0 2.33c0.941,0.198 1.793,0.643 2.501,1.293 1.041,-0.939 2.329,-1.405 3.727,-1.405 0.74,0 1.426,0.133 2.06,0.399l-1.249 -2.617 6.257 0c0.978,1.573 1.854,2.917 2.239,4.781 0.277,1.34 0.313,2.8 0.136,4.158 -0.305,2.335 -1.229,3.75 -2.387,5.6l-6.245 0 0.854 -1.791c-1.876,0.625 -3.921,0.201 -5.386,-1.141 -1.709,1.556 -4.085,1.821 -6.146,0.829l0 0.459 -14.604 0.049c-1.07,0.177 -2.186,0.054 -3.176,-0.394l0 0.345 -9.776 0 0 -0.505c-0.873,0.505 -1.937,0.674 -2.934,0.674l-2.426 0 0 -0.288c-0.916,0.288 -1.928,0.326 -2.866,0.119l-8.245 0 0.789 1.644 -6.263 0c-0.228,-0.369 -0.453,-0.73 -0.669,-1.09z"/>
  <path class="fil1" d="M66.88 31.852l-1.784 0c-0.579,-0.939 -0.983,-1.785 -1.212,-2.542 -0.228,-0.757 -0.341,-1.633 -0.341,-2.632 0,-0.985 0.115,-1.864 0.348,-2.638 0.232,-0.772 0.633,-1.618 1.205,-2.536l1.777 0c-0.855,1.787 -1.281,3.504 -1.281,5.148 0,1.675 0.428,3.408 1.288,5.2zm4.006 -8.012l0 6.368 -2.584 0 0 -8.704 3.312 0c1.01,0 1.793,0.25 2.349,0.753 0.62,0.563 0.929,1.274 0.929,2.137 0,0.881 -0.383,1.625 -1.148,2.23l1.49 3.584 -2.715 0 -1.255 -2.801 0 -2.236 0.205 0c0.541,0 0.813,-0.235 0.813,-0.707 0,-0.415 -0.313,-0.624 -0.942,-0.624l-0.454 0zm8.056 -0.118c0.902,0 1.675,0.325 2.319,0.973 0.645,0.648 0.967,1.424 0.967,2.329 0,0.918 -0.326,1.701 -0.978,2.347 -0.655,0.646 -1.443,0.968 -2.365,0.968 -0.924,0 -1.714,-0.325 -2.368,-0.973 -0.655,-0.648 -0.983,-1.429 -0.983,-2.342 0,-0.931 0.328,-1.714 0.983,-2.349 0.654,-0.635 1.463,-0.953 2.425,-0.953zm-0.063 2.349c-0.257,0 -0.472,0.094 -0.651,0.279 -0.178,0.185 -0.267,0.411 -0.267,0.68 0,0.264 0.089,0.49 0.27,0.679 0.18,0.187 0.395,0.281 0.648,0.281 0.254,0 0.472,-0.094 0.652,-0.281 0.181,-0.189 0.27,-0.415 0.27,-0.679 0,-0.269 -0.089,-0.495 -0.268,-0.68 -0.178,-0.185 -0.395,-0.279 -0.654,-0.279zm8.317 -2.127l0 2.512c-0.335,0 -0.566,0.063 -0.69,0.187 -0.126,0.127 -0.204,0.375 -0.239,0.742 -0.111,1.227 -0.585,2.092 -1.424,2.597 -0.446,0.263 -1.079,0.396 -1.897,0.396l-0.331 0 0 -2.519 0.109 0c0.381,0 0.653,-0.08 0.818,-0.239 0.163,-0.159 0.257,-0.439 0.283,-0.838 0.032,-0.65 0.093,-1.108 0.18,-1.372 0.087,-0.263 0.266,-0.524 0.531,-0.783 0.468,-0.454 1.113,-0.683 1.94,-0.683l0.72 0zm3.167 -2.44l0 2.662c0.402,-0.296 0.805,-0.444 1.207,-0.444 0.611,0 1.094,0.222 1.453,0.664 0.359,0.443 0.537,1.039 0.537,1.794l0 4.028 -2.388 0 0 -3.36c0,-0.27 -0.028,-0.453 -0.085,-0.546 -0.057,-0.093 -0.165,-0.14 -0.328,-0.14 -0.264,0 -0.396,0.196 -0.396,0.59l0 3.456 -2.389 0 0 -8.704 2.389 0zm8.125 6.321l0 2.466c-0.195,0.033 -0.373,0.048 -0.535,0.048 -0.954,0 -1.748,-0.316 -2.385,-0.944 -0.638,-0.629 -0.955,-1.416 -0.955,-2.365 0,-0.922 0.321,-1.702 0.966,-2.344 0.641,-0.642 1.424,-0.964 2.346,-0.964 1.027,0 1.836,0.301 2.429,0.903 0.592,0.603 0.888,1.425 0.888,2.466l0 3.117 -2.388 0 0 -2.945c0,-0.335 -0.08,-0.602 -0.244,-0.802 -0.16,-0.198 -0.38,-0.299 -0.654,-0.299 -0.248,0 -0.464,0.092 -0.644,0.275 -0.181,0.182 -0.272,0.398 -0.272,0.648 0,0.263 0.083,0.481 0.246,0.65 0.165,0.17 0.374,0.255 0.626,0.255 0.207,0 0.4,-0.055 0.576,-0.165zm12.852 2.383l-2.388 0 0 -3.43c0,-0.265 -0.026,-0.45 -0.08,-0.552 -0.055,-0.102 -0.152,-0.155 -0.296,-0.155 -0.263,0 -0.394,0.238 -0.394,0.714l0 3.423 -2.388 0 0 -3.43c0,-0.265 -0.028,-0.45 -0.087,-0.552 -0.056,-0.102 -0.156,-0.155 -0.3,-0.155 -0.263,0 -0.396,0.238 -0.396,0.714l0 3.423 -2.388 0 0 -3.915c0,-0.713 0.241,-1.32 0.722,-1.82 0.481,-0.5 1.064,-0.751 1.749,-0.751 0.704,0 1.34,0.298 1.901,0.897 0.624,-0.599 1.246,-0.897 1.87,-0.897 0.794,0 1.429,0.29 1.91,0.868 0.376,0.45 0.565,1.107 0.565,1.973l0 3.645zm3.639 -8.704l0 5.211c0,0.851 0.305,1.275 0.911,1.275 0.259,0 0.479,-0.09 0.659,-0.266 0.181,-0.176 0.27,-0.391 0.27,-0.641 0,-0.261 -0.084,-0.479 -0.254,-0.655 -0.17,-0.176 -0.376,-0.266 -0.623,-0.266 -0.174,0 -0.374,0.077 -0.598,0.227l0 -2.625c0.281,-0.028 0.494,-0.042 0.638,-0.042 0.896,0 1.666,0.325 2.305,0.971 0.64,0.646 0.96,1.424 0.96,2.333 0,0.933 -0.327,1.718 -0.977,2.356 -0.65,0.637 -1.451,0.957 -2.399,0.957 -0.476,0 -0.942,-0.105 -1.394,-0.314 -0.453,-0.208 -0.827,-0.489 -1.12,-0.841 -0.512,-0.614 -0.766,-1.405 -0.766,-2.38l0 -5.3 2.388 0zm8.324 2.218c0.902,0 1.675,0.325 2.318,0.973 0.646,0.648 0.968,1.424 0.968,2.329 0,0.918 -0.326,1.701 -0.979,2.347 -0.654,0.646 -1.442,0.968 -2.364,0.968 -0.924,0 -1.714,-0.325 -2.368,-0.973 -0.655,-0.648 -0.984,-1.429 -0.984,-2.342 0,-0.931 0.329,-1.714 0.984,-2.349 0.654,-0.635 1.463,-0.953 2.425,-0.953zm-0.063 2.349c-0.257,0 -0.472,0.094 -0.651,0.279 -0.178,0.185 -0.267,0.411 -0.267,0.68 0,0.264 0.089,0.49 0.27,0.679 0.18,0.187 0.395,0.281 0.648,0.281 0.254,0 0.472,-0.094 0.652,-0.281 0.181,-0.189 0.27,-0.415 0.27,-0.679 0,-0.269 -0.089,-0.495 -0.268,-0.68 -0.178,-0.185 -0.396,-0.279 -0.654,-0.279zm4.193 -4.567l1.777 0c0.581,0.935 0.985,1.781 1.212,2.54 0.226,0.757 0.339,1.636 0.339,2.634 0,0.986 -0.115,1.867 -0.346,2.641 -0.23,0.776 -0.633,1.62 -1.205,2.533l-1.777 0c0.853,-1.787 1.279,-3.503 1.279,-5.148 0,-1.679 -0.426,-3.413 -1.279,-5.2z"/>
  <path class="fil2 str0" d="M179.634 3.714c0.277,0 0.535,0.026 0.775,0.082 0.246,0.056 0.469,0.143 0.668,0.262 0.488,-0.224 1.009,-0.336 1.562,-0.336 0.485,0 0.943,0.085 1.373,0.254 0.455,0.179 0.856,0.447 1.205,0.801l0.015 0.015c0.166,0.172 0.318,0.37 0.456,0.594 0.13,0.21 0.238,0.426 0.324,0.646l-0.003 0.001c0.089,0.227 0.158,0.454 0.204,0.679 0.054,0.262 0.082,0.507 0.082,0.731 0,0.256 -0.033,0.525 -0.097,0.809l0 0.007c-0.053,0.232 -0.136,0.476 -0.246,0.73l-0.008 0.023c-0.114,0.255 -0.243,0.486 -0.387,0.691 -0.157,0.224 -0.337,0.428 -0.536,0.61 -0.348,0.324 -0.742,0.571 -1.179,0.741 -0.253,0.098 -0.511,0.169 -0.775,0.211 0.377,0.461 0.565,0.996 0.565,1.608 0,0.356 -0.068,0.699 -0.201,1.026 -0.129,0.315 -0.318,0.605 -0.565,0.866 -0.224,0.236 -0.48,0.429 -0.768,0.58 -0.264,0.138 -0.546,0.239 -0.846,0.303l-0.008 0c-0.357,0.074 -0.769,0.129 -1.235,0.162 -0.456,0.033 -0.951,0.049 -1.483,0.049 -0.544,0 -1.043,-0.027 -1.498,-0.079 -0.486,-0.056 -0.927,-0.15 -1.32,-0.281l-0.021 0c-0.553,-0.19 -0.999,-0.487 -1.337,-0.887 -0.414,-0.49 -0.621,-1.059 -0.621,-1.706 0,-0.508 0.142,-0.985 0.426,-1.429l0.004 0.002c0.161,-0.251 0.36,-0.478 0.598,-0.68 0.011,-0.133 0.021,-0.285 0.029,-0.456 0.012,-0.267 0.02,-0.638 0.023,-1.112 -0.138,-0.108 -0.264,-0.227 -0.378,-0.358 -0.413,-0.472 -0.62,-1.014 -0.62,-1.628 0,-0.474 0.122,-0.918 0.367,-1.331 0.205,-0.347 0.487,-0.647 0.843,-0.898l0.007 0c0.447,-0.312 1.079,-0.59 1.899,-0.834 0.496,-0.148 0.956,-0.26 1.381,-0.337 0.439,-0.079 0.877,-0.12 1.311,-0.124l0.015 -0.007z"/>
  <path class="fil2 str0" d="M187.975 3.663c0.191,0 0.455,0.022 0.793,0.067l0.008 0c0.235,0.032 0.485,0.072 0.749,0.121 0.141,-0.053 0.279,-0.095 0.414,-0.126 0.202,-0.047 0.393,-0.071 0.57,-0.071 0.487,0 0.952,0.143 1.396,0.426 0.3,0.192 0.58,0.451 0.841,0.776l0.003 -0.003c0.165,0.204 0.31,0.409 0.434,0.614 0.124,0.205 0.238,0.43 0.344,0.677l0.003 -0.001c0.102,0.237 0.183,0.479 0.244,0.725 0.073,0.296 0.109,0.57 0.109,0.824 0,0.356 -0.068,0.699 -0.206,1.027 -0.089,0.214 -0.204,0.411 -0.345,0.592 0.111,0.182 0.207,0.372 0.288,0.571 0.204,0.498 0.305,1.014 0.305,1.55 0,0.69 -0.158,1.335 -0.474,1.936 -0.298,0.566 -0.727,1.062 -1.284,1.486 -0.47,0.359 -0.987,0.628 -1.551,0.805 -0.542,0.171 -1.116,0.256 -1.723,0.256 -0.113,0 -0.322,-0.014 -0.624,-0.041 -0.355,-0.033 -0.61,-0.06 -0.78,-0.081l0 -0.002 -0.649 -0.072 -0.042 0.01 -0.272 0.023c-0.165,0.014 -0.27,0.022 -0.305,0.022 -0.315,0 -0.623,-0.048 -0.925,-0.145 -0.352,-0.113 -0.664,-0.291 -0.938,-0.533l-0.015 -0.007c-0.229,-0.207 -0.444,-0.464 -0.643,-0.771 -0.161,-0.247 -0.31,-0.526 -0.447,-0.837l-0.003 0.001c-0.129,-0.293 -0.234,-0.596 -0.314,-0.909 -0.093,-0.361 -0.139,-0.689 -0.139,-0.983 0,-0.681 0.184,-1.259 0.555,-1.733l0.049 -0.06 -0.007 -0.019c-0.178,-0.48 -0.267,-0.983 -0.267,-1.507 0,-0.539 0.088,-1.054 0.262,-1.544 0.179,-0.502 0.444,-0.96 0.794,-1.374 0.473,-0.559 1.045,-0.984 1.713,-1.273 0.642,-0.278 1.336,-0.417 2.079,-0.417zm-1.096 12.048c0.023,-0.002 0.039,-0.004 0.014,-0.002 -0.005,0.001 -0.003,0 0,0l-0.014 0.002zm0.014 -0.002c0.006,-0.002 0.022,-0.005 0.008,-0.003l-0.008 0.003z"/>
  <path class="fil2 str0" d="M170.319 3.654c0.64,0 1.257,0.093 1.85,0.278 0.598,0.187 1.157,0.468 1.674,0.842l0.001 -0.002c0.372,0.269 0.712,0.587 1.023,0.952 0.306,0.36 0.568,0.749 0.784,1.165l0 0.008c0.233,0.452 0.409,0.916 0.527,1.393 0.123,0.497 0.185,0.99 0.185,1.478 0,0.912 -0.203,1.765 -0.608,2.556 -0.383,0.748 -0.937,1.414 -1.66,1.999 -0.649,0.522 -1.357,0.919 -2.124,1.189 -0.765,0.269 -1.556,0.403 -2.374,0.403 -0.816,0 -1.578,-0.131 -2.282,-0.391 -0.742,-0.276 -1.397,-0.688 -1.963,-1.236l0.003 -0.003c-0.574,-0.556 -1.005,-1.197 -1.292,-1.921 -0.281,-0.711 -0.422,-1.482 -0.422,-2.314 0,-0.913 0.172,-1.766 0.513,-2.558 0.34,-0.788 0.839,-1.479 1.497,-2.071 0.651,-0.591 1.373,-1.034 2.165,-1.329 0.783,-0.292 1.617,-0.438 2.503,-0.438z"/>
  <path class="fil2 str0" d="M160.8 3.663c0.191,0 0.455,0.022 0.793,0.067l0.008 0c0.235,0.032 0.485,0.072 0.749,0.121 0.141,-0.053 0.279,-0.095 0.414,-0.126 0.202,-0.047 0.393,-0.071 0.57,-0.071 0.487,0 0.952,0.143 1.396,0.426 0.3,0.192 0.58,0.451 0.841,0.776l0.003 -0.003c0.165,0.204 0.31,0.409 0.434,0.614 0.124,0.205 0.238,0.43 0.344,0.677l0.003 -0.001c0.102,0.237 0.183,0.479 0.244,0.725 0.072,0.296 0.109,0.57 0.109,0.824 0,0.356 -0.068,0.699 -0.206,1.027 -0.089,0.214 -0.204,0.411 -0.345,0.592 0.11,0.182 0.207,0.372 0.288,0.571 0.203,0.498 0.305,1.014 0.305,1.55 0,0.69 -0.158,1.335 -0.474,1.936 -0.299,0.566 -0.727,1.062 -1.284,1.486 -0.47,0.359 -0.987,0.628 -1.551,0.805 -0.542,0.171 -1.116,0.256 -1.723,0.256 -0.113,0 -0.322,-0.014 -0.624,-0.041 -0.356,-0.033 -0.61,-0.06 -0.78,-0.081l0 -0.002 -0.649 -0.072 -0.042 0.01 -0.273 0.023c-0.164,0.014 -0.269,0.022 -0.304,0.022 -0.315,0 -0.623,-0.048 -0.925,-0.145 -0.352,-0.113 -0.664,-0.291 -0.938,-0.533l-0.015 -0.007c-0.229,-0.207 -0.444,-0.464 -0.644,-0.771 -0.16,-0.247 -0.31,-0.526 -0.446,-0.837l-0.003 0.001c-0.129,-0.293 -0.234,-0.596 -0.314,-0.909 -0.093,-0.361 -0.139,-0.689 -0.139,-0.983 0,-0.681 0.184,-1.259 0.555,-1.733l0.048 -0.06 -0.006 -0.019c-0.178,-0.48 -0.267,-0.983 -0.267,-1.507 0,-0.539 0.088,-1.054 0.262,-1.544 0.179,-0.502 0.444,-0.96 0.794,-1.374 0.472,-0.559 1.044,-0.984 1.713,-1.273 0.642,-0.278 1.336,-0.417 2.079,-0.417zm-1.096 12.048c0.023,-0.002 0.039,-0.004 0.013,-0.002 -0.004,0.001 -0.003,0 0,0l-0.013 0.002zm0.013 -0.002c0.007,-0.002 0.023,-0.005 0.009,-0.003l-0.009 0.003z"/>
  <path class="fil2 str0" d="M152.724 3.663c0.191,0 0.455,0.022 0.793,0.067l0.007 0c0.236,0.032 0.486,0.072 0.75,0.121 0.141,-0.053 0.279,-0.095 0.414,-0.126 0.202,-0.047 0.392,-0.071 0.57,-0.071 0.487,0 0.952,0.143 1.395,0.426 0.301,0.192 0.581,0.451 0.841,0.776l0.004 -0.003c0.165,0.204 0.31,0.409 0.433,0.614 0.124,0.205 0.239,0.43 0.345,0.677l0.002 -0.001c0.103,0.237 0.184,0.479 0.244,0.725 0.073,0.296 0.109,0.57 0.109,0.824 0,0.356 -0.067,0.699 -0.205,1.027 -0.09,0.214 -0.205,0.411 -0.346,0.592 0.111,0.182 0.207,0.372 0.289,0.571 0.203,0.498 0.305,1.014 0.305,1.55 0,0.69 -0.158,1.335 -0.475,1.936 -0.298,0.566 -0.726,1.062 -1.284,1.486 -0.469,0.359 -0.986,0.628 -1.55,0.805 -0.542,0.171 -1.117,0.256 -1.723,0.256 -0.114,0 -0.322,-0.014 -0.624,-0.041 -0.356,-0.033 -0.611,-0.06 -0.781,-0.081l0.001 -0.002 -0.65 -0.072 -0.042 0.01 -0.272 0.023c-0.164,0.014 -0.27,0.022 -0.304,0.022 -0.315,0 -0.623,-0.048 -0.925,-0.145 -0.352,-0.113 -0.664,-0.291 -0.938,-0.533l-0.015 -0.007c-0.229,-0.207 -0.445,-0.464 -0.644,-0.771 -0.161,-0.247 -0.31,-0.526 -0.447,-0.837l-0.002 0.001c-0.129,-0.293 -0.234,-0.596 -0.315,-0.909 -0.093,-0.361 -0.139,-0.689 -0.139,-0.983 0,-0.681 0.185,-1.259 0.556,-1.733l0.048 -0.06 -0.007 -0.019c-0.177,-0.48 -0.266,-0.983 -0.266,-1.507 0,-0.539 0.088,-1.054 0.262,-1.544 0.179,-0.502 0.444,-0.96 0.793,-1.374 0.473,-0.559 1.045,-0.984 1.713,-1.273 0.643,-0.278 1.336,-0.417 2.08,-0.417zm-1.097 12.048c0.024,-0.002 0.04,-0.004 0.014,-0.002 -0.004,0.001 -0.003,0 0,0l-0.014 0.002zm0.014 -0.002c0.006,-0.002 0.023,-0.005 0.009,-0.003l-0.009 0.003z"/>
  <path class="fil2 str0" d="M146.334 0.609c0.379,0 0.738,0.04 1.074,0.119 0.403,0.094 0.764,0.244 1.081,0.445l0 0.008c0.406,0.26 0.719,0.577 0.938,0.952l-0.005 0.003c0.247,0.424 0.37,0.876 0.37,1.361 0,0.57 -0.151,1.095 -0.455,1.576 -0.271,0.429 -0.646,0.784 -1.124,1.064l0.002 0.003c-0.482,0.281 -1.027,0.495 -1.633,0.64 -0.57,0.138 -1.158,0.206 -1.762,0.206 -0.329,0 -0.654,-0.039 -0.979,-0.117 -0.387,-0.092 -0.725,-0.234 -1.017,-0.425l0.002 -0.004c-0.41,-0.263 -0.732,-0.593 -0.961,-0.988 -0.252,-0.435 -0.379,-0.909 -0.379,-1.418 0,-0.723 0.25,-1.359 0.75,-1.908 0.362,-0.397 0.851,-0.718 1.468,-0.964 0.458,-0.182 0.892,-0.317 1.303,-0.405 0.461,-0.099 0.903,-0.148 1.327,-0.148z"/>
  <path class="fil2 str0" d="M149.866 6.127l0 4.803 0.115 0.102c0.164,0.149 0.306,0.312 0.424,0.488 0.15,0.225 0.259,0.461 0.324,0.707l0 0.007c0.059,0.223 0.089,0.445 0.089,0.664 0,1.211 -0.627,2.066 -1.882,2.561 -0.675,0.267 -1.581,0.4 -2.718,0.4 -0.507,0 -1.003,-0.025 -1.484,-0.073 -0.505,-0.05 -0.943,-0.126 -1.312,-0.225l-0.037 -0.015c-0.272,-0.079 -0.517,-0.186 -0.736,-0.322l0.002 -0.003c-0.247,-0.153 -0.461,-0.337 -0.645,-0.55 -0.202,-0.236 -0.357,-0.497 -0.466,-0.783 -0.113,-0.301 -0.17,-0.606 -0.17,-0.916 0,-0.221 0.03,-0.446 0.089,-0.672l0.002 0c0.078,-0.301 0.2,-0.563 0.362,-0.785l0.029 -0.03c0.121,-0.159 0.267,-0.312 0.438,-0.457l0.084 -0.071 0.004 -0.049c0.013,-0.157 0.02,-0.351 0.02,-0.584l-0.002 -0.319 -0.035 -0.726c-0.192,-0.145 -0.36,-0.31 -0.504,-0.497 -0.351,-0.455 -0.526,-0.967 -0.526,-1.537 0,-0.636 0.208,-1.197 0.626,-1.683 0.317,-0.371 0.737,-0.656 1.256,-0.856l0.007 -0.008c0.299,-0.114 0.662,-0.237 1.086,-0.365 0.421,-0.128 0.801,-0.233 1.144,-0.313l0.008 0c0.412,-0.096 0.774,-0.168 1.086,-0.215 0.372,-0.055 0.697,-0.083 0.974,-0.083 0.713,0 1.295,0.255 1.75,0.767l0.004 -0.004c0.397,0.447 0.594,0.993 0.594,1.642z"/>
  <path class="fil2 str0" d="M139.045 3.663c0.581,0 1.14,0.086 1.677,0.258 0.541,0.174 1.053,0.44 1.533,0.797 0.526,0.393 0.932,0.853 1.217,1.38 0.322,0.597 0.484,1.244 0.484,1.941 0,0.483 -0.082,0.945 -0.247,1.385l0 0.007c-0.116,0.31 -0.269,0.592 -0.459,0.846 0.114,0.195 0.206,0.406 0.276,0.632l0 0.007c0.096,0.315 0.145,0.631 0.145,0.945 0,0.357 -0.061,0.716 -0.186,1.072 -0.096,0.277 -0.236,0.555 -0.421,0.833l0.002 0.002c-0.154,0.235 -0.334,0.457 -0.54,0.665 -0.193,0.195 -0.403,0.373 -0.632,0.533l-0.007 0.008c-0.452,0.314 -0.948,0.551 -1.486,0.71 -0.524,0.154 -1.066,0.231 -1.625,0.231 -0.68,0 -1.324,-0.117 -1.93,-0.351 -0.624,-0.241 -1.191,-0.6 -1.7,-1.076l0.002 -0.003c-0.64,-0.594 -1.127,-1.285 -1.46,-2.071 -0.34,-0.801 -0.509,-1.664 -0.509,-2.587 0,-0.896 0.158,-1.729 0.472,-2.501 0.312,-0.764 0.772,-1.441 1.378,-2.03 0.561,-0.544 1.183,-0.954 1.866,-1.228 0.672,-0.27 1.389,-0.405 2.15,-0.405z"/>
  <path class="fil2 str0" d="M128.535 0.378c0.384,0 0.829,0.047 1.332,0.142 0.334,0.063 0.704,0.152 1.11,0.268 0.131,-0.044 0.26,-0.075 0.387,-0.096 0.17,-0.027 0.318,-0.041 0.447,-0.041 0.595,0 1.162,0.2 1.698,0.601l0.004 -0.005c0.345,0.259 0.683,0.622 1.01,1.089l0.003 -0.003c0.302,0.428 0.533,0.859 0.694,1.293 0.182,0.491 0.273,0.98 0.273,1.467 0,0.363 -0.061,0.716 -0.18,1.056 -0.123,0.345 -0.306,0.662 -0.55,0.946l0.052 0.073c0.583,0.835 0.876,1.779 0.876,2.832 0,1.792 -0.725,3.25 -2.173,4.375l-0.008 0c-0.675,0.524 -1.449,0.916 -2.319,1.173 -0.824,0.245 -1.719,0.367 -2.682,0.367 -0.402,0 -0.834,-0.026 -1.293,-0.077 -0.439,-0.049 -0.884,-0.122 -1.333,-0.218l-0.008 0c-0.447,-0.097 -0.859,-0.211 -1.235,-0.343 -0.426,-0.148 -0.79,-0.321 -1.091,-0.517l-0.015 -0.007c-0.358,-0.239 -0.673,-0.575 -0.94,-1.006 -0.197,-0.319 -0.37,-0.682 -0.514,-1.086 -0.133,-0.372 -0.238,-0.764 -0.314,-1.176 -0.077,-0.423 -0.116,-0.821 -0.116,-1.195 0,-0.284 0.038,-0.567 0.115,-0.848l-0.007 -0.002c0.093,-0.342 0.247,-0.65 0.46,-0.922l-0.002 -0.001c0.075,-0.097 0.155,-0.188 0.241,-0.271 -0.339,-0.696 -0.508,-1.427 -0.508,-2.193 0,-0.389 0.045,-0.775 0.136,-1.156 0.085,-0.355 0.219,-0.719 0.403,-1.093 0.179,-0.365 0.389,-0.698 0.631,-0.999 0.236,-0.295 0.507,-0.566 0.812,-0.815l-0.002 -0.002c0.644,-0.54 1.357,-0.945 2.142,-1.215 0.766,-0.263 1.587,-0.395 2.464,-0.395zm2.768 0.505l0.019 0.004 -0.019 -0.004z"/>
  <path class="fil2 str0" d="M115.591 5.996c0.051,0 0.158,0.005 0.316,0.014l0.008 0c0.112,0.006 0.219,0.015 0.321,0.026 0.265,0.03 0.534,0.054 0.809,0.073 0.186,0.013 0.358,0.02 0.515,0.02 0.247,0 0.396,-0.005 0.444,-0.013l0.081 -0.007 0.287 -0.037c0.153,-0.016 0.265,-0.025 0.338,-0.025 0.758,0 1.344,0.312 1.761,0.931l-0.005 0.003c0.263,0.391 0.394,0.837 0.394,1.338 0,0.217 -0.023,0.461 -0.069,0.73 -0.033,0.193 -0.089,0.424 -0.166,0.692l0.003 0.001c-0.071,0.252 -0.148,0.486 -0.23,0.701 -0.09,0.235 -0.188,0.461 -0.293,0.676l-0.022 0.029c-0.113,0.223 -0.201,0.382 -0.263,0.479 -0.121,0.191 -0.255,0.361 -0.398,0.508 -0.217,0.224 -0.465,0.399 -0.74,0.52 -0.297,0.131 -0.609,0.198 -0.933,0.198 -0.084,0 -0.209,-0.008 -0.372,-0.025l-0.007 0c-0.111,-0.012 -0.224,-0.027 -0.335,-0.046 -0.182,-0.031 -0.389,-0.055 -0.62,-0.071 -0.215,-0.016 -0.471,-0.024 -0.767,-0.024 -0.245,0 -0.432,0.006 -0.559,0.019l-0.314 0.026c-0.149,0.009 -0.244,0.014 -0.286,0.014 -1.487,0 -2.232,-0.764 -2.232,-2.292 0,-0.352 0.094,-0.839 0.284,-1.447l0 -0.007c0.068,-0.222 0.146,-0.446 0.235,-0.675 0.095,-0.245 0.189,-0.455 0.281,-0.627l0.014 -0.029c0.109,-0.194 0.222,-0.37 0.339,-0.528 0.153,-0.208 0.321,-0.389 0.506,-0.543 0.244,-0.202 0.512,-0.355 0.805,-0.454 0.25,-0.084 0.522,-0.132 0.818,-0.141l0.052 -0.007z"/>
  <path class="fil2 str0" d="M105.029 3.714c0.277,0 0.535,0.026 0.775,0.082 0.246,0.056 0.469,0.143 0.668,0.262 0.488,-0.224 1.009,-0.336 1.562,-0.336 0.486,0 0.943,0.085 1.373,0.254 0.455,0.179 0.857,0.447 1.205,0.801l0.015 0.015c0.166,0.172 0.318,0.37 0.456,0.594 0.13,0.21 0.238,0.426 0.325,0.646l-0.004 0.001c0.089,0.227 0.158,0.454 0.204,0.679 0.054,0.262 0.082,0.507 0.082,0.731 0,0.256 -0.033,0.525 -0.097,0.809l0 0.007c-0.053,0.232 -0.136,0.476 -0.246,0.73l-0.007 0.023c-0.115,0.255 -0.244,0.486 -0.388,0.691 -0.157,0.224 -0.336,0.428 -0.536,0.61 -0.348,0.324 -0.742,0.571 -1.179,0.741 -0.253,0.098 -0.511,0.169 -0.774,0.211 0.376,0.461 0.564,0.996 0.564,1.608 0,0.356 -0.068,0.699 -0.201,1.026 -0.129,0.315 -0.317,0.605 -0.565,0.866 -0.224,0.236 -0.48,0.429 -0.768,0.58 -0.264,0.138 -0.546,0.239 -0.846,0.303l-0.008 0c-0.357,0.074 -0.769,0.129 -1.235,0.162 -0.456,0.033 -0.951,0.049 -1.483,0.049 -0.543,0 -1.043,-0.027 -1.498,-0.079 -0.486,-0.056 -0.926,-0.15 -1.319,-0.281l-0.022 0c-0.552,-0.19 -0.999,-0.487 -1.337,-0.887 -0.414,-0.49 -0.621,-1.059 -0.621,-1.706 0,-0.508 0.142,-0.985 0.427,-1.429l0.003 0.002c0.161,-0.251 0.361,-0.478 0.598,-0.68 0.011,-0.133 0.021,-0.285 0.029,-0.456 0.013,-0.267 0.02,-0.638 0.023,-1.112 -0.138,-0.108 -0.264,-0.227 -0.378,-0.358 -0.413,-0.472 -0.62,-1.014 -0.62,-1.628 0,-0.474 0.123,-0.918 0.367,-1.331 0.205,-0.347 0.487,-0.647 0.843,-0.898l0.007 0c0.447,-0.312 1.079,-0.59 1.899,-0.834 0.496,-0.148 0.957,-0.26 1.382,-0.337 0.438,-0.079 0.876,-0.12 1.31,-0.124l0.015 -0.007z"/>
  <path class="fil2 str0" d="M100.273 12.824l-0.008 0.006 0.01 -0.004 -0.002 -0.002zm1.673 -1.986l0.041 0.099c0.118,0.308 0.178,0.625 0.178,0.949 0,0.566 -0.166,1.104 -0.497,1.615 -0.249,0.383 -0.588,0.734 -1.018,1.052 -0.612,0.455 -1.264,0.796 -1.958,1.02l-0.007 0c-0.703,0.228 -1.435,0.342 -2.196,0.342 -1.619,0 -3.001,-0.489 -4.143,-1.466l-0.022 -0.016c-0.272,-0.239 -0.525,-0.506 -0.757,-0.8 -0.222,-0.282 -0.426,-0.595 -0.608,-0.94l-0.007 -0.007c-0.228,-0.437 -0.401,-0.898 -0.521,-1.382 -0.12,-0.488 -0.18,-0.975 -0.18,-1.46 0,-0.659 0.105,-1.299 0.314,-1.92 0.204,-0.607 0.51,-1.178 0.917,-1.715l-0.005 -0.004c0.342,-0.451 0.737,-0.849 1.184,-1.194 0.445,-0.343 0.931,-0.625 1.456,-0.844l0.002 0.003c0.409,-0.172 0.826,-0.299 1.247,-0.381 0.431,-0.084 0.866,-0.126 1.304,-0.126 0.717,0 1.403,0.108 2.055,0.327 0.662,0.221 1.265,0.552 1.808,0.994 0.28,0.227 0.532,0.473 0.754,0.735 0.223,0.263 0.422,0.553 0.597,0.866l0.003 -0.001c0.203,0.361 0.357,0.726 0.462,1.093 0.114,0.399 0.172,0.796 0.172,1.19 0,0.316 -0.041,0.635 -0.123,0.954 -0.093,0.364 -0.232,0.685 -0.414,0.963l-0.001 -0.001 -0.037 0.055z"/>
  <path class="fil2 str0" d="M84.952 3.705c0.226,0 0.446,0.014 0.661,0.043 0.328,0.045 0.615,0.133 0.861,0.265 0.113,-0.04 0.235,-0.078 0.366,-0.117 0.259,-0.075 0.51,-0.133 0.753,-0.172 0.287,-0.046 0.544,-0.07 0.769,-0.07 1.17,0 2.214,0.404 3.128,1.21 0.321,0.283 0.606,0.604 0.856,0.962 0.244,0.348 0.45,0.726 0.617,1.131 0.174,0.423 0.303,0.845 0.385,1.263 0.085,0.437 0.128,0.876 0.128,1.316 0,1.923 -0.664,3.525 -1.991,4.796 -0.53,0.512 -1.107,0.901 -1.729,1.165 -0.355,0.152 -0.72,0.262 -1.092,0.331 -0.014,0.536 -0.181,1.025 -0.5,1.466l0 0.007c-0.276,0.382 -0.649,0.686 -1.119,0.914l0.001 0.003c-0.342,0.167 -0.735,0.289 -1.178,0.366 -0.374,0.065 -0.779,0.097 -1.215,0.097 -1.499,0 -2.842,-0.316 -4.029,-0.948l-0.003 0.006c-0.462,-0.245 -0.839,-0.56 -1.128,-0.941 -0.376,-0.495 -0.564,-1.04 -0.564,-1.635 0,-0.239 0.033,-0.48 0.1,-0.721 0.086,-0.309 0.228,-0.588 0.428,-0.836l-0.002 -0.002c0.152,-0.188 0.343,-0.361 0.574,-0.517l0.021 -0.387c0.025,-0.513 0.045,-1.142 0.061,-1.883 -0.011,-0.367 -0.024,-0.699 -0.039,-0.997 -0.224,-0.141 -0.425,-0.316 -0.601,-0.524 -0.205,-0.241 -0.359,-0.512 -0.464,-0.813 -0.101,-0.289 -0.151,-0.581 -0.151,-0.873 0,-0.351 0.063,-0.686 0.19,-1.008 0.118,-0.297 0.295,-0.575 0.534,-0.838l-0.005 -0.004c0.188,-0.208 0.412,-0.397 0.672,-0.567 0.188,-0.123 0.422,-0.248 0.701,-0.375l0.007 -0.008c0.741,-0.335 1.431,-0.595 2.07,-0.781 0.699,-0.203 1.335,-0.308 1.905,-0.316l0.022 -0.008z"/>
  <path class="fil2 str0" d="M76.014 3.654c1.362,0 2.546,0.367 3.551,1.099l0.007 0c0.304,0.224 0.565,0.467 0.784,0.728 0.238,0.286 0.432,0.603 0.58,0.953l0.007 0.015c0.132,0.317 0.227,0.662 0.283,1.033 0.049,0.326 0.074,0.681 0.074,1.063l-0.007 0.022 -0.017 1.21 0.007 0c0,0.176 0.003,0.331 0.007,0.466 0.193,0.129 0.364,0.292 0.512,0.488l-0.004 0.004c0.303,0.402 0.454,0.86 0.454,1.375 0,0.356 -0.07,0.719 -0.213,1.089 -0.112,0.29 -0.271,0.575 -0.478,0.854l0.002 0.001c-0.184,0.251 -0.399,0.484 -0.645,0.7 -0.239,0.209 -0.488,0.388 -0.747,0.538 -0.339,0.199 -0.699,0.352 -1.079,0.458 -0.392,0.11 -0.783,0.165 -1.174,0.165 -0.537,0 -1.045,-0.103 -1.524,-0.311 -0.115,-0.05 -0.226,-0.105 -0.334,-0.165 -0.188,0.089 -0.382,0.165 -0.582,0.229 -0.513,0.165 -1.038,0.247 -1.574,0.247 -0.514,0 -1.001,-0.061 -1.46,-0.182 -0.504,-0.133 -0.959,-0.34 -1.366,-0.621l-0.008 -0.007c-0.288,-0.202 -0.536,-0.422 -0.741,-0.658l0 -0.007c-0.211,-0.242 -0.393,-0.51 -0.545,-0.801 -0.16,-0.302 -0.278,-0.61 -0.356,-0.923l0 -0.008c-0.083,-0.33 -0.123,-0.655 -0.123,-0.977 0,-0.93 0.298,-1.751 0.894,-2.472 -0.071,-0.117 -0.132,-0.238 -0.184,-0.364l0.004 -0.002c-0.14,-0.342 -0.209,-0.698 -0.209,-1.06 0,-0.703 0.243,-1.364 0.741,-1.98 0.192,-0.238 0.414,-0.458 0.663,-0.659 0.235,-0.188 0.489,-0.358 0.763,-0.509l0.03 -0.015c0.638,-0.338 1.287,-0.591 1.946,-0.758l0.007 0c0.676,-0.171 1.361,-0.258 2.054,-0.258zm5.259 6.959c-0.006,-0.008 -0.009,-0.011 -0.004,0.002l0.004 -0.002z"/>
  <path class="fil2 str0" d="M59.531 9.901l0 -4.218c-0.282,-0.142 -0.529,-0.318 -0.74,-0.529 -0.499,-0.497 -0.749,-1.094 -0.749,-1.79 0,-0.442 0.105,-0.857 0.315,-1.24l0.003 0.002c0.212,-0.385 0.504,-0.697 0.875,-0.933l0.03 -0.015c0.29,-0.178 0.615,-0.307 0.974,-0.385 0.286,-0.062 0.594,-0.094 0.922,-0.094 0.091,0 0.04,0.005 0.39,0.014l0.593 0.017 0 -0.005 0.497 0 0 0.007 1.067 -0.009c0.205,-0.002 0.354,-0.006 0.448,-0.011l0.497 -0.044c0.959,-0.084 0.898,-0.075 1.105,-0.094 0.213,-0.022 0.391,-0.036 0.533,-0.044 0.233,-0.013 0.41,-0.02 0.523,-0.02 0.582,0 1.15,0.064 1.703,0.19 0.551,0.126 1.078,0.321 1.582,0.584l0.003 -0.006c0.921,0.48 1.629,1.129 2.124,1.945 0.494,0.817 0.741,1.743 0.741,2.779 0,0.848 -0.169,1.626 -0.507,2.335 -0.341,0.716 -0.845,1.335 -1.509,1.858l-0.007 0c-0.582,0.456 -1.225,0.798 -1.928,1.025 -0.394,0.128 -0.8,0.218 -1.218,0.273 0.307,0.42 0.46,0.884 0.46,1.388 0,0.686 -0.248,1.283 -0.746,1.786l-0.007 0.008c-0.332,0.335 -0.767,0.598 -1.306,0.788l0.001 0.003c-0.4,0.141 -0.855,0.244 -1.363,0.307 -0.453,0.057 -0.959,0.086 -1.518,0.086 -1.228,0 -2.198,-0.122 -2.909,-0.366 -1.364,-0.469 -2.046,-1.329 -2.046,-2.581 0,-0.286 0.049,-0.566 0.144,-0.839 0.121,-0.344 0.302,-0.637 0.543,-0.878l0.023 -0.015c0.123,-0.119 0.272,-0.237 0.448,-0.352 0.008,-0.265 0.013,-0.575 0.016,-0.927l-0.007 0z"/>
  <path class="fil2 str0" d="M52.099 5.996c0.051,0 0.158,0.005 0.316,0.014l0.007 0c0.113,0.006 0.22,0.015 0.322,0.026 0.265,0.03 0.535,0.054 0.809,0.073 0.186,0.013 0.358,0.02 0.515,0.02 0.247,0 0.396,-0.005 0.444,-0.013l0.081 -0.007 0.287 -0.037c0.152,-0.016 0.265,-0.025 0.338,-0.025 0.75,0 1.335,0.312 1.753,0.931 0.266,0.391 0.397,0.838 0.397,1.341 0,0.217 -0.023,0.461 -0.069,0.73 -0.034,0.193 -0.089,0.424 -0.166,0.692l0.003 0.001c-0.071,0.252 -0.149,0.486 -0.23,0.701 -0.09,0.235 -0.188,0.461 -0.292,0.676l-0.023 0.029c-0.113,0.223 -0.201,0.382 -0.263,0.479 -0.121,0.191 -0.255,0.361 -0.398,0.508 -0.218,0.224 -0.465,0.399 -0.74,0.52 -0.298,0.132 -0.609,0.198 -0.933,0.198 -0.084,0 -0.21,-0.008 -0.372,-0.025l-0.008 0c-0.111,-0.012 -0.223,-0.027 -0.334,-0.046 -0.182,-0.031 -0.389,-0.055 -0.62,-0.071 -0.215,-0.016 -0.47,-0.024 -0.768,-0.024 -0.244,0 -0.431,0.006 -0.558,0.019l-0.314 0.026c-0.149,0.009 -0.244,0.014 -0.286,0.014 -1.488,0 -2.232,-0.764 -2.232,-2.292 0,-0.352 0.095,-0.839 0.283,-1.447 0.077,-0.246 0.156,-0.473 0.236,-0.682 0.095,-0.245 0.188,-0.455 0.281,-0.627l0.015 -0.029c0.108,-0.193 0.221,-0.369 0.338,-0.528 0.153,-0.208 0.322,-0.389 0.507,-0.543 0.242,-0.202 0.511,-0.355 0.804,-0.454 0.249,-0.084 0.522,-0.132 0.818,-0.141l0.052 -0.007z"/>
  <path class="fil2 str0" d="M40.976 2.983l-0.026 0.877c0.458,-0.092 0.988,-0.138 1.59,-0.138 0.423,0 0.843,0.027 1.26,0.08 0.447,0.057 0.838,0.145 1.173,0.262 0.246,0.087 0.482,0.209 0.707,0.37 0.226,0.158 0.425,0.351 0.596,0.573 0.179,0.231 0.318,0.476 0.413,0.735 0.107,0.293 0.162,0.592 0.162,0.899 0,0.51 -0.141,0.971 -0.422,1.381 -0.272,0.397 -0.64,0.692 -1.103,0.884l-0.001 -0.003 -0.019 0.008 0.154 0.203c0.235,0.305 0.429,0.548 0.584,0.732l0.015 0.015c0.08,0.098 0.176,0.208 0.286,0.329l-0.004 0.003c0.039,0.042 0.073,0.076 0.103,0.102l0.071 0.048 -0.003 0.004c0.048,0.03 0.123,0.074 0.224,0.13 0.414,0.228 0.747,0.498 1,0.812 0.38,0.472 0.57,0.997 0.57,1.575 0,0.458 -0.11,0.891 -0.331,1.295l0 0.007c-0.209,0.38 -0.507,0.702 -0.896,0.958l0.001 0.002c-0.304,0.201 -0.655,0.35 -1.052,0.445 -0.337,0.081 -0.677,0.121 -1.022,0.121l-2.681 0 -0.03 -0.007c-0.446,-0.007 -0.855,-0.099 -1.226,-0.275 -0.18,-0.086 -0.348,-0.188 -0.504,-0.308 -0.19,0.137 -0.402,0.255 -0.635,0.353l-0.015 0.008c-0.355,0.147 -0.787,0.252 -1.293,0.316 -0.412,0.053 -0.894,0.08 -1.444,0.081 -0.634,-0.001 -1.13,-0.014 -1.485,-0.036 -0.494,-0.033 -0.886,-0.089 -1.178,-0.172l-0.037 -0.014c-0.293,-0.089 -0.558,-0.214 -0.793,-0.378 -0.225,-0.156 -0.434,-0.357 -0.626,-0.602 -0.194,-0.247 -0.339,-0.504 -0.438,-0.771 -0.111,-0.304 -0.167,-0.612 -0.167,-0.924 0,-0.461 0.13,-0.898 0.388,-1.305l-0.005 -0.003c0.148,-0.231 0.338,-0.442 0.57,-0.629 0.023,-0.228 0.042,-0.486 0.056,-0.775 0.03,-0.592 0.043,-1.263 0.041,-2.014l-0.008 0 0 -1.777c-0.134,-0.075 -0.261,-0.161 -0.378,-0.258l-0.004 0.004c-0.571,-0.474 -0.858,-1.086 -0.858,-1.833 0,-0.404 0.099,-0.794 0.296,-1.172 0.164,-0.314 0.387,-0.591 0.667,-0.831l0.014 -0.008c0.21,-0.176 0.46,-0.338 0.747,-0.486 0.257,-0.131 0.522,-0.246 0.793,-0.346 0.784,-0.29 1.477,-0.51 2.079,-0.661 0.692,-0.173 1.287,-0.26 1.784,-0.26 1.621,0 2.406,0.791 2.34,2.374z"/>
  <path class="fil2 str0" d="M30.201 3.663c0.658,0 1.291,0.086 1.898,0.258 0.612,0.174 1.192,0.44 1.736,0.797 0.595,0.392 1.055,0.853 1.378,1.38 0.365,0.597 0.548,1.244 0.548,1.941 0,0.489 -0.093,0.953 -0.28,1.392l-0.002 -0.001c-0.133,0.312 -0.306,0.594 -0.518,0.846 0.129,0.196 0.234,0.407 0.313,0.633l0 0.007c0.109,0.315 0.164,0.631 0.164,0.945 0,0.357 -0.069,0.716 -0.21,1.072 -0.109,0.277 -0.268,0.555 -0.477,0.833l0.003 0.002c-0.175,0.235 -0.379,0.457 -0.612,0.665 -0.218,0.195 -0.457,0.373 -0.716,0.533l-0.008 0.008c-0.512,0.314 -1.073,0.551 -1.682,0.71 -0.593,0.154 -1.207,0.231 -1.841,0.231 -0.769,0 -1.498,-0.117 -2.185,-0.351 -0.706,-0.241 -1.348,-0.6 -1.924,-1.076l0.002 -0.003c-0.725,-0.594 -1.275,-1.285 -1.653,-2.071 -0.385,-0.801 -0.577,-1.664 -0.577,-2.587 0,-0.896 0.179,-1.729 0.536,-2.501 0.352,-0.764 0.873,-1.441 1.56,-2.03 0.635,-0.544 1.339,-0.954 2.112,-1.228 0.761,-0.27 1.573,-0.405 2.435,-0.405z"/>
  <path class="fil2 str0" d="M20.404 3.654c0.675,0 1.327,0.093 1.953,0.278 0.631,0.187 1.22,0.468 1.766,0.842l0.001 -0.002c0.392,0.269 0.752,0.586 1.081,0.952 0.322,0.36 0.598,0.749 0.827,1.165l0.008 0.008c0.235,0.434 0.418,0.899 0.548,1.393 0.129,0.497 0.195,0.99 0.195,1.478 0,0.912 -0.214,1.765 -0.642,2.556 -0.403,0.748 -0.988,1.414 -1.752,1.999 -0.684,0.522 -1.432,0.919 -2.242,1.189 -0.807,0.269 -1.642,0.403 -2.506,0.403 -0.861,0 -1.664,-0.131 -2.408,-0.391 -0.775,-0.273 -1.464,-0.685 -2.064,-1.236 -0.609,-0.557 -1.065,-1.199 -1.369,-1.924 -0.296,-0.711 -0.445,-1.482 -0.445,-2.314 0,-0.913 0.181,-1.766 0.541,-2.558 0.359,-0.788 0.886,-1.479 1.58,-2.071 0.687,-0.591 1.45,-1.034 2.286,-1.329 0.825,-0.292 1.706,-0.438 2.642,-0.438z"/>
  <path class="fil2 str0" d="M9.257 15.016c-0.276,0.215 -0.604,0.385 -0.985,0.511l0 0.007c-0.346,0.115 -0.794,0.199 -1.344,0.253 -0.491,0.048 -1.02,0.072 -1.586,0.072 -1.244,0 -2.232,-0.139 -2.963,-0.416 -1.329,-0.504 -1.993,-1.384 -1.993,-2.638 0,-0.239 0.033,-0.472 0.097,-0.695l0.002 0.001c0.078,-0.273 0.205,-0.526 0.376,-0.754l0 -0.007c0.124,-0.164 0.283,-0.323 0.476,-0.478 0.058,-0.047 0.125,-0.097 0.2,-0.151 0.011,-0.101 0.022,-0.229 0.032,-0.385l0 -0.015c0.015,-0.207 0.025,-0.616 0.031,-1.227 0.002,-0.214 0.004,-1.158 0.004,-2.851 0,-0.298 -0.005,-0.538 -0.015,-0.722l-0.045 -0.029 0.002 -0.003c-0.224,-0.148 -0.419,-0.317 -0.582,-0.508l-0.003 0.003c-0.205,-0.239 -0.358,-0.511 -0.456,-0.81 -0.084,-0.258 -0.127,-0.523 -0.127,-0.796 0,-0.36 0.077,-0.713 0.229,-1.055 0.135,-0.3 0.328,-0.574 0.581,-0.819l-0.004 -0.003c0.223,-0.218 0.473,-0.399 0.749,-0.539l0.003 0.006c0.249,-0.128 0.507,-0.225 0.772,-0.291l0.001 0.003c0.209,-0.054 0.446,-0.092 0.709,-0.116 0.273,-0.025 0.512,-0.037 0.723,-0.037 0.088,0 0.292,0.01 0.617,0.029 0.306,0.018 0.609,0.039 0.891,0.061l0.17 0.012c0.077,0.002 0.037,-0.003 0.342,-0.003 0.288,0 0.546,-0.006 0.78,-0.018 0.232,-0.011 0.591,-0.036 1.066,-0.073 0.188,-0.015 0.424,-0.029 0.712,-0.045 0.275,-0.015 0.453,-0.022 0.529,-0.022 0.754,0 1.469,0.098 2.143,0.295 0.71,0.206 1.344,0.516 1.904,0.928l0.007 0.007c0.599,0.443 1.052,0.978 1.359,1.606 0.301,0.618 0.452,1.3 0.452,2.046 0,0.833 -0.208,1.613 -0.625,2.33l0.002 0.001 -0.05 0.084c0.154,0.17 0.294,0.354 0.421,0.552l0.007 0c0.225,0.354 0.413,0.785 0.563,1.29 0.092,0.311 0.17,0.661 0.234,1.05 0.133,0.068 0.258,0.148 0.375,0.242 0.201,0.159 0.373,0.35 0.518,0.569 0.141,0.211 0.246,0.438 0.318,0.683l0 0.007c0.072,0.247 0.108,0.484 0.108,0.715 0,0.312 -0.058,0.623 -0.175,0.93l-0.008 0c-0.097,0.253 -0.232,0.495 -0.407,0.725l-0.007 0.015c-0.162,0.21 -0.345,0.397 -0.548,0.559 -0.196,0.156 -0.416,0.292 -0.654,0.406l-0.015 0.007c-0.382,0.177 -0.817,0.307 -1.304,0.389 -0.433,0.074 -0.897,0.11 -1.391,0.11 -0.757,0 -1.435,-0.11 -2.034,-0.33 -0.445,-0.165 -0.84,-0.387 -1.184,-0.668z"/>
  <path class="fil3 str0" d="M170.69 5.548c1.009,0 1.896,0.262 2.655,0.785 0.548,0.376 0.986,0.864 1.317,1.466 0.342,0.63 0.514,1.286 0.514,1.969 0,1.198 -0.551,2.215 -1.647,3.054 -1.048,0.799 -2.249,1.2 -3.601,1.2 -1.317,0 -2.385,-0.375 -3.201,-1.124 -0.797,-0.729 -1.192,-1.678 -1.192,-2.848 0,-1.302 0.486,-2.367 1.455,-3.195 1.017,-0.872 2.248,-1.307 3.7,-1.307zm-0.664 1.912c-0.243,0 -0.435,0.091 -0.582,0.268 -0.147,0.181 -0.22,0.419 -0.22,0.715 0,0.333 0.062,0.783 0.186,1.353 0.125,0.574 0.272,1.079 0.444,1.52 0.169,0.452 0.449,0.678 0.836,0.678 0.492,0 0.737,-0.311 0.737,-0.935 0,-0.463 -0.062,-0.989 -0.186,-1.579 -0.125,-0.59 -0.277,-1.071 -0.452,-1.441 -0.181,-0.376 -0.435,-0.568 -0.763,-0.579z"/>
  <path class="fil3 str0" d="M99.822 10.09l-3.889 0c-0.17,0 -0.255,0.076 -0.255,0.226 0,0.359 0.192,0.695 0.582,1.011 0.39,0.319 0.808,0.478 1.254,0.478 0.266,0 0.56,-0.051 0.882,-0.153 0.322,-0.102 0.59,-0.228 0.799,-0.378 0.187,-0.13 0.337,-0.198 0.447,-0.198 0.144,0 0.285,0.087 0.421,0.266 0.138,0.174 0.209,0.358 0.209,0.544 0,0.399 -0.249,0.783 -0.746,1.15 -0.879,0.659 -1.89,0.986 -3.037,0.986 -1.158,0 -2.13,-0.336 -2.915,-1.008 -0.379,-0.334 -0.695,-0.732 -0.944,-1.201 -0.325,-0.624 -0.485,-1.279 -0.485,-1.969 0,-0.929 0.279,-1.76 0.841,-2.5 0.486,-0.641 1.105,-1.118 1.856,-1.432 0.562,-0.237 1.173,-0.356 1.828,-0.356 1.048,0 1.941,0.297 2.672,0.893 0.37,0.299 0.67,0.652 0.896,1.059 0.259,0.463 0.389,0.918 0.389,1.359 0,0.359 -0.076,0.652 -0.225,0.881 -0.147,0.229 -0.342,0.342 -0.58,0.342zm-3.672 -1.545l0.836 0c0.354,0 0.528,-0.164 0.528,-0.489 0,-0.299 -0.084,-0.542 -0.256,-0.729 -0.17,-0.186 -0.393,-0.282 -0.67,-0.282 -0.308,0 -0.551,0.121 -0.729,0.364 -0.166,0.226 -0.248,0.455 -0.248,0.687 0,0.166 0.039,0.282 0.121,0.347 0.079,0.068 0.218,0.102 0.418,0.102z"/>
  <path class="fil3 str0" d="M84.952 5.599c0.336,0 0.546,0.028 0.63,0.084 0.082,0.06 0.124,0.204 0.124,0.435 0,0.204 0.066,0.308 0.198,0.308 0.054,0 0.24,-0.104 0.554,-0.316 0.237,-0.158 0.54,-0.294 0.907,-0.401 0.367,-0.108 0.697,-0.161 0.997,-0.161 0.701,0 1.328,0.243 1.879,0.729 0.418,0.37 0.745,0.836 0.977,1.398 0.243,0.59 0.364,1.212 0.364,1.861 0,1.39 -0.468,2.537 -1.406,3.436 -0.723,0.7 -1.546,1.05 -2.469,1.05 -0.47,0 -0.949,-0.11 -1.447,-0.33 -0.099,-0.045 -0.181,-0.068 -0.24,-0.068 -0.166,0 -0.248,0.166 -0.248,0.497 0,0.438 0.147,0.752 0.437,0.944 0.272,0.183 0.433,0.305 0.486,0.37 0.051,0.062 0.077,0.169 0.077,0.316 0,0.334 -0.184,0.588 -0.554,0.765 -0.37,0.181 -0.89,0.272 -1.565,0.272 -1.195,0 -2.243,-0.241 -3.144,-0.72 -0.458,-0.244 -0.687,-0.546 -0.687,-0.905 0,-0.163 0.034,-0.29 0.105,-0.375 0.068,-0.085 0.2,-0.176 0.401,-0.269 0.285,-0.132 0.46,-0.372 0.525,-0.72 0.063,-0.347 0.111,-1.347 0.145,-2.997 -0.04,-1.356 -0.088,-2.119 -0.15,-2.283 -0.023,-0.056 -0.054,-0.09 -0.093,-0.107 -0.043,-0.017 -0.178,-0.048 -0.41,-0.093 -0.178,-0.031 -0.322,-0.113 -0.432,-0.243 -0.11,-0.13 -0.164,-0.285 -0.164,-0.466 0,-0.223 0.076,-0.416 0.231,-0.585 0.153,-0.17 0.404,-0.333 0.752,-0.492 1.353,-0.612 2.427,-0.923 3.22,-0.934zm0.82 3.126l-0.125 2.278c-0.006,0.093 -0.008,0.183 -0.008,0.271 0,0.172 0.073,0.31 0.223,0.415 0.15,0.104 0.347,0.158 0.596,0.158 0.763,0 1.142,-0.627 1.142,-1.879 0,-0.813 -0.159,-1.384 -0.478,-1.714 -0.201,-0.204 -0.438,-0.305 -0.712,-0.305 -0.393,0 -0.605,0.257 -0.638,0.776z"/>
  <path class="fil3 str0" d="M76.014 5.548c0.961,0 1.775,0.243 2.441,0.729 0.353,0.259 0.602,0.556 0.743,0.889 0.139,0.334 0.209,0.794 0.209,1.379l-0.017 1.232c0,0.856 0.062,1.409 0.184,1.664 0.059,0.121 0.119,0.197 0.175,0.231 0.053,0.034 0.169,0.062 0.347,0.091 0.175,0.028 0.263,0.143 0.263,0.347 0,0.265 -0.105,0.542 -0.319,0.828 -0.212,0.288 -0.486,0.528 -0.822,0.72 -0.415,0.243 -0.848,0.364 -1.3,0.364 -0.579,0 -1.036,-0.198 -1.372,-0.596 -0.116,-0.144 -0.224,-0.214 -0.325,-0.214 -0.11,0 -0.255,0.067 -0.438,0.206 -0.551,0.403 -1.178,0.604 -1.879,0.604 -0.723,0 -1.308,-0.155 -1.754,-0.463 -0.291,-0.203 -0.525,-0.472 -0.695,-0.8 -0.172,-0.327 -0.257,-0.669 -0.257,-1.028 0,-0.576 0.232,-1.081 0.695,-1.525 0.723,-0.695 1.805,-1.046 3.246,-1.051 0.319,0 0.519,-0.031 0.604,-0.093 0.082,-0.065 0.122,-0.212 0.122,-0.444 0,-0.585 -0.06,-1.008 -0.181,-1.271 -0.122,-0.26 -0.319,-0.393 -0.596,-0.393 -0.167,0 -0.314,0.051 -0.443,0.15 -0.131,0.099 -0.292,0.28 -0.484,0.545 -0.491,0.701 -1.005,1.051 -1.539,1.051 -0.271,0 -0.492,-0.079 -0.661,-0.24 -0.173,-0.158 -0.257,-0.37 -0.257,-0.627 0,-0.266 0.104,-0.531 0.319,-0.797 0.212,-0.263 0.5,-0.494 0.864,-0.694 0.998,-0.529 2.04,-0.794 3.127,-0.794zm-0.553 4.791c-0.243,0 -0.455,0.098 -0.633,0.299 -0.181,0.198 -0.268,0.435 -0.268,0.712 0,0.265 0.062,0.478 0.189,0.641 0.127,0.161 0.294,0.243 0.505,0.243 0.441,0 0.661,-0.373 0.661,-1.116 0,-0.305 -0.03,-0.508 -0.095,-0.613 -0.063,-0.104 -0.184,-0.161 -0.359,-0.166z"/>
  <path class="fil3 str0" d="M61.424 9.901l0 -4.353c0,-0.563 -0.037,-0.921 -0.116,-1.071 -0.076,-0.153 -0.285,-0.277 -0.627,-0.37 -0.497,-0.141 -0.746,-0.39 -0.746,-0.743 0,-0.249 0.105,-0.441 0.314,-0.573 0.212,-0.13 0.514,-0.198 0.912,-0.198 0.133,0 0.461,0.008 0.983,0.025l0.497 0c0.916,-0.005 1.453,-0.011 1.61,-0.02 0.159,-0.008 0.718,-0.056 1.684,-0.146 0.319,-0.031 0.613,-0.048 0.879,-0.048 0.904,0 1.709,0.183 2.415,0.553 1.232,0.642 1.845,1.656 1.845,3.045 0,1.128 -0.43,2.029 -1.291,2.706 -0.811,0.636 -1.791,0.953 -2.946,0.953 -0.292,0 -0.65,-0.02 -1.074,-0.057 -0.226,-0.017 -0.367,-0.025 -0.424,-0.025 -0.158,0 -0.24,0.09 -0.24,0.274l0 0.048 0.059 1.359c0.012,0.262 0.06,0.46 0.145,0.59 0.084,0.13 0.259,0.263 0.525,0.401 0.359,0.192 0.537,0.404 0.537,0.63 0,0.347 -0.263,0.616 -0.794,0.802 -0.529,0.187 -1.28,0.283 -2.252,0.283 -2.039,0 -3.062,-0.35 -3.062,-1.054 0,-0.164 0.045,-0.291 0.133,-0.378 0.09,-0.088 0.296,-0.215 0.622,-0.382 0.197,-0.104 0.313,-0.251 0.347,-0.438 0.034,-0.189 0.057,-0.793 0.065,-1.813zm3.734 -5.404l0 2.813c0,0.215 0.046,0.345 0.142,0.39 0.158,0.076 0.358,0.116 0.601,0.116 0.365,0 0.672,-0.102 0.921,-0.308 0.359,-0.291 0.537,-0.782 0.537,-1.472 0,-0.717 -0.209,-1.237 -0.63,-1.556 -0.263,-0.204 -0.585,-0.305 -0.958,-0.305 -0.409,0 -0.613,0.107 -0.613,0.322z"/>
  <path class="fil4 str0" d="M20.404 5.548c1.008,0 1.895,0.262 2.655,0.785 0.549,0.376 0.986,0.864 1.316,1.466 0.343,0.63 0.515,1.286 0.515,1.969 0,1.198 -0.551,2.215 -1.647,3.054 -1.048,0.799 -2.249,1.2 -3.602,1.2 -1.316,0 -2.384,-0.376 -3.2,-1.124 -0.797,-0.729 -1.192,-1.678 -1.192,-2.848 -0.001,-1.302 0.486,-2.367 1.454,-3.195 1.017,-0.872 2.249,-1.307 3.701,-1.307zm0.186 1.96c-0.227,-0.089 -0.438,-0.075 -0.64,0.036 -0.203,0.115 -0.358,0.309 -0.467,0.585 -0.122,0.31 -0.228,0.751 -0.321,1.328 -0.094,0.579 -0.142,1.103 -0.143,1.577 -0.007,0.482 0.171,0.795 0.531,0.936 0.457,0.18 0.8,-0.019 1.028,-0.6 0.169,-0.432 0.304,-0.943 0.404,-1.538 0.1,-0.595 0.134,-1.098 0.106,-1.506 -0.031,-0.416 -0.197,-0.688 -0.498,-0.818z"/>
  <path class="fil4 str0" d="M7.791 9.048c-0.209,0 -0.342,0.064 -0.401,0.192 -0.057,0.127 -0.088,0.421 -0.088,0.884 0,0.7 0.045,1.249 0.133,1.639 0.028,0.109 0.071,0.197 0.124,0.256 0.057,0.063 0.161,0.136 0.317,0.223 0.33,0.184 0.494,0.424 0.494,0.721 0,0.364 -0.229,0.621 -0.689,0.774 -0.461,0.152 -1.241,0.229 -2.339,0.229 -2.042,0 -3.062,-0.387 -3.062,-1.161 0,-0.13 0.031,-0.237 0.09,-0.317 0.062,-0.082 0.2,-0.192 0.415,-0.336 0.243,-0.161 0.407,-0.35 0.492,-0.568 0.084,-0.217 0.144,-0.593 0.178,-1.13 0.028,-0.389 0.042,-1.793 0.042,-4.211 0,-0.766 -0.039,-1.289 -0.116,-1.565 -0.079,-0.274 -0.243,-0.475 -0.497,-0.602 -0.243,-0.116 -0.407,-0.223 -0.489,-0.319 -0.082,-0.097 -0.124,-0.223 -0.124,-0.379 0,-0.203 0.079,-0.381 0.238,-0.531 0.155,-0.152 0.375,-0.266 0.658,-0.336 0.237,-0.062 0.562,-0.09 0.974,-0.09 0.184,0 0.639,0.025 1.367,0.081 0.136,0.012 0.356,0.017 0.653,0.017 0.497,0 1.158,-0.034 1.986,-0.098 0.525,-0.04 0.893,-0.06 1.101,-0.06 1.181,0 2.159,0.285 2.93,0.853 0.695,0.514 1.042,1.223 1.042,2.136 0,0.506 -0.121,0.969 -0.364,1.384 -0.243,0.418 -0.577,0.732 -1,0.941 -0.178,0.087 -0.266,0.192 -0.266,0.313 0,0.161 0.136,0.291 0.407,0.39 0.579,0.209 1.003,0.528 1.274,0.952 0.268,0.424 0.464,1.076 0.579,1.952 0.048,0.364 0.122,0.602 0.215,0.709 0.093,0.108 0.311,0.212 0.652,0.311 0.108,0.031 0.195,0.102 0.266,0.209 0.073,0.11 0.107,0.229 0.107,0.362 0,0.169 -0.064,0.341 -0.197,0.517 -0.133,0.172 -0.305,0.31 -0.515,0.409 -0.463,0.215 -1.095,0.322 -1.903,0.322 -1.074,0 -1.845,-0.283 -2.308,-0.853 -0.21,-0.252 -0.387,-0.574 -0.534,-0.958 -0.147,-0.387 -0.32,-0.988 -0.517,-1.805 -0.127,-0.525 -0.289,-0.892 -0.483,-1.11 -0.198,-0.215 -0.478,-0.33 -0.842,-0.347zm-0.48 -4.221l-0.091 1.929c0,0.017 0,0.04 0,0.074 0,0.198 0.028,0.33 0.088,0.398 0.056,0.065 0.175,0.099 0.35,0.099 0.486,0 0.839,-0.124 1.06,-0.375 0.223,-0.252 0.333,-0.653 0.333,-1.207 0,-1.065 -0.379,-1.596 -1.136,-1.596 -0.215,0 -0.367,0.051 -0.455,0.15 -0.087,0.099 -0.138,0.274 -0.149,0.528z"/>
  <path class="fil3 str0" d="M152.724 5.556c0.277,0 0.726,0.059 1.35,0.181 0.127,0.023 0.232,0.034 0.314,0.034 0.093,0 0.277,-0.048 0.545,-0.15 0.127,-0.048 0.234,-0.073 0.325,-0.073 0.254,0 0.508,0.163 0.768,0.488 0.209,0.26 0.381,0.543 0.514,0.853 0.133,0.308 0.198,0.577 0.198,0.803 0,0.22 -0.076,0.404 -0.232,0.551 -0.155,0.144 -0.347,0.217 -0.579,0.217 -0.192,0 -0.364,-0.045 -0.517,-0.138 -0.152,-0.096 -0.395,-0.303 -0.731,-0.622 -0.353,-0.342 -0.647,-0.514 -0.879,-0.514 -0.155,0 -0.288,0.056 -0.401,0.17 -0.113,0.113 -0.17,0.248 -0.17,0.401 0,0.271 0.26,0.525 0.777,0.762 0.933,0.419 1.647,0.876 2.144,1.373 0.421,0.421 0.63,0.932 0.63,1.54 0,0.768 -0.336,1.407 -1.011,1.921 -0.579,0.446 -1.288,0.669 -2.127,0.669 -0.215,0 -0.605,-0.036 -1.175,-0.107 -0.534,-0.06 -0.834,-0.091 -0.901,-0.091 -0.071,0 -0.156,0.009 -0.249,0.026 -0.158,0.02 -0.274,0.031 -0.347,0.031 -0.26,0 -0.464,-0.065 -0.613,-0.198 -0.227,-0.203 -0.435,-0.525 -0.628,-0.963 -0.194,-0.441 -0.29,-0.817 -0.29,-1.13 0,-0.509 0.197,-0.763 0.596,-0.763 0.155,0 0.296,0.051 0.426,0.153 0.13,0.104 0.401,0.376 0.816,0.816 0.227,0.243 0.413,0.41 0.563,0.5 0.15,0.091 0.308,0.139 0.48,0.139 0.181,0 0.328,-0.048 0.438,-0.147 0.11,-0.096 0.166,-0.223 0.166,-0.385 0,-0.248 -0.214,-0.474 -0.638,-0.677 -0.89,-0.435 -1.531,-0.887 -1.924,-1.351 -0.395,-0.463 -0.593,-0.997 -0.593,-1.604 0,-0.656 0.204,-1.223 0.605,-1.698 0.573,-0.678 1.358,-1.017 2.35,-1.017z"/>
  <path class="fil3 str0" d="M146.334 2.502c0.48,0 0.862,0.091 1.141,0.269 0.283,0.181 0.424,0.421 0.424,0.726 0,0.424 -0.212,0.76 -0.638,1.008 -0.673,0.393 -1.486,0.588 -2.441,0.588 -0.404,0 -0.723,-0.076 -0.961,-0.232 -0.319,-0.198 -0.48,-0.474 -0.48,-0.827 0,-0.475 0.339,-0.848 1.02,-1.119 0.689,-0.274 1.333,-0.413 1.935,-0.413z"/>
  <path class="fil3 str0" d="M147.972 6.127l0 4.808c0,0.381 0.034,0.661 0.105,0.836 0.068,0.178 0.209,0.339 0.418,0.488 0.169,0.122 0.285,0.227 0.342,0.311 0.059,0.085 0.087,0.195 0.087,0.328 0,0.712 -0.901,1.068 -2.706,1.068 -0.971,0 -1.74,-0.08 -2.308,-0.232 -0.195,-0.056 -0.35,-0.152 -0.469,-0.291 -0.118,-0.138 -0.178,-0.294 -0.178,-0.471 0,-0.15 0.031,-0.266 0.091,-0.348 0.062,-0.082 0.217,-0.215 0.466,-0.399 0.169,-0.126 0.291,-0.333 0.362,-0.618 0.073,-0.288 0.11,-0.715 0.11,-1.283 0,-0.183 -0.015,-0.525 -0.04,-1.022 -0.023,-0.5 -0.042,-0.791 -0.053,-0.873 -0.032,-0.226 -0.187,-0.401 -0.464,-0.522 -0.342,-0.15 -0.511,-0.371 -0.511,-0.662 0,-0.347 0.223,-0.607 0.669,-0.779 0.619,-0.237 1.28,-0.438 1.986,-0.605 0.706,-0.164 1.252,-0.246 1.639,-0.246 0.305,0 0.454,0.17 0.454,0.512z"/>
  <path class="fil3 str0" d="M139.167 5.556c0.983,0 1.851,0.246 2.599,0.738 0.712,0.469 1.068,1.05 1.068,1.745 0,0.48 -0.164,0.87 -0.497,1.167 -0.308,0.282 -0.681,0.421 -1.116,0.421 -0.458,0 -0.802,-0.164 -1.034,-0.495 -0.073,-0.104 -0.178,-0.373 -0.316,-0.805 -0.147,-0.463 -0.432,-0.695 -0.851,-0.695 -0.305,0 -0.559,0.133 -0.765,0.399 -0.209,0.265 -0.311,0.59 -0.311,0.977 0,0.661 0.237,1.249 0.712,1.763 0.384,0.412 0.87,0.619 1.455,0.619 0.277,0 0.508,-0.023 0.695,-0.068 0.189,-0.048 0.435,-0.144 0.737,-0.288 0.076,-0.037 0.164,-0.057 0.257,-0.057 0.186,0 0.353,0.088 0.497,0.266 0.142,0.175 0.215,0.381 0.215,0.618 0,0.249 -0.102,0.511 -0.308,0.783 -0.203,0.274 -0.469,0.511 -0.802,0.717 -0.718,0.441 -1.562,0.661 -2.54,0.661 -1.135,0 -2.104,-0.33 -2.904,-0.991 -1.028,-0.839 -1.539,-1.907 -1.539,-3.204 0,-1.248 0.477,-2.28 1.429,-3.096 0.913,-0.782 2.017,-1.175 3.319,-1.175z"/>
  <path class="fil3 str0" d="M128.535 2.271c0.567,0 1.313,0.141 2.234,0.421 0.11,0.034 0.198,0.051 0.265,0.051 0.054,0 0.221,-0.051 0.495,-0.15 0.09,-0.034 0.184,-0.048 0.282,-0.048 0.37,0 0.76,0.291 1.17,0.876 0.412,0.584 0.619,1.141 0.619,1.672 0,0.308 -0.094,0.57 -0.277,0.782 -0.187,0.212 -0.41,0.32 -0.676,0.32 -0.22,0 -0.401,-0.046 -0.539,-0.133 -0.136,-0.09 -0.441,-0.351 -0.91,-0.788 -0.661,-0.616 -1.313,-0.927 -1.952,-0.927 -0.31,0 -0.556,0.076 -0.74,0.223 -0.186,0.15 -0.28,0.345 -0.28,0.588 0,0.48 0.424,0.842 1.269,1.085 1.141,0.336 1.873,0.581 2.192,0.737 1.407,0.683 2.11,1.692 2.11,3.02 0,1.175 -0.48,2.135 -1.44,2.881 -0.981,0.76 -2.266,1.141 -3.848,1.141 -0.706,0 -1.452,-0.084 -2.235,-0.251 -0.782,-0.17 -1.35,-0.368 -1.697,-0.593 -0.263,-0.175 -0.503,-0.56 -0.715,-1.153 -0.212,-0.593 -0.319,-1.172 -0.319,-1.735 0,-0.271 0.056,-0.474 0.167,-0.612 0.138,-0.179 0.31,-0.266 0.52,-0.266 0.211,0 0.412,0.107 0.604,0.322 0.116,0.122 0.39,0.512 0.819,1.17 0.203,0.308 0.528,0.564 0.972,0.768 0.446,0.203 0.904,0.305 1.378,0.305 0.41,0 0.741,-0.074 0.995,-0.226 0.254,-0.153 0.381,-0.347 0.381,-0.585 0,-0.22 -0.101,-0.409 -0.299,-0.57 -0.198,-0.159 -0.52,-0.308 -0.969,-0.447 -0.788,-0.248 -1.39,-0.474 -1.803,-0.683 -0.415,-0.207 -0.802,-0.466 -1.158,-0.783 -0.872,-0.771 -1.308,-1.649 -1.308,-2.63 0,-0.485 0.113,-0.96 0.339,-1.421 0.226,-0.46 0.546,-0.859 0.961,-1.194 0.926,-0.777 2.056,-1.167 3.393,-1.167z"/>
  <path class="fil3 str0" d="M115.591 7.89c0.138,0 0.282,0.008 0.438,0.025 0.666,0.07 1.178,0.107 1.531,0.107 0.359,0 0.618,-0.014 0.777,-0.042 0.189,-0.026 0.313,-0.04 0.373,-0.04 0.172,0 0.257,0.127 0.257,0.379 0,0.237 -0.051,0.542 -0.158,0.912 -0.105,0.37 -0.241,0.723 -0.404,1.059 -0.133,0.261 -0.246,0.436 -0.337,0.529 -0.09,0.093 -0.197,0.141 -0.319,0.141 -0.104,0 -0.24,-0.014 -0.404,-0.042 -0.491,-0.082 -1.056,-0.125 -1.697,-0.125 -0.269,0 -0.518,0.012 -0.743,0.034 -0.184,0.017 -0.323,0.026 -0.416,0.026 -0.226,0 -0.339,-0.133 -0.339,-0.399 0,-0.175 0.065,-0.474 0.195,-0.892 0.13,-0.418 0.254,-0.743 0.376,-0.969 0.15,-0.266 0.282,-0.446 0.401,-0.545 0.119,-0.099 0.274,-0.153 0.469,-0.158z"/>
  <path class="fil3 str0" d="M105.029 5.607c0.293,0 0.472,0.039 0.533,0.124 0.065,0.082 0.122,0.348 0.173,0.794 0.025,0.243 0.113,0.364 0.254,0.364 0.11,0 0.218,-0.082 0.317,-0.24 0.44,-0.689 1.016,-1.034 1.728,-1.034 0.503,0 0.913,0.161 1.232,0.486 0.156,0.161 0.282,0.367 0.381,0.619 0.099,0.249 0.15,0.491 0.15,0.723 0,0.26 -0.062,0.525 -0.181,0.8 -0.121,0.271 -0.279,0.497 -0.472,0.672 -0.353,0.339 -0.788,0.506 -1.299,0.506 -0.283,0 -0.517,-0.048 -0.709,-0.15 -0.189,-0.099 -0.44,-0.3 -0.749,-0.602 -0.115,-0.116 -0.223,-0.175 -0.322,-0.175 -0.155,0 -0.257,0.088 -0.302,0.26 -0.048,0.175 -0.071,0.539 -0.071,1.099 0,0.83 0.032,1.401 0.091,1.703 0.04,0.167 0.093,0.28 0.161,0.345 0.071,0.062 0.218,0.127 0.443,0.192 0.498,0.149 0.746,0.41 0.746,0.78 0,0.225 -0.082,0.423 -0.24,0.59 -0.161,0.169 -0.373,0.28 -0.638,0.336 -0.529,0.11 -1.308,0.167 -2.334,0.167 -0.977,0 -1.717,-0.088 -2.226,-0.257 -0.451,-0.156 -0.678,-0.424 -0.678,-0.803 0,-0.288 0.164,-0.545 0.495,-0.771 0.161,-0.104 0.271,-0.2 0.333,-0.285 0.06,-0.085 0.102,-0.204 0.125,-0.353 0.087,-0.5 0.129,-1.43 0.129,-2.789 0,-0.248 -0.025,-0.426 -0.081,-0.533 -0.054,-0.108 -0.164,-0.195 -0.331,-0.26 -0.393,-0.155 -0.588,-0.379 -0.588,-0.67 0,-0.265 0.136,-0.494 0.404,-0.683 0.271,-0.189 0.724,-0.379 1.359,-0.568 0.85,-0.254 1.573,-0.381 2.167,-0.387z"/>
  <path class="fil3 str0" d="M52.099 7.89c0.138,0 0.283,0.008 0.438,0.025 0.667,0.07 1.178,0.107 1.531,0.107 0.358,0 0.619,-0.014 0.777,-0.042 0.189,-0.026 0.313,-0.04 0.373,-0.04 0.172,0 0.257,0.127 0.257,0.379 0,0.237 -0.051,0.542 -0.159,0.912 -0.104,0.37 -0.24,0.723 -0.404,1.059 -0.132,0.261 -0.245,0.436 -0.336,0.529 -0.09,0.093 -0.197,0.141 -0.319,0.141 -0.104,0 -0.24,-0.014 -0.404,-0.042 -0.491,-0.082 -1.056,-0.125 -1.698,-0.125 -0.268,0 -0.516,0.012 -0.742,0.034 -0.184,0.017 -0.322,0.026 -0.416,0.026 -0.226,0 -0.339,-0.133 -0.339,-0.399 0,-0.175 0.065,-0.474 0.195,-0.892 0.13,-0.418 0.255,-0.743 0.376,-0.969 0.15,-0.266 0.282,-0.446 0.401,-0.545 0.119,-0.099 0.274,-0.153 0.469,-0.158z"/>
  <path class="fil4 str0" d="M39.091 2.909l-0.077 2.588c-0.005,0.26 -0.008,0.641 -0.008,1.144 0,0.556 0.008,0.884 0.025,0.983 0.04,0.229 0.156,0.342 0.347,0.342 0.167,0 0.421,-0.108 0.763,-0.32 0.342,-0.211 0.512,-0.372 0.512,-0.477 0,-0.059 -0.06,-0.169 -0.181,-0.331 -0.088,-0.115 -0.133,-0.225 -0.133,-0.33 0,-0.596 0.735,-0.893 2.201,-0.893 0.762,0 1.364,0.077 1.804,0.232 0.176,0.06 0.323,0.164 0.438,0.314 0.116,0.15 0.176,0.307 0.176,0.48 0,0.248 -0.119,0.421 -0.356,0.519 -0.051,0.023 -0.209,0.06 -0.48,0.108 -0.244,0.045 -0.557,0.195 -0.944,0.452 -0.387,0.257 -0.579,0.444 -0.579,0.559 0,0.076 0.231,0.441 0.698,1.088 0.466,0.65 0.901,1.212 1.305,1.692 0.26,0.316 0.46,0.537 0.607,0.664 0.147,0.127 0.35,0.26 0.61,0.404 0.395,0.214 0.594,0.46 0.594,0.737 0,0.291 -0.125,0.523 -0.376,0.687 -0.252,0.166 -0.594,0.248 -1.031,0.248l-2.681 0c-0.336,-0.005 -0.599,-0.13 -0.786,-0.373l-1.372 -1.763c-0.365,-0.463 -0.588,-0.74 -0.667,-0.827 -0.082,-0.088 -0.15,-0.133 -0.204,-0.133 -0.067,0 -0.109,0.051 -0.132,0.15 -0.023,0.099 -0.034,0.288 -0.034,0.562 0,0.248 0.028,0.43 0.084,0.542 0.054,0.113 0.181,0.249 0.379,0.41 0.144,0.116 0.218,0.288 0.218,0.514 0,0.387 -0.207,0.664 -0.613,0.836 -0.41,0.169 -1.082,0.254 -2.02,0.257 -1.104,-0.003 -1.822,-0.048 -2.153,-0.141 -0.186,-0.056 -0.347,-0.167 -0.48,-0.336 -0.133,-0.17 -0.198,-0.348 -0.198,-0.534 0,-0.209 0.116,-0.393 0.348,-0.545 0.197,-0.128 0.325,-0.223 0.381,-0.291 0.054,-0.065 0.099,-0.17 0.133,-0.314 0.127,-0.774 0.186,-1.963 0.181,-3.576l0 -1.811c0,-0.618 -0.031,-1.014 -0.096,-1.184 -0.062,-0.172 -0.218,-0.273 -0.466,-0.307 -0.452,-0.06 -0.678,-0.249 -0.678,-0.562 0,-0.21 0.098,-0.399 0.297,-0.568 0.197,-0.167 0.525,-0.334 0.977,-0.5 1.446,-0.534 2.514,-0.803 3.212,-0.803 0.313,0 0.466,0.136 0.455,0.407z"/>
  <path class="fil4 str0" d="M30.201 5.556c0.983,0 1.85,0.246 2.598,0.738 0.712,0.469 1.068,1.05 1.068,1.745 0,0.48 -0.163,0.87 -0.497,1.167 -0.308,0.282 -0.681,0.421 -1.116,0.421 -0.458,0 -0.802,-0.164 -1.034,-0.495 -0.073,-0.104 -0.178,-0.373 -0.316,-0.805 -0.147,-0.463 -0.432,-0.695 -0.85,-0.695 -0.305,0 -0.56,0.133 -0.766,0.399 -0.209,0.265 -0.311,0.59 -0.311,0.977 0,0.661 0.238,1.249 0.712,1.763 0.384,0.412 0.87,0.619 1.455,0.619 0.277,0 0.508,-0.023 0.695,-0.068 0.189,-0.048 0.435,-0.144 0.737,-0.288 0.076,-0.037 0.164,-0.057 0.257,-0.057 0.187,0 0.353,0.088 0.498,0.266 0.141,0.175 0.214,0.381 0.214,0.618 0,0.249 -0.102,0.511 -0.308,0.783 -0.203,0.274 -0.469,0.511 -0.802,0.717 -0.718,0.441 -1.562,0.661 -2.54,0.661 -1.135,0 -2.104,-0.33 -2.904,-0.991 -1.028,-0.839 -1.539,-1.907 -1.539,-3.204 0,-1.248 0.477,-2.28 1.429,-3.096 0.913,-0.782 2.017,-1.175 3.32,-1.175z"/>
  <path class="fil3 str0" d="M187.975 5.556c0.277,0 0.726,0.059 1.351,0.181 0.127,0.023 0.231,0.034 0.313,0.034 0.093,0 0.277,-0.048 0.546,-0.15 0.126,-0.048 0.234,-0.073 0.324,-0.073 0.254,0 0.509,0.163 0.769,0.488 0.209,0.26 0.381,0.543 0.514,0.853 0.132,0.308 0.197,0.577 0.197,0.803 0,0.22 -0.076,0.404 -0.231,0.551 -0.156,0.144 -0.348,0.217 -0.579,0.217 -0.192,0 -0.365,-0.045 -0.517,-0.138 -0.153,-0.096 -0.396,-0.303 -0.732,-0.622 -0.353,-0.342 -0.647,-0.514 -0.879,-0.514 -0.155,0 -0.288,0.056 -0.4,0.17 -0.114,0.113 -0.17,0.248 -0.17,0.401 0,0.271 0.26,0.525 0.777,0.762 0.932,0.419 1.647,0.876 2.144,1.373 0.421,0.421 0.63,0.932 0.63,1.54 0,0.768 -0.336,1.407 -1.012,1.921 -0.579,0.446 -1.288,0.669 -2.127,0.669 -0.214,0 -0.604,-0.036 -1.175,-0.107 -0.534,-0.06 -0.833,-0.091 -0.901,-0.091 -0.071,0 -0.155,0.009 -0.248,0.026 -0.159,0.02 -0.274,0.031 -0.348,0.031 -0.26,0 -0.463,-0.065 -0.613,-0.198 -0.226,-0.203 -0.435,-0.525 -0.627,-0.963 -0.195,-0.441 -0.291,-0.817 -0.291,-1.13 0,-0.509 0.198,-0.763 0.596,-0.763 0.155,0 0.296,0.051 0.427,0.153 0.13,0.104 0.401,0.376 0.816,0.816 0.226,0.243 0.412,0.41 0.562,0.5 0.15,0.091 0.308,0.139 0.48,0.139 0.181,0 0.328,-0.048 0.438,-0.147 0.11,-0.096 0.167,-0.223 0.167,-0.385 0,-0.248 -0.215,-0.474 -0.639,-0.677 -0.889,-0.435 -1.531,-0.887 -1.923,-1.351 -0.396,-0.463 -0.593,-0.997 -0.593,-1.604 0,-0.656 0.203,-1.223 0.604,-1.698 0.573,-0.678 1.359,-1.017 2.35,-1.017z"/>
  <path class="fil3 str0" d="M179.859 5.607c0.279,0 0.449,0.039 0.508,0.124 0.062,0.082 0.116,0.348 0.164,0.794 0.025,0.243 0.108,0.364 0.242,0.364 0.106,0 0.208,-0.082 0.302,-0.24 0.42,-0.689 0.969,-1.034 1.647,-1.034 0.48,0 0.87,0.161 1.174,0.486 0.148,0.161 0.269,0.367 0.363,0.619 0.094,0.249 0.143,0.491 0.143,0.723 0,0.26 -0.059,0.525 -0.172,0.8 -0.116,0.271 -0.267,0.497 -0.45,0.672 -0.336,0.339 -0.751,0.506 -1.238,0.506 -0.269,0 -0.492,-0.048 -0.676,-0.15 -0.18,-0.099 -0.419,-0.3 -0.713,-0.602 -0.11,-0.116 -0.213,-0.175 -0.307,-0.175 -0.148,0 -0.245,0.088 -0.288,0.26 -0.045,0.175 -0.067,0.539 -0.067,1.099 0,0.83 0.029,1.401 0.086,1.703 0.038,0.167 0.089,0.28 0.154,0.345 0.067,0.062 0.207,0.127 0.422,0.192 0.474,0.149 0.711,0.41 0.711,0.78 0,0.225 -0.078,0.423 -0.229,0.59 -0.154,0.169 -0.355,0.28 -0.608,0.336 -0.504,0.11 -1.247,0.167 -2.224,0.167 -0.931,0 -1.636,-0.088 -2.12,-0.257 -0.431,-0.156 -0.646,-0.424 -0.646,-0.803 0,-0.288 0.155,-0.545 0.47,-0.771 0.154,-0.104 0.259,-0.2 0.318,-0.285 0.057,-0.085 0.097,-0.204 0.118,-0.353 0.084,-0.5 0.124,-1.43 0.124,-2.789 0,-0.248 -0.024,-0.426 -0.078,-0.533 -0.051,-0.108 -0.156,-0.195 -0.315,-0.26 -0.374,-0.155 -0.56,-0.379 -0.56,-0.67 0,-0.265 0.129,-0.494 0.385,-0.683 0.259,-0.189 0.689,-0.379 1.295,-0.568 0.81,-0.254 1.499,-0.381 2.065,-0.387z"/>
  <path class="fil3 str0" d="M160.8 5.556c0.277,0 0.726,0.059 1.351,0.181 0.127,0.023 0.231,0.034 0.313,0.034 0.093,0 0.277,-0.048 0.545,-0.15 0.127,-0.048 0.235,-0.073 0.325,-0.073 0.254,0 0.509,0.163 0.769,0.488 0.209,0.26 0.381,0.543 0.514,0.853 0.132,0.308 0.197,0.577 0.197,0.803 0,0.22 -0.076,0.404 -0.231,0.551 -0.156,0.144 -0.348,0.217 -0.579,0.217 -0.193,0 -0.365,-0.045 -0.517,-0.138 -0.153,-0.096 -0.396,-0.303 -0.732,-0.622 -0.353,-0.342 -0.647,-0.514 -0.879,-0.514 -0.155,0 -0.288,0.056 -0.401,0.17 -0.113,0.113 -0.169,0.248 -0.169,0.401 0,0.271 0.26,0.525 0.777,0.762 0.932,0.419 1.646,0.876 2.144,1.373 0.421,0.421 0.629,0.932 0.629,1.54 0,0.768 -0.336,1.407 -1.011,1.921 -0.579,0.446 -1.288,0.669 -2.127,0.669 -0.214,0 -0.604,-0.036 -1.175,-0.107 -0.534,-0.06 -0.833,-0.091 -0.901,-0.091 -0.071,0 -0.155,0.009 -0.248,0.026 -0.159,0.02 -0.275,0.031 -0.348,0.031 -0.26,0 -0.463,-0.065 -0.613,-0.198 -0.226,-0.203 -0.435,-0.525 -0.627,-0.963 -0.195,-0.441 -0.291,-0.817 -0.291,-1.13 0,-0.509 0.198,-0.763 0.596,-0.763 0.155,0 0.296,0.051 0.427,0.153 0.129,0.104 0.401,0.376 0.816,0.816 0.226,0.243 0.412,0.41 0.562,0.5 0.15,0.091 0.308,0.139 0.48,0.139 0.181,0 0.328,-0.048 0.438,-0.147 0.11,-0.096 0.167,-0.223 0.167,-0.385 0,-0.248 -0.215,-0.474 -0.639,-0.677 -0.89,-0.435 -1.531,-0.887 -1.923,-1.351 -0.396,-0.463 -0.593,-0.997 -0.593,-1.604 0,-0.656 0.203,-1.223 0.604,-1.698 0.573,-0.678 1.359,-1.017 2.35,-1.017z"/>
 </g>
</svg>
